<svg class="main-svg" xmlns="http://www.w3.org/2000/svg" xmlns:xlink="http://www.w3.org/1999/xlink" width="1100" height="600" style="" viewBox="0 0 1100 600"><rect x="0" y="0" width="1100" height="600" style="fill: rgb(255, 255, 255); fill-opacity: 1;"/><defs id="defs-08d582"><g class="clips"><clipPath id="clip08d582xyplot" class="plotclip"><rect width="770.8" height="395"/></clipPath><clipPath id="clip08d582xy2plot" class="plotclip"><rect width="770.8" height="395"/></clipPath><clipPath class="axesclip" id="clip08d582x"><rect x="80" y="0" width="770.8" height="600"/></clipPath><clipPath class="axesclip" id="clip08d582y"><rect x="0" y="100" width="1100" height="395"/></clipPath><clipPath class="axesclip" id="clip08d582xy"><rect x="80" y="100" width="770.8" height="395"/></clipPath><clipPath class="axesclip" id="clip08d582y2"><rect x="0" y="100" width="1100" height="395"/></clipPath><clipPath class="axesclip" id="clip08d582xy2"><rect x="80" y="100" width="770.8" height="395"/></clipPath></g><g class="gradients"/></defs><g class="bglayer"><rect class="bg" x="80" y="100" width="770.8" height="395" style="fill: rgb(229, 236, 246); fill-opacity: 1; stroke-width: 0;"/></g><g class="layer-below"><g class="imagelayer"/><g class="shapelayer"/></g><g class="cartesianlayer"><g class="subplot xy"><g class="layer-subplot"><g class="shapelayer"/><g class="imagelayer"/></g><g class="gridlayer"><g class="x"><path class="xgrid crisp" transform="translate(98.8,0)" d="M0,100v395" style="stroke: rgb(255, 255, 255); stroke-opacity: 1; stroke-width: 1px;"/><path class="xgrid crisp" transform="translate(117.6,0)" d="M0,100v395" style="stroke: rgb(255, 255, 255); stroke-opacity: 1; stroke-width: 1px;"/><path class="xgrid crisp" transform="translate(136.4,0)" d="M0,100v395" style="stroke: rgb(255, 255, 255); stroke-opacity: 1; stroke-width: 1px;"/><path class="xgrid crisp" transform="translate(155.2,0)" d="M0,100v395" style="stroke: rgb(255, 255, 255); stroke-opacity: 1; stroke-width: 1px;"/><path class="xgrid crisp" transform="translate(174,0)" d="M0,100v395" style="stroke: rgb(255, 255, 255); stroke-opacity: 1; stroke-width: 1px;"/><path class="xgrid crisp" transform="translate(192.8,0)" d="M0,100v395" style="stroke: rgb(255, 255, 255); stroke-opacity: 1; stroke-width: 1px;"/><path class="xgrid crisp" transform="translate(211.6,0)" d="M0,100v395" style="stroke: rgb(255, 255, 255); stroke-opacity: 1; stroke-width: 1px;"/><path class="xgrid crisp" transform="translate(230.4,0)" d="M0,100v395" style="stroke: rgb(255, 255, 255); stroke-opacity: 1; stroke-width: 1px;"/><path class="xgrid crisp" transform="translate(249.2,0)" d="M0,100v395" style="stroke: rgb(255, 255, 255); stroke-opacity: 1; stroke-width: 1px;"/><path class="xgrid crisp" transform="translate(268,0)" d="M0,100v395" style="stroke: rgb(255, 255, 255); stroke-opacity: 1; stroke-width: 1px;"/><path class="xgrid crisp" transform="translate(286.8,0)" d="M0,100v395" style="stroke: rgb(255, 255, 255); stroke-opacity: 1; stroke-width: 1px;"/><path class="xgrid crisp" transform="translate(305.6,0)" d="M0,100v395" style="stroke: rgb(255, 255, 255); stroke-opacity: 1; stroke-width: 1px;"/><path class="xgrid crisp" transform="translate(324.4,0)" d="M0,100v395" style="stroke: rgb(255, 255, 255); stroke-opacity: 1; stroke-width: 1px;"/><path class="xgrid crisp" transform="translate(343.2,0)" d="M0,100v395" style="stroke: rgb(255, 255, 255); stroke-opacity: 1; stroke-width: 1px;"/><path class="xgrid crisp" transform="translate(362,0)" d="M0,100v395" style="stroke: rgb(255, 255, 255); stroke-opacity: 1; stroke-width: 1px;"/><path class="xgrid crisp" transform="translate(380.8,0)" d="M0,100v395" style="stroke: rgb(255, 255, 255); stroke-opacity: 1; stroke-width: 1px;"/><path class="xgrid crisp" transform="translate(399.6,0)" d="M0,100v395" style="stroke: rgb(255, 255, 255); stroke-opacity: 1; stroke-width: 1px;"/><path class="xgrid crisp" transform="translate(418.4,0)" d="M0,100v395" style="stroke: rgb(255, 255, 255); stroke-opacity: 1; stroke-width: 1px;"/><path class="xgrid crisp" transform="translate(437.2,0)" d="M0,100v395" style="stroke: rgb(255, 255, 255); stroke-opacity: 1; stroke-width: 1px;"/><path class="xgrid crisp" transform="translate(456,0)" d="M0,100v395" style="stroke: rgb(255, 255, 255); stroke-opacity: 1; stroke-width: 1px;"/><path class="xgrid crisp" transform="translate(474.8,0)" d="M0,100v395" style="stroke: rgb(255, 255, 255); stroke-opacity: 1; stroke-width: 1px;"/><path class="xgrid crisp" transform="translate(493.6,0)" d="M0,100v395" style="stroke: rgb(255, 255, 255); stroke-opacity: 1; stroke-width: 1px;"/><path class="xgrid crisp" transform="translate(512.4,0)" d="M0,100v395" style="stroke: rgb(255, 255, 255); stroke-opacity: 1; stroke-width: 1px;"/><path class="xgrid crisp" transform="translate(531.2,0)" d="M0,100v395" style="stroke: rgb(255, 255, 255); stroke-opacity: 1; stroke-width: 1px;"/><path class="xgrid crisp" transform="translate(550,0)" d="M0,100v395" style="stroke: rgb(255, 255, 255); stroke-opacity: 1; stroke-width: 1px;"/><path class="xgrid crisp" transform="translate(568.8,0)" d="M0,100v395" style="stroke: rgb(255, 255, 255); stroke-opacity: 1; stroke-width: 1px;"/><path class="xgrid crisp" transform="translate(587.6,0)" d="M0,100v395" style="stroke: rgb(255, 255, 255); stroke-opacity: 1; stroke-width: 1px;"/><path class="xgrid crisp" transform="translate(606.4,0)" d="M0,100v395" style="stroke: rgb(255, 255, 255); stroke-opacity: 1; stroke-width: 1px;"/><path class="xgrid crisp" transform="translate(625.2,0)" d="M0,100v395" style="stroke: rgb(255, 255, 255); stroke-opacity: 1; stroke-width: 1px;"/><path class="xgrid crisp" transform="translate(644,0)" d="M0,100v395" style="stroke: rgb(255, 255, 255); stroke-opacity: 1; stroke-width: 1px;"/><path class="xgrid crisp" transform="translate(662.8,0)" d="M0,100v395" style="stroke: rgb(255, 255, 255); stroke-opacity: 1; stroke-width: 1px;"/><path class="xgrid crisp" transform="translate(681.6,0)" d="M0,100v395" style="stroke: rgb(255, 255, 255); stroke-opacity: 1; stroke-width: 1px;"/><path class="xgrid crisp" transform="translate(700.4,0)" d="M0,100v395" style="stroke: rgb(255, 255, 255); stroke-opacity: 1; stroke-width: 1px;"/><path class="xgrid crisp" transform="translate(719.2,0)" d="M0,100v395" style="stroke: rgb(255, 255, 255); stroke-opacity: 1; stroke-width: 1px;"/><path class="xgrid crisp" transform="translate(738,0)" d="M0,100v395" style="stroke: rgb(255, 255, 255); stroke-opacity: 1; stroke-width: 1px;"/><path class="xgrid crisp" transform="translate(756.8,0)" d="M0,100v395" style="stroke: rgb(255, 255, 255); stroke-opacity: 1; stroke-width: 1px;"/><path class="xgrid crisp" transform="translate(775.6,0)" d="M0,100v395" style="stroke: rgb(255, 255, 255); stroke-opacity: 1; stroke-width: 1px;"/><path class="xgrid crisp" transform="translate(794.4,0)" d="M0,100v395" style="stroke: rgb(255, 255, 255); stroke-opacity: 1; stroke-width: 1px;"/><path class="xgrid crisp" transform="translate(813.2,0)" d="M0,100v395" style="stroke: rgb(255, 255, 255); stroke-opacity: 1; stroke-width: 1px;"/><path class="xgrid crisp" transform="translate(832,0)" d="M0,100v395" style="stroke: rgb(255, 255, 255); stroke-opacity: 1; stroke-width: 1px;"/></g><g class="y"><path class="ygrid crisp" transform="translate(0,431.26)" d="M80,0h770.8" style="stroke: rgb(255, 255, 255); stroke-opacity: 1; stroke-width: 1px;"/><path class="ygrid crisp" transform="translate(0,386.97)" d="M80,0h770.8" style="stroke: rgb(255, 255, 255); stroke-opacity: 1; stroke-width: 1px;"/><path class="ygrid crisp" transform="translate(0,342.68)" d="M80,0h770.8" style="stroke: rgb(255, 255, 255); stroke-opacity: 1; stroke-width: 1px;"/><path class="ygrid crisp" transform="translate(0,298.39)" d="M80,0h770.8" style="stroke: rgb(255, 255, 255); stroke-opacity: 1; stroke-width: 1px;"/><path class="ygrid crisp" transform="translate(0,254.11)" d="M80,0h770.8" style="stroke: rgb(255, 255, 255); stroke-opacity: 1; stroke-width: 1px;"/><path class="ygrid crisp" transform="translate(0,209.82)" d="M80,0h770.8" style="stroke: rgb(255, 255, 255); stroke-opacity: 1; stroke-width: 1px;"/><path class="ygrid crisp" transform="translate(0,165.53)" d="M80,0h770.8" style="stroke: rgb(255, 255, 255); stroke-opacity: 1; stroke-width: 1px;"/><path class="ygrid crisp" transform="translate(0,121.24)" d="M80,0h770.8" style="stroke: rgb(255, 255, 255); stroke-opacity: 1; stroke-width: 1px;"/></g><g class="y2"><path class="y2grid crisp" transform="translate(0,463.84)" d="M80,0h770.8" style="stroke: rgb(255, 255, 255); stroke-opacity: 1; stroke-width: 1px;"/><path class="y2grid crisp" transform="translate(0,413.62)" d="M80,0h770.8" style="stroke: rgb(255, 255, 255); stroke-opacity: 1; stroke-width: 1px;"/><path class="y2grid crisp" transform="translate(0,363.39)" d="M80,0h770.8" style="stroke: rgb(255, 255, 255); stroke-opacity: 1; stroke-width: 1px;"/><path class="y2grid crisp" transform="translate(0,313.16999999999996)" d="M80,0h770.8" style="stroke: rgb(255, 255, 255); stroke-opacity: 1; stroke-width: 1px;"/><path class="y2grid crisp" transform="translate(0,262.95)" d="M80,0h770.8" style="stroke: rgb(255, 255, 255); stroke-opacity: 1; stroke-width: 1px;"/><path class="y2grid crisp" transform="translate(0,212.73000000000002)" d="M80,0h770.8" style="stroke: rgb(255, 255, 255); stroke-opacity: 1; stroke-width: 1px;"/><path class="y2grid crisp" transform="translate(0,162.51)" d="M80,0h770.8" style="stroke: rgb(255, 255, 255); stroke-opacity: 1; stroke-width: 1px;"/><path class="y2grid crisp" transform="translate(0,112.28)" d="M80,0h770.8" style="stroke: rgb(255, 255, 255); stroke-opacity: 1; stroke-width: 1px;"/></g></g><g class="zerolinelayer"><path class="yzl zl crisp" transform="translate(0,475.55)" d="M80,0h770.8" style="stroke: rgb(255, 255, 255); stroke-opacity: 1; stroke-width: 2px;"/></g><path class="xlines-below"/><path class="ylines-below"/><g class="overlines-below"><path class="xy2-x"/><path class="xy2-y"/></g><g class="xaxislayer-below"/><g class="yaxislayer-below"/><g class="overaxes-below"><g class="xy2-x"/><g class="xy2-y"/></g><g class="plot" transform="translate(80,100)" clip-path="url('#clip08d582xyplot')"><g class="scatterlayer mlayer"><g class="trace scatter trace47d25d" style="stroke-miterlimit: 2; opacity: 1;"><g class="fills"/><g class="errorbars"/><g class="lines"><path class="js-line" d="M0,275.41L4.7,128.4L9.4,333.79L14.1,341.57L18.8,312.12L23.5,206.35L28.2,130.09L32.9,139.43L37.6,142.72L42.3,228.05L47,359.43L51.7,131.31L56.4,216.82L61.1,113.72L65.8,251.46L70.5,227.24L75.2,123.5L79.9,145.46L84.6,182.72L89.3,97.52L94,270.29L98.7,271.1L103.4,345.78L108.1,311.11L112.8,108.15L117.5,330.47L122.2,354.25L126.9,307.43L131.6,216.22L136.3,341.28L141,187.06L145.7,294.34L150.4,321.94L155.1,319.1L159.8,333.31L164.5,149.96L169.2,295.42L173.9,242.78L178.6,129.58L183.3,270.19L188,364.93L192.7,354.05L197.4,295.42L202.1,361.46L206.8,303.34L211.5,361.68L216.2,350.19L220.9,347.46L225.6,332.6L230.3,263.64L235,346.98L239.7,211.11L244.4,154L249.1,312.3L253.8,304.22L258.5,370.55L263.2,325.88L267.9,285.6L272.6,265.81L277.3,280.33L282,336.08L286.7,348.37L291.4,320.37L300.8,375.1L305.5,362.71L310.2,245.63L314.9,312.08L319.6,277.74L324.3,266.73L329,345.93L333.7,197.03L338.4,308.48L343.1,249.85L347.8,252.56L352.5,302.28L357.2,310.96L361.9,257.92L366.6,324.37L371.3,258.14L376,168.06L380.7,162.66L385.4,283.58L390.1,356.95L394.8,273.54L399.5,368.27L408.9,317.12L413.6,151.91L418.3,333.07L423,221.45L427.7,276.68L432.4,362.78L437.1,88.57L441.8,219.97L446.5,278.81L451.2,298.96L455.9,346.68L460.6,346.02L465.3,362.33L470,353.67L474.7,349.95L479.4,230.38L484.1,360.54L488.8,365.8L493.5,207.79L498.2,359.92L502.9,297.43L507.6,358.94L512.3,246.49L517,323.43L521.7,199.18L526.4,355.32L531.1,364.21L535.8,324.57L540.5,369.18L545.2,363.21L549.9,297.28L554.6,302.75L559.3,363.72L564,328.43L568.7,362.81L573.4,244.49L578.1,312.58L582.8,363.53L587.5,193.95L592.2,355.06L596.9,158L601.6,357.84L606.3,216.72L611,354.11L615.7,361.88L620.4,236.4L625.1,358.4L629.8,358.71L634.5,296.87L639.2,336.39L643.9,367.53L648.6,355.21L653.3,366.37L658,328.93L662.7,237.78L667.4,314.89L672.1,367.38L676.8,353.18L681.5,369.03L686.2,365.34L690.9,259.23L695.6,302.18L700.3,371.39L705,366.22L709.7,355.19L714.4,320.65L719.1,350.56L723.8,370.45L728.5,330.21L733.2,365.9L737.9,314.16L742.6,344.97L747.3,360.62L752,368.63L756.7,141.15L761.4,296.9L766.1,339.01L770.8,346.28" style="vector-effect: non-scaling-stroke; fill: none; stroke: rgb(99, 110, 250); stroke-opacity: 1; stroke-width: 2px; opacity: 1;"/></g><g class="points"/><g class="text"/></g><g class="trace scatter trace4f05d4" style="stroke-miterlimit: 2; opacity: 1;"><g class="fills"/><g class="errorbars"/><g class="lines"><path class="js-line" d="M0,300.41L4.7,94.87L9.4,328L14.1,357.82L18.8,324.55L28.2,102.41L32.9,160.93L37.6,156.39L42.3,251.34L47,357.79L51.7,193.89L56.4,212.38L61.1,101.18L65.8,263.06L70.5,193.57L75.2,210.33L79.9,119.31L84.6,259.29L89.3,127.58L94,297.97L98.7,277.08L103.4,345.6L108.1,303.61L112.8,112.73L117.5,329.13L122.2,355.27L126.9,313.54L131.6,230.79L136.3,347.71L141,194.2L145.7,297.48L150.4,331.15L155.1,311.09L159.8,323.95L164.5,107.97L169.2,296.47L173.9,252.65L178.6,141.68L183.3,273.9L188,365.46L192.7,356.2L197.4,302.29L202.1,361.81L206.8,313.53L211.5,361.57L216.2,351.18L220.9,346.46L225.6,339.53L230.3,269.84L235,346.04L239.7,211.68L244.4,164.14L249.1,312.45L253.8,303.02L258.5,369.33L267.9,285.08L272.6,280L277.3,297.53L282,337.72L286.7,345.17L291.4,338.7L296.1,351.73L300.8,375.25L305.5,365.26L310.2,239.39L314.9,328.79L319.6,272.14L324.3,273.59L329,350.52L333.7,200.68L338.4,326.79L343.1,254.79L347.8,234.97L352.5,308.26L357.2,307.29L361.9,254.62L366.6,321.87L371.3,263.2L376,172.01L380.7,163.6L385.4,282.18L390.1,358.27L394.8,291.54L399.5,369.41L404.2,348.77L408.9,322.06L413.6,167.51L418.3,329.62L423,226.64L432.4,366.46L437.1,85.41L441.8,252.92L446.5,259.86L455.9,347.66L460.6,349.43L465.3,362.44L470,354.71L474.7,350.69L479.4,236.44L484.1,362.55L488.8,366.23L493.5,209.63L498.2,359.62L502.9,304.26L507.6,361.97L512.3,247.96L517,327.02L521.7,220.39L526.4,357.76L531.1,366.39L535.8,324.27L540.5,368.43L545.2,362.43L549.9,301.13L554.6,304.48L559.3,363.66L564,332.1L568.7,364.85L573.4,255.58L582.8,365.11L587.5,220.22L592.2,355.69L596.9,194.56L601.6,339.23L606.3,213.57L611,356.13L615.7,362.15L620.4,234.05L625.1,359.89L629.8,363.4L634.5,310.48L639.2,342.33L643.9,368.08L648.6,362.07L653.3,364.67L658,333.26L662.7,260.58L672.1,368.91L676.8,352.53L681.5,369.1L686.2,365.49L690.9,278.96L695.6,313.85L700.3,371.02L705,366.92L709.7,354.22L714.4,328.77L719.1,351.91L723.8,369.89L728.5,325.65L733.2,366.44L737.9,312.57L742.6,346.34L747.3,359.92L752,369.89L756.7,157.9L761.4,305.32L766.1,341.47L770.8,348.26" style="vector-effect: non-scaling-stroke; fill: none; stroke: rgb(239, 85, 59); stroke-opacity: 1; stroke-width: 2px; opacity: 1;"/></g><g class="points"/><g class="text"/></g><g class="trace scatter trace59076f" style="stroke-miterlimit: 2; opacity: 1;"><g class="fills"/><g class="errorbars"/><g class="lines"><path class="js-line" d="M0,238.58L4.7,83.83L9.4,324.81L14.1,347.1L18.8,316.41L23.5,209.86L28.2,79.27L32.9,133.14L37.6,164.53L42.3,229.05L47,359.81L51.7,170.12L56.4,184.31L61.1,79.77L65.8,238.13L70.5,204.18L75.2,184.4L79.9,82.83L84.6,205.63L89.3,96.37L94,270.68L98.7,250.1L103.4,338.06L108.1,284.35L112.8,77.9L117.5,319.93L122.2,355.14L126.9,310.92L131.6,192.89L136.3,338.59L141,185.86L145.7,278.63L150.4,326.24L155.1,306.26L159.8,347.07L164.5,82.18L169.2,293.62L173.9,233.78L178.6,110.46L183.3,259.23L188,363.22L192.7,352.11L197.4,291.66L202.1,362.57L206.8,336.24L211.5,355.91L216.2,352.08L220.9,338.56L225.6,342.98L230.3,248.78L235,339.74L239.7,201.34L244.4,145.55L249.1,304.07L253.8,290.42L258.5,368.36L263.2,315.1L267.9,269.82L272.6,269.15L277.3,289.81L282,332.86L286.7,344.15L291.4,330.9L296.1,348.63L300.8,374.9L305.5,362.85L310.2,217.14L314.9,323.05L319.6,265.66L324.3,261.39L329,346.34L333.7,172.07L338.4,319.69L343.1,236.39L347.8,209.68L352.5,301.09L357.2,297.73L361.9,246.16L366.6,316.6L376,160.87L380.7,133.15L385.4,274L390.1,354.25L394.8,279.03L399.5,367.55L404.2,351.49L408.9,312.48L413.6,123.95L418.3,321.98L423,198.75L427.7,283.49L432.4,364.45L437.1,57.88L441.8,243.57L446.5,245.67L455.9,344.4L460.6,347.81L465.3,359L470,352.51L474.7,347.95L479.4,245.11L484.1,360.34L488.8,364.7L493.5,188.19L498.2,357.96L502.9,296.13L507.6,359.81L512.3,230.53L517,320.24L521.7,210.75L526.4,351.77L531.1,364.02L535.8,316.6L540.5,367.43L545.2,360.57L549.9,292.32L554.6,295.39L559.3,362.24L564,324.42L568.7,363.54L573.4,233.52L582.8,362.8L587.5,195.76L592.2,353.22L596.9,169.94L601.6,352.04L606.3,201.8L611,355.51L615.7,361.63L620.4,216.64L625.1,357.19L629.8,359.92L634.5,299.47L639.2,337.6L643.9,366.7L648.6,357.2L653.3,363.25L658,328.7L662.7,242.3L667.4,311.24L672.1,368.54L676.8,349.05L681.5,367.9L686.2,364.08L690.9,269.97L695.6,305.94L700.3,370.77L705,365.7L709.7,354.82L714.4,322.59L719.1,345.11L723.8,369.21L728.5,319.28L733.2,365.53L737.9,308.03L742.6,341.86L747.3,357.57L752,368.78L756.7,138.73L761.4,297.52L766.1,336.83L770.8,344.56" style="vector-effect: non-scaling-stroke; fill: none; stroke: rgb(0, 204, 150); stroke-opacity: 1; stroke-width: 2px; opacity: 1;"/></g><g class="points"/><g class="text"/></g><g class="trace scatter trace911b53" style="stroke-miterlimit: 2; opacity: 1;"><g class="fills"/><g class="errorbars"/><g class="lines"><path class="js-line" d="M0,325.16L4.7,126.92L9.4,354.47L14.1,349.05L18.8,332.31L23.5,223.54L28.2,92.27L32.9,124.87L37.6,177.01L42.3,220.1L47,368.41L51.7,164.69L56.4,220.86L61.1,164.3L65.8,271.39L70.5,224.32L75.2,286.79L79.9,135.93L84.6,248.27L89.3,142.45L94,280.73L98.7,288.35L103.4,346.36L108.1,325.23L112.8,150.1L117.5,342.3L122.2,354.04L126.9,317.14L131.6,238.93L136.3,353.19L141,201.14L145.7,290.47L150.4,331.09L155.1,318.74L159.8,343.48L164.5,170.76L169.2,306.73L173.9,269.19L178.6,148.36L183.3,276.26L188,365.69L192.7,360.72L197.4,307.51L202.1,365.98L206.8,341.35L211.5,362.46L216.2,354.75L220.9,351.96L225.6,344.04L230.3,271.24L235,346.24L239.7,206.82L244.4,182.31L249.1,320.02L253.8,299.06L258.5,369.84L263.2,331.94L267.9,288.89L272.6,302.66L282,340.41L286.7,349.42L291.4,341.47L296.1,355.93L300.8,375L305.5,364.71L310.2,254.61L314.9,340.71L319.6,277.39L324.3,273.11L329,351.6L333.7,216.85L338.4,334.02L343.1,261.14L347.8,261.37L352.5,317.35L357.2,299.8L361.9,275.46L366.6,333.96L371.3,272.81L376,208.22L380.7,179.66L385.4,297.44L390.1,360.41L394.8,318.14L399.5,371.04L404.2,357.09L408.9,329.95L413.6,178.14L418.3,329.54L423,250.75L427.7,316.36L432.4,367.28L437.1,118.02L441.8,292.15L446.5,269.19L455.9,352.56L460.6,354.19L465.3,362.66L470,356.35L474.7,354.25L479.4,268.03L484.1,363.68L488.8,369.06L493.5,225.23L498.2,361.4L502.9,313.28L507.6,365.84L512.3,267.59L517,333.95L521.7,243.75L526.4,358.45L531.1,366.62L535.8,330.27L540.5,368.55L545.2,364.82L549.9,300.08L554.6,312.39L559.3,364.87L564,335.68L568.7,363.84L573.4,264.37L578.1,329.25L582.8,366.03L587.5,246.81L592.2,356.77L596.9,232.01L601.6,345.09L606.3,237.59L611,361.32L615.7,364.62L620.4,243.67L625.1,361.58L629.8,363.95L634.5,327.2L639.2,346.62L643.9,367.98L648.6,364.45L653.3,367.62L658,339.85L662.7,288.57L667.4,322.79L672.1,371.06L676.8,357.05L681.5,369.55L686.2,368.16L690.9,309.08L695.6,326.79L700.3,371.43L705,368.62L709.7,356.21L714.4,341.44L723.8,371.48L728.5,326.21L733.2,368.04L737.9,317.05L742.6,350.31L747.3,360.51L752,371.45L756.7,181.75L761.4,319.48L766.1,346.15L770.8,351.56" style="vector-effect: non-scaling-stroke; fill: none; stroke: rgb(171, 99, 250); stroke-opacity: 1; stroke-width: 2px; opacity: 1;"/></g><g class="points"/><g class="text"/></g><g class="trace scatter trace9ea1c5" style="stroke-miterlimit: 2; opacity: 1;"><g class="fills"/><g class="errorbars"/><g class="lines"><path class="js-line" d="M0,308.66L4.7,161.72L9.4,319L14.1,355.07L18.8,339.46L23.5,226.39L28.2,163.8L32.9,210.36L37.6,203.72L42.3,265.85L47,362.91L51.7,199.38L56.4,255.83L61.1,154.66L65.8,272.57L70.5,260.15L75.2,233.26L79.9,173.8L84.6,237.66L89.3,171.07L94,283.89L98.7,300.43L103.4,345.92L108.1,319.11L112.8,161.35L117.5,335.39L122.2,359.1L126.9,323.24L131.6,255.36L136.3,354.15L141,213.79L145.7,299.23L150.4,332.31L155.1,324.3L159.8,336.87L164.5,173.46L169.2,307.91L173.9,267.6L178.6,165.5L183.3,282.97L188,367.17L192.7,361.31L197.4,302.37L202.1,362.63L206.8,324.06L211.5,361.87L216.2,351.66L220.9,350.86L225.6,341.22L230.3,280.28L235,351.9L239.7,237.15L244.4,197.06L249.1,316.68L253.8,308.56L258.5,372.44L263.2,339.26L267.9,298.64L272.6,294.62L277.3,312.32L282,343.46L286.7,350.34L291.4,341.07L296.1,356.77L300.8,375.15L305.5,366.13L310.2,265.94L314.9,334.42L319.6,292.27L324.3,284.1L329,353.2L333.7,222.71L338.4,326.26L343.1,274.16L347.8,260.78L352.5,316.93L357.2,311.72L361.9,274.81L366.6,337.66L371.3,285.93L376,214.61L380.7,196.9L385.4,301.32L390.1,360.09L394.8,306.94L399.5,370.57L404.2,353.5L408.9,332.52L413.6,188.41L418.3,334.06L423,247.7L432.4,365.07L437.1,134.27L441.8,271.95L446.5,288.36L451.2,312.99L455.9,351.84L460.6,354.81L465.3,364.34L474.7,354.39L479.4,256.89L484.1,362.36L488.8,367.59L493.5,234.02L498.2,362.08L502.9,314.08L507.6,364.1L512.3,276.9L517,334.74L521.7,233.85L526.4,359.1L531.1,365.86L535.8,332.47L540.5,369.08L545.2,364.67L549.9,302.8L554.6,316.05L559.3,365.75L564,337.47L568.7,364.98L573.4,268.92L578.1,332.39L582.8,364.54L587.5,236.41L592.2,358.28L596.9,216.36L601.6,361.54L606.3,248.17L611,360.12L615.7,364.4L620.4,254.93L625.1,361.28L629.8,363.29L634.5,318.79L639.2,345.08L643.9,368.74L648.6,361.46L653.3,368.16L658,338.36L662.7,274.98L667.4,326.82L672.1,369.96L676.8,356.34L681.5,370.09L686.2,367.32L690.9,292.98L695.6,322.05L700.3,371.8L705,368.31L709.7,355.38L714.4,334.48L719.1,357.1L723.8,371.61L728.5,332.27L733.2,367.74L737.9,322.31L742.6,350.82L747.3,362.39L752,370.53L756.7,184.93L761.4,316.68L766.1,345.77L770.8,352.73" style="vector-effect: non-scaling-stroke; fill: none; stroke: rgb(255, 161, 90); stroke-opacity: 1; stroke-width: 2px; opacity: 1;"/></g><g class="points"/><g class="text"/></g><g class="trace scatter trace5b4911" style="stroke-miterlimit: 2; opacity: 1;"><g class="fills"/><g class="errorbars"/><g class="lines"><path class="js-line" d="M0,242.97L4.7,112.53L9.4,299.73L14.1,356.17L18.8,309.72L23.5,229.11L28.2,124.04L32.9,136.59L37.6,157.06L42.3,248.6L47,357.16L51.7,179.09L56.4,198.83L61.1,97.48L65.8,249.79L70.5,223.97L75.2,160.65L79.9,135.63L84.6,223.67L89.3,100.09L94,264.17L98.7,266.27L103.4,340.75L108.1,313.63L112.8,130.63L117.5,331.18L122.2,354.74L126.9,315.58L131.6,219.63L136.3,353.43L141,211.49L145.7,297.71L150.4,326.68L155.1,313.33L159.8,329.72L164.5,58.4L169.2,293.34L173.9,255.61L178.6,140.85L183.3,275.3L188,365.4L192.7,355.83L197.4,297.36L202.1,364.57L206.8,317.48L211.5,360.86L216.2,354.06L220.9,344.41L225.6,340.86L230.3,271.64L235,349.8L239.7,217.4L244.4,169.66L249.1,317.19L253.8,315.05L258.5,370.19L263.2,325.71L267.9,287.51L272.6,267.54L277.3,288.2L282,338.41L286.7,349.94L291.4,328.35L300.8,375.05L305.5,365.19L310.2,251.67L314.9,318.94L319.6,289.83L324.3,275.77L329,347.4L333.7,193.78L338.4,318.66L343.1,260.55L347.8,260.27L352.5,304.43L357.2,316.28L361.9,264.11L366.6,314.45L371.3,269.83L376,175.25L380.7,172.48L385.4,290.4L390.1,358.89L394.8,278.93L399.5,368.84L404.2,348.11L408.9,322.42L413.6,168.37L418.3,331.96L423,231.75L427.7,281L432.4,363.85L437.1,100.76L441.8,241.45L446.5,272.4L451.2,306.25L455.9,348.89L460.6,348.02L465.3,361.73L470,354.7L474.7,351.23L479.4,242.17L484.1,361.92L488.8,365.83L493.5,222.23L498.2,360.12L502.9,303.19L507.6,359.99L512.3,246.48L517,326.82L521.7,221.27L526.4,356.46L531.1,365.83L535.8,325.16L540.5,369.33L545.2,363.18L549.9,309.82L554.6,308.96L559.3,363.55L564,332.3L568.7,363.41L573.4,253.44L578.1,301.53L582.8,365.69L587.5,213.81L592.2,355.46L596.9,170.52L601.6,335.67L606.3,222.8L611,355.3L615.7,362.09L620.4,239.09L625.1,359.91L629.8,361.75L634.5,310.84L639.2,341.99L643.9,367.98L648.6,358.55L653.3,365.03L658,334.18L662.7,250.13L667.4,320.95L672.1,367.74L676.8,352.67L681.5,369.35L686.2,364.31L690.9,264.52L695.6,306.76L700.3,371.29L705,366.28L709.7,355.26L714.4,320.3L719.1,349.17L723.8,370.39L728.5,331.84L733.2,366.09L737.9,315.77L742.6,345.87L747.3,361.63L752,368.96L756.7,158.16L761.4,299.38L766.1,340.27L770.8,348.41" style="vector-effect: non-scaling-stroke; fill: none; stroke: rgb(25, 211, 243); stroke-opacity: 1; stroke-width: 2px; opacity: 1;"/></g><g class="points"/><g class="text"/></g><g class="trace scatter tracedd8e09" style="stroke-miterlimit: 2; opacity: 1;"><g class="fills"/><g class="errorbars"/><g class="lines"><path class="js-line" d="M0,232.46L4.7,76.11L9.4,313.02L14.1,350.09L18.8,307.78L23.5,152.3L28.2,70.27L32.9,110.72L37.6,116.56L42.3,211.32L47,364.7L51.7,114.51L56.4,203.87L61.1,85.28L65.8,223.89L70.5,182.72L75.2,193.79L79.9,60.69L84.6,181.02L89.3,45.19L94,248.88L98.7,272.24L103.4,332.87L108.1,293.09L112.8,36.05L117.5,313.49L122.2,354.53L126.9,296.97L131.6,179.55L136.3,338.87L141,160.9L145.7,275.04L150.4,315.01L155.1,313.99L159.8,338.77L164.5,110.98L169.2,277.05L173.9,228.02L178.6,77.6L183.3,258.23L188,363.6L192.7,352.15L197.4,292.16L202.1,359.85L206.8,305.97L211.5,359.08L216.2,346.36L220.9,339.41L225.6,329.12L230.3,237.73L235,337.35L239.7,168.58L244.4,117.4L249.1,296.9L253.8,282.21L258.5,368.24L263.2,313.67L267.9,272.72L272.6,257.49L277.3,286.78L282,326.87L286.7,344.63L291.4,319.03L300.8,375.1L305.5,362.28L310.2,219.42L314.9,317.54L319.6,250.05L324.3,252.31L329,348.28L333.7,170.82L338.4,302.93L343.1,231.8L347.8,208.56L352.5,292.73L357.2,287.98L361.9,239.18L366.6,314.03L371.3,231.77L376,139.2L380.7,110.6L385.4,272.1L390.1,354.23L394.8,280.42L399.5,368.53L404.2,345.2L408.9,311.7L413.6,110.07L418.3,327.8L423,203.97L427.7,275.89L432.4,365.7L437.1,19.75L441.8,228.82L446.5,252.02L451.2,287.62L455.9,344.96L460.6,347.79L465.3,361.59L474.7,347.72L479.4,208.59L484.1,361.13L488.8,367.84L493.5,174.49L498.2,358.95L502.9,284.99L507.6,360.07L512.3,221.1L517,321.84L521.7,175.81L526.4,354.5L531.1,362.3L535.8,316.8L540.5,368L545.2,362.39L549.9,283.05L554.6,292.99L559.3,362.18L564,323.58L568.7,362.87L573.4,230.83L578.1,317.07L582.8,361.81L587.5,182.87L592.2,352.8L596.9,148.75L601.6,357.68L606.3,183.36L611,354.61L615.7,361.32L620.4,208.69L625.1,357.55L629.8,358.22L634.5,301.3L639.2,338.11L643.9,367.3L648.6,358.21L653.3,365.6L658,327.29L662.7,241.59L667.4,309.39L672.1,368.36L676.8,350.26L681.5,368.35L686.2,365.89L690.9,264.89L695.6,304.8L700.3,370.99L705,365.79L709.7,352.8L714.4,324.29L723.8,370.73L728.5,318.79L733.2,365.54L737.9,303.25L742.6,341.67L747.3,358.53L752,369.38L756.7,96.81L761.4,293.43L766.1,336.24L770.8,343.66" style="vector-effect: non-scaling-stroke; fill: none; stroke: rgb(255, 102, 146); stroke-opacity: 1; stroke-width: 2px; opacity: 1;"/></g><g class="points"/><g class="text"/></g><g class="trace scatter tracecf7327" style="stroke-miterlimit: 2; opacity: 1;"><g class="fills"/><g class="errorbars"/><g class="lines"><path class="js-line" d="M0,313.55L4.7,148.71L9.4,356.26L14.1,356.83L18.8,333.23L28.2,91.47L32.9,130.11L37.6,163.23L42.3,256.07L47,363.65L51.7,149.9L56.4,201.27L61.1,135.5L65.8,269.94L70.5,204.03L75.2,277.64L79.9,133.97L84.6,243.48L89.3,113.25L94,311.56L98.7,283.26L103.4,342.31L108.1,317.49L112.8,115.91L117.5,333.88L122.2,353.9L126.9,311.65L131.6,229.72L136.3,342.93L141,203.46L145.7,292.71L150.4,328.36L155.1,313.9L159.8,345.08L164.5,162.94L169.2,300.56L173.9,260.19L178.6,137.3L183.3,278.37L188,365.94L192.7,357.94L197.4,312.63L202.1,363.3L206.8,339.21L211.5,359.23L216.2,355.23L220.9,345.82L225.6,341.87L230.3,269.1L235,346.61L239.7,211.96L244.4,167.81L249.1,315.57L253.8,300.47L258.5,370.42L263.2,332.6L267.9,281.01L272.6,295.1L277.3,304.66L282,338.68L286.7,346.09L291.4,347.24L296.1,354.02L300.8,375.15L305.5,363.89L310.2,244.16L314.9,340.8L319.6,265.48L324.3,269.14L329,354.03L333.7,202.1L338.4,330.68L343.1,254.84L347.8,249.67L352.5,312.71L357.2,296.86L361.9,276.42L366.6,336.93L371.3,262.02L376,188.38L380.7,169.27L385.4,289.24L390.1,359.36L394.8,311.33L399.5,370.27L404.2,353.68L408.9,325.95L413.6,152.34L418.3,330.82L423,227.1L427.7,314.26L432.4,367.7L437.1,109.73L441.8,284.41L446.5,256.55L455.9,348.99L460.6,352.94L465.3,361.68L470,356.56L474.7,351.66L479.4,260.96L484.1,363.75L488.8,368.14L493.5,214.8L498.2,361.06L502.9,307.53L507.6,364.8L512.3,255.51L517,331.47L521.7,233.37L526.4,356.59L531.1,365.94L535.8,325.25L540.5,367.92L545.2,363.63L549.9,295.96L554.6,306.1L559.3,363.96L564,333.66L568.7,365.79L573.4,254.93L578.1,325.91L582.8,364.34L587.5,242.45L592.2,356.3L596.9,231.17L601.6,359.61L606.3,233.06L611,360.2L615.7,363.85L620.4,236.39L625.1,359.75L629.8,362.45L634.5,319.47L639.2,345.01L643.9,368.22L648.6,363.12L653.3,366.02L658,338.88L662.7,280.63L667.4,319.66L672.1,370.32L676.8,356.14L681.5,369.14L686.2,368.05L690.9,302.56L695.6,325.13L700.3,371L705,367.92L709.7,357.17L714.4,339.75L719.1,351.06L723.8,370.53L728.5,324.14L733.2,367.04L737.9,313.7L742.6,348.3L752,371.34L756.7,176.42L761.4,315.17L766.1,343.49L770.8,349.67" style="vector-effect: non-scaling-stroke; fill: none; stroke: rgb(182, 232, 128); stroke-opacity: 1; stroke-width: 2px; opacity: 1;"/></g><g class="points"/><g class="text"/></g><g class="trace scatter trace822853" style="stroke-miterlimit: 2; opacity: 1;"><g class="fills"/><g class="errorbars"/><g class="lines"><path class="js-line" d="M0,279.65L4.7,116.64L9.4,328.63L14.1,351.71L18.8,321.95L28.2,106.7L32.9,143.27L37.6,160.15L42.3,238.8L47,361.73L51.7,162.86L56.4,211.77L61.1,116.49L65.8,255.03L70.5,215.02L75.2,208.8L79.9,123.45L84.6,222.72L89.3,111.69L94,278.52L98.7,276.1L103.4,342.21L108.1,308.45L112.8,111.6L117.5,329.47L122.2,355.12L126.9,312.06L131.6,220.39L136.3,346.27L141,194.74L145.7,290.7L150.4,326.6L155.1,315.09L159.8,337.28L164.5,127.08L169.2,296.39L173.9,251.23L178.6,131.42L183.3,271.81L188,365.18L192.7,356.29L197.4,300.17L202.1,362.77L206.8,322.65L211.5,360.33L216.2,351.94L220.9,345.62L225.6,339.03L230.3,264.03L235,345.58L239.7,208.25L244.4,162.24L249.1,311.9L253.8,300.38L258.5,369.92L267.9,283.66L272.6,279.04L277.3,297.85L282,336.81L286.7,347.26L291.4,333.39L296.1,351.78L300.8,375.09L305.5,364.13L310.2,242.24L314.9,327.04L319.6,273.82L324.3,269.52L329,349.66L333.7,197.01L338.4,320.94L343.1,252.94L347.8,242.23L352.5,306.97L357.2,303.58L361.9,261.09L366.6,324.98L371.3,260.76L376,178.32L380.7,161.04L385.4,286.28L390.1,357.81L394.8,292.48L399.5,369.31L404.2,349.99L408.9,321.77L413.6,155.09L418.3,329.86L423,226.01L432.4,365.41L437.1,89.3L441.8,254.41L446.5,265.36L451.2,301.56L455.9,348.25L460.6,350.13L465.3,361.97L470,355.3L474.7,350.98L479.4,243.57L484.1,362.03L488.8,366.9L493.5,209.55L498.2,360.14L502.9,302.61L507.6,361.94L512.3,249.07L517,327.44L521.7,217.3L526.4,356.24L531.1,365.15L535.8,324.42L540.5,368.49L545.2,363.11L549.9,297.81L554.6,304.89L559.3,363.74L564,330.96L568.7,364.01L573.4,250.76L578.1,315.85L582.8,364.23L587.5,216.53L592.2,355.45L596.9,190.16L601.6,351.09L606.3,219.64L611,357.16L615.7,362.74L620.4,233.73L625.1,359.44L629.8,361.46L634.5,310.55L643.9,367.82L648.6,360.03L653.3,365.84L658,333.68L662.7,259.57L667.4,317.7L672.1,369.03L676.8,353.4L681.5,369.07L686.2,366.08L690.9,280.27L695.6,313.44L700.3,371.21L705,366.97L709.7,355.13L714.4,329.03L723.8,370.54L728.5,326.05L733.2,366.54L737.9,313.35L742.6,346.27L747.3,360.01L752,369.87L756.7,154.48L761.4,305.49L766.1,341.15L770.8,348.14" style="vector-effect: non-scaling-stroke; fill: none; stroke: rgb(255, 151, 255); stroke-opacity: 1; stroke-width: 2px; opacity: 1;"/></g><g class="points"/><g class="text"/></g></g></g><g class="overplot"><g class="xy2" transform="translate(80,100)" clip-path="url('#clip08d582xy2plot')"><g class="scatterlayer mlayer"><g class="trace scatter trace81af88" style="stroke-miterlimit: 2; opacity: 1;"><g class="fills"/><g class="errorbars"/><g class="lines"><path class="js-line" d="M0,149.57L4.7,116.66L9.4,167.18L14.1,229.84L18.8,179.45L23.5,99.92L28.2,74L32.9,98.82L37.6,117.35L42.3,104.44L47,296.4L51.7,163.65L56.4,196.15L61.1,37.29L65.8,159.68L70.5,116.14L75.2,164.82L79.9,108.05L84.6,130.61L89.3,41.04L94,196.19L98.7,220.89L103.4,308.98L108.1,250.04L112.8,19.75L117.5,304.57L122.2,300.37L126.9,256.89L131.6,163.07L136.3,299.79L141,101.08L145.7,260.81L150.4,260.44L155.1,272.09L159.8,242.3L164.5,108.67L169.2,215.64L173.9,171.87L178.6,92.9L183.3,261.88L188,355.18L192.7,318.47L197.4,205.5L202.1,364.33L206.8,239.65L211.5,320.03L216.2,271.78L220.9,280.11L225.6,272.23L230.3,159.76L235,272.41L239.7,150.43L244.4,143.99L249.1,218.48L253.8,195.7L258.5,335.88L263.2,242.12L267.9,257.04L272.6,199.26L277.3,210.01L282,297.31L286.7,286.92L291.4,251.35L296.1,293.43L300.8,359.96L305.5,335.8L310.2,166.23L314.9,250.31L319.6,194.78L324.3,232.45L329,306.48L333.7,160.39L338.4,215.48L343.1,175.09L347.8,220.2L352.5,204.78L357.2,209.71L361.9,184.97L366.6,242.93L371.3,184.04L376,75.29L380.7,100.06L385.4,188.82L390.1,304.7L394.8,216.15L399.5,336.28L404.2,321.49L408.9,242.57L413.6,132.47L418.3,245.27L423,184.48L427.7,219.55L432.4,283.5L437.1,74.52L441.8,179.42L446.5,181.02L451.2,176.4L455.9,257.85L460.6,278.94L465.3,346.13L470,267.86L474.7,321.44L479.4,158.92L484.1,327.71L488.8,339.54L493.5,159.87L498.2,303.36L502.9,230.55L507.6,317.89L512.3,146.71L517,245.07L521.7,135.56L526.4,310L531.1,337.12L535.8,244.23L540.5,348.44L545.2,340.9L549.9,197.22L554.6,226.09L559.3,335.73L564,274.31L568.7,310.33L573.4,185.24L578.1,238.34L582.8,321.09L587.5,142.34L592.2,282.81L596.9,157.07L601.6,258.45L606.3,150.95L611,313.45L615.7,306.62L620.4,167.45L625.1,317.64L629.8,305.29L634.5,218.07L639.2,270.94L643.9,345.59L648.6,309.88L653.3,335.49L658,248.33L662.7,185.13L667.4,237.43L672.1,345.17L676.8,292.68L681.5,345.66L686.2,319.91L690.9,216.46L695.6,239.49L700.3,375.25L705,334.27L709.7,279.8L714.4,267.62L719.1,303.2L723.8,357.94L728.5,238.27L733.2,334.17L737.9,248.12L742.6,295.25L747.3,327.01L752,349.34L756.7,96.49L761.4,210.94L766.1,289.61L770.8,282.43" style="vector-effect: non-scaling-stroke; fill: none; stroke: rgb(128, 128, 128); stroke-opacity: 1; stroke-width: 2px; opacity: 1;"/></g><g class="points"/><g class="text"/></g></g></g></g><path class="xlines-above crisp" d="M0,0" style="fill: none;"/><path class="ylines-above crisp" d="M0,0" style="fill: none;"/><g class="overlines-above"><path class="xy2-x crisp" d="M0,0" style="fill: none;"/><path class="xy2-y crisp" d="M0,0" style="fill: none;"/></g><g class="xaxislayer-above"><g class="xtick"><text text-anchor="start" x="0" y="508" transform="translate(80,0) rotate(90,0,502)" style="font-family: 'Open Sans', verdana, arial, sans-serif; font-size: 12px; fill: rgb(42, 63, 95); fill-opacity: 1; white-space: pre;">blast30</text></g><g class="xtick"><text text-anchor="start" x="0" y="508" transform="translate(98.8,0) rotate(90,0,502)" style="font-family: 'Open Sans', verdana, arial, sans-serif; font-size: 12px; fill: rgb(42, 63, 95); fill-opacity: 1; white-space: pre;">RF02206</text></g><g class="xtick"><text text-anchor="start" x="0" y="508" transform="translate(117.6,0) rotate(90,0,502)" style="font-family: 'Open Sans', verdana, arial, sans-serif; font-size: 12px; fill: rgb(42, 63, 95); fill-opacity: 1; white-space: pre;">c7h6orf47</text></g><g class="xtick"><text text-anchor="start" x="0" y="508" transform="translate(136.4,0) rotate(90,0,502)" style="font-family: 'Open Sans', verdana, arial, sans-serif; font-size: 12px; fill: rgb(42, 63, 95); fill-opacity: 1; white-space: pre;">DIRAS3</text></g><g class="xtick"><text text-anchor="start" x="0" y="508" transform="translate(155.2,0) rotate(90,0,502)" style="font-family: 'Open Sans', verdana, arial, sans-serif; font-size: 12px; fill: rgb(42, 63, 95); fill-opacity: 1; white-space: pre;">blast13</text></g><g class="xtick"><text text-anchor="start" x="0" y="508" transform="translate(174,0) rotate(90,0,502)" style="font-family: 'Open Sans', verdana, arial, sans-serif; font-size: 12px; fill: rgb(42, 63, 95); fill-opacity: 1; white-space: pre;">blast19</text></g><g class="xtick"><text text-anchor="start" x="0" y="508" transform="translate(192.8,0) rotate(90,0,502)" style="font-family: 'Open Sans', verdana, arial, sans-serif; font-size: 12px; fill: rgb(42, 63, 95); fill-opacity: 1; white-space: pre;">NAPRT</text></g><g class="xtick"><text text-anchor="start" x="0" y="508" transform="translate(211.6,0) rotate(90,0,502)" style="font-family: 'Open Sans', verdana, arial, sans-serif; font-size: 12px; fill: rgb(42, 63, 95); fill-opacity: 1; white-space: pre;">blast18</text></g><g class="xtick"><text text-anchor="start" x="0" y="508" transform="translate(230.4,0) rotate(90,0,502)" style="font-family: 'Open Sans', verdana, arial, sans-serif; font-size: 12px; fill: rgb(42, 63, 95); fill-opacity: 1; white-space: pre;">CLEC3A</text></g><g class="xtick"><text text-anchor="start" x="0" y="508" transform="translate(249.2,0) rotate(90,0,502)" style="font-family: 'Open Sans', verdana, arial, sans-serif; font-size: 12px; fill: rgb(42, 63, 95); fill-opacity: 1; white-space: pre;">SFRP2</text></g><g class="xtick"><text text-anchor="start" x="0" y="508" transform="translate(268,0) rotate(90,0,502)" style="font-family: 'Open Sans', verdana, arial, sans-serif; font-size: 12px; fill: rgb(42, 63, 95); fill-opacity: 1; white-space: pre;">PDK4</text></g><g class="xtick"><text text-anchor="start" x="0" y="508" transform="translate(286.8,0) rotate(90,0,502)" style="font-family: 'Open Sans', verdana, arial, sans-serif; font-size: 12px; fill: rgb(42, 63, 95); fill-opacity: 1; white-space: pre;">OVCH2</text></g><g class="xtick"><text text-anchor="start" x="0" y="508" transform="translate(305.6,0) rotate(90,0,502)" style="font-family: 'Open Sans', verdana, arial, sans-serif; font-size: 12px; fill: rgb(42, 63, 95); fill-opacity: 1; white-space: pre;">DLEU7</text></g><g class="xtick"><text text-anchor="start" x="0" y="508" transform="translate(324.4,0) rotate(90,0,502)" style="font-family: 'Open Sans', verdana, arial, sans-serif; font-size: 12px; fill: rgb(42, 63, 95); fill-opacity: 1; white-space: pre;">NAA60</text></g><g class="xtick"><text text-anchor="start" x="0" y="508" transform="translate(343.2,0) rotate(90,0,502)" style="font-family: 'Open Sans', verdana, arial, sans-serif; font-size: 12px; fill: rgb(42, 63, 95); fill-opacity: 1; white-space: pre;">CYP24A1</text></g><g class="xtick"><text text-anchor="start" x="0" y="508" transform="translate(362,0) rotate(90,0,502)" style="font-family: 'Open Sans', verdana, arial, sans-serif; font-size: 12px; fill: rgb(42, 63, 95); fill-opacity: 1; white-space: pre;">SIAH1</text></g><g class="xtick"><text text-anchor="start" x="0" y="508" transform="translate(380.8,0) rotate(90,0,502)" style="font-family: 'Open Sans', verdana, arial, sans-serif; font-size: 12px; fill: rgb(42, 63, 95); fill-opacity: 1; white-space: pre;">PKIA</text></g><g class="xtick"><text text-anchor="start" x="0" y="508" transform="translate(399.6,0) rotate(90,0,502)" style="font-family: 'Open Sans', verdana, arial, sans-serif; font-size: 12px; fill: rgb(42, 63, 95); fill-opacity: 1; white-space: pre;">GDAP1L1</text></g><g class="xtick"><text text-anchor="start" x="0" y="508" transform="translate(418.4,0) rotate(90,0,502)" style="font-family: 'Open Sans', verdana, arial, sans-serif; font-size: 12px; fill: rgb(42, 63, 95); fill-opacity: 1; white-space: pre;">R3HCC1</text></g><g class="xtick"><text text-anchor="start" x="0" y="508" transform="translate(437.2,0) rotate(90,0,502)" style="font-family: 'Open Sans', verdana, arial, sans-serif; font-size: 12px; fill: rgb(42, 63, 95); fill-opacity: 1; white-space: pre;">MOCS1</text></g><g class="xtick"><text text-anchor="start" x="0" y="508" transform="translate(456,0) rotate(90,0,502)" style="font-family: 'Open Sans', verdana, arial, sans-serif; font-size: 12px; fill: rgb(42, 63, 95); fill-opacity: 1; white-space: pre;">SH3BP2</text></g><g class="xtick"><text text-anchor="start" x="0" y="508" transform="translate(474.8,0) rotate(90,0,502)" style="font-family: 'Open Sans', verdana, arial, sans-serif; font-size: 12px; fill: rgb(42, 63, 95); fill-opacity: 1; white-space: pre;">PDPR</text></g><g class="xtick"><text text-anchor="start" x="0" y="508" transform="translate(493.6,0) rotate(90,0,502)" style="font-family: 'Open Sans', verdana, arial, sans-serif; font-size: 12px; fill: rgb(42, 63, 95); fill-opacity: 1; white-space: pre;">DENND3</text></g><g class="xtick"><text text-anchor="start" x="0" y="508" transform="translate(512.4,0) rotate(90,0,502)" style="font-family: 'Open Sans', verdana, arial, sans-serif; font-size: 12px; fill: rgb(42, 63, 95); fill-opacity: 1; white-space: pre;">GPR1</text></g><g class="xtick"><text text-anchor="start" x="0" y="508" transform="translate(531.2,0) rotate(90,0,502)" style="font-family: 'Open Sans', verdana, arial, sans-serif; font-size: 12px; fill: rgb(42, 63, 95); fill-opacity: 1; white-space: pre;">ACOT11</text></g><g class="xtick"><text text-anchor="start" x="0" y="508" transform="translate(550,0) rotate(90,0,502)" style="font-family: 'Open Sans', verdana, arial, sans-serif; font-size: 12px; fill: rgb(42, 63, 95); fill-opacity: 1; white-space: pre;">blast27</text></g><g class="xtick"><text text-anchor="start" x="0" y="508" transform="translate(568.8,0) rotate(90,0,502)" style="font-family: 'Open Sans', verdana, arial, sans-serif; font-size: 12px; fill: rgb(42, 63, 95); fill-opacity: 1; white-space: pre;">AGBL3</text></g><g class="xtick"><text text-anchor="start" x="0" y="508" transform="translate(587.6,0) rotate(90,0,502)" style="font-family: 'Open Sans', verdana, arial, sans-serif; font-size: 12px; fill: rgb(42, 63, 95); fill-opacity: 1; white-space: pre;">WIF1</text></g><g class="xtick"><text text-anchor="start" x="0" y="508" transform="translate(606.4,0) rotate(90,0,502)" style="font-family: 'Open Sans', verdana, arial, sans-serif; font-size: 12px; fill: rgb(42, 63, 95); fill-opacity: 1; white-space: pre;">INPP5F</text></g><g class="xtick"><text text-anchor="start" x="0" y="508" transform="translate(625.2,0) rotate(90,0,502)" style="font-family: 'Open Sans', verdana, arial, sans-serif; font-size: 12px; fill: rgb(42, 63, 95); fill-opacity: 1; white-space: pre;">CALCR</text></g><g class="xtick"><text text-anchor="start" x="0" y="508" transform="translate(644,0) rotate(90,0,502)" style="font-family: 'Open Sans', verdana, arial, sans-serif; font-size: 12px; fill: rgb(42, 63, 95); fill-opacity: 1; white-space: pre;">ZHX3</text></g><g class="xtick"><text text-anchor="start" x="0" y="508" transform="translate(662.8,0) rotate(90,0,502)" style="font-family: 'Open Sans', verdana, arial, sans-serif; font-size: 12px; fill: rgb(42, 63, 95); fill-opacity: 1; white-space: pre;">SPHKAP</text></g><g class="xtick"><text text-anchor="start" x="0" y="508" transform="translate(681.6,0) rotate(90,0,502)" style="font-family: 'Open Sans', verdana, arial, sans-serif; font-size: 12px; fill: rgb(42, 63, 95); fill-opacity: 1; white-space: pre;">SLC9A7</text></g><g class="xtick"><text text-anchor="start" x="0" y="508" transform="translate(700.4,0) rotate(90,0,502)" style="font-family: 'Open Sans', verdana, arial, sans-serif; font-size: 12px; fill: rgb(42, 63, 95); fill-opacity: 1; white-space: pre;">CACNA1C</text></g><g class="xtick"><text text-anchor="start" x="0" y="508" transform="translate(719.2,0) rotate(90,0,502)" style="font-family: 'Open Sans', verdana, arial, sans-serif; font-size: 12px; fill: rgb(42, 63, 95); fill-opacity: 1; white-space: pre;">OPCML</text></g><g class="xtick"><text text-anchor="start" x="0" y="508" transform="translate(738,0) rotate(90,0,502)" style="font-family: 'Open Sans', verdana, arial, sans-serif; font-size: 12px; fill: rgb(42, 63, 95); fill-opacity: 1; white-space: pre;">NTM</text></g><g class="xtick"><text text-anchor="start" x="0" y="508" transform="translate(756.8,0) rotate(90,0,502)" style="font-family: 'Open Sans', verdana, arial, sans-serif; font-size: 12px; fill: rgb(42, 63, 95); fill-opacity: 1; white-space: pre;">RAPGEF5</text></g><g class="xtick"><text text-anchor="start" x="0" y="508" transform="translate(775.6,0) rotate(90,0,502)" style="font-family: 'Open Sans', verdana, arial, sans-serif; font-size: 12px; fill: rgb(42, 63, 95); fill-opacity: 1; white-space: pre;">CACNA1E</text></g><g class="xtick"><text text-anchor="start" x="0" y="508" transform="translate(794.4,0) rotate(90,0,502)" style="font-family: 'Open Sans', verdana, arial, sans-serif; font-size: 12px; fill: rgb(42, 63, 95); fill-opacity: 1; white-space: pre;">PROSER2</text></g><g class="xtick"><text text-anchor="start" x="0" y="508" transform="translate(813.2,0) rotate(90,0,502)" style="font-family: 'Open Sans', verdana, arial, sans-serif; font-size: 12px; fill: rgb(42, 63, 95); fill-opacity: 1; white-space: pre;">GLIS3</text></g><g class="xtick"><text text-anchor="start" x="0" y="508" transform="translate(832,0) rotate(90,0,502)" style="font-family: 'Open Sans', verdana, arial, sans-serif; font-size: 12px; fill: rgb(42, 63, 95); fill-opacity: 1; white-space: pre;">GRID2</text></g><g class="xtick"><text text-anchor="start" x="0" y="508" transform="translate(850.8,0) rotate(90,0,502)" style="font-family: 'Open Sans', verdana, arial, sans-serif; font-size: 12px; fill: rgb(42, 63, 95); fill-opacity: 1; white-space: pre;">cluster2c</text></g></g><g class="yaxislayer-above"><g class="ytick"><text text-anchor="end" x="79" y="4.199999999999999" transform="translate(0,475.55)" style="font-family: 'Open Sans', verdana, arial, sans-serif; font-size: 12px; fill: rgb(42, 63, 95); fill-opacity: 1; white-space: pre;">0</text></g><g class="ytick"><text text-anchor="end" x="79" y="4.199999999999999" transform="translate(0,431.26)" style="font-family: 'Open Sans', verdana, arial, sans-serif; font-size: 12px; fill: rgb(42, 63, 95); fill-opacity: 1; white-space: pre;">10</text></g><g class="ytick"><text text-anchor="end" x="79" y="4.199999999999999" transform="translate(0,386.97)" style="font-family: 'Open Sans', verdana, arial, sans-serif; font-size: 12px; fill: rgb(42, 63, 95); fill-opacity: 1; white-space: pre;">20</text></g><g class="ytick"><text text-anchor="end" x="79" y="4.199999999999999" transform="translate(0,342.68)" style="font-family: 'Open Sans', verdana, arial, sans-serif; font-size: 12px; fill: rgb(42, 63, 95); fill-opacity: 1; white-space: pre;">30</text></g><g class="ytick"><text text-anchor="end" x="79" y="4.199999999999999" transform="translate(0,298.39)" style="font-family: 'Open Sans', verdana, arial, sans-serif; font-size: 12px; fill: rgb(42, 63, 95); fill-opacity: 1; white-space: pre;">40</text></g><g class="ytick"><text text-anchor="end" x="79" y="4.199999999999999" transform="translate(0,254.11)" style="font-family: 'Open Sans', verdana, arial, sans-serif; font-size: 12px; fill: rgb(42, 63, 95); fill-opacity: 1; white-space: pre;">50</text></g><g class="ytick"><text text-anchor="end" x="79" y="4.199999999999999" transform="translate(0,209.82)" style="font-family: 'Open Sans', verdana, arial, sans-serif; font-size: 12px; fill: rgb(42, 63, 95); fill-opacity: 1; white-space: pre;">60</text></g><g class="ytick"><text text-anchor="end" x="79" y="4.199999999999999" transform="translate(0,165.53)" style="font-family: 'Open Sans', verdana, arial, sans-serif; font-size: 12px; fill: rgb(42, 63, 95); fill-opacity: 1; white-space: pre;">70</text></g><g class="ytick"><text text-anchor="end" x="79" y="4.199999999999999" transform="translate(0,121.24)" style="font-family: 'Open Sans', verdana, arial, sans-serif; font-size: 12px; fill: rgb(42, 63, 95); fill-opacity: 1; white-space: pre;">80</text></g></g><g class="overaxes-above"><g class="xy2-x"/><g class="xy2-y"><g class="y2tick"><text text-anchor="start" x="851.8" y="4.199999999999999" transform="translate(0,463.84)" style="font-family: 'Open Sans', verdana, arial, sans-serif; font-size: 12px; fill: rgb(42, 63, 95); fill-opacity: 1; white-space: pre;">0.35</text></g><g class="y2tick"><text text-anchor="start" x="851.8" y="4.199999999999999" transform="translate(0,413.62)" style="font-family: 'Open Sans', verdana, arial, sans-serif; font-size: 12px; fill: rgb(42, 63, 95); fill-opacity: 1; white-space: pre;">0.4</text></g><g class="y2tick"><text text-anchor="start" x="851.8" y="4.199999999999999" transform="translate(0,363.39)" style="font-family: 'Open Sans', verdana, arial, sans-serif; font-size: 12px; fill: rgb(42, 63, 95); fill-opacity: 1; white-space: pre;">0.45</text></g><g class="y2tick"><text text-anchor="start" x="851.8" y="4.199999999999999" transform="translate(0,313.16999999999996)" style="font-family: 'Open Sans', verdana, arial, sans-serif; font-size: 12px; fill: rgb(42, 63, 95); fill-opacity: 1; white-space: pre;">0.5</text></g><g class="y2tick"><text text-anchor="start" x="851.8" y="4.199999999999999" transform="translate(0,262.95)" style="font-family: 'Open Sans', verdana, arial, sans-serif; font-size: 12px; fill: rgb(42, 63, 95); fill-opacity: 1; white-space: pre;">0.55</text></g><g class="y2tick"><text text-anchor="start" x="851.8" y="4.199999999999999" transform="translate(0,212.73000000000002)" style="font-family: 'Open Sans', verdana, arial, sans-serif; font-size: 12px; fill: rgb(42, 63, 95); fill-opacity: 1; white-space: pre;">0.6</text></g><g class="y2tick"><text text-anchor="start" x="851.8" y="4.199999999999999" transform="translate(0,162.51)" style="font-family: 'Open Sans', verdana, arial, sans-serif; font-size: 12px; fill: rgb(42, 63, 95); fill-opacity: 1; white-space: pre;">0.65</text></g><g class="y2tick"><text text-anchor="start" x="851.8" y="4.199999999999999" transform="translate(0,112.28)" style="font-family: 'Open Sans', verdana, arial, sans-serif; font-size: 12px; fill: rgb(42, 63, 95); fill-opacity: 1; white-space: pre;">0.7</text></g></g></g></g><g class="subplot xy2"/></g><g class="polarlayer"/><g class="ternarylayer"/><g class="geolayer"/><g class="funnelarealayer"/><g class="pielayer"/><g class="treemaplayer"/><g class="sunburstlayer"/><g class="glimages"/><defs id="topdefs-08d582"><g class="clips"/><clipPath id="legend08d582"><rect width="172" height="200" x="0" y="0"/></clipPath></defs><g class="layer-above"><g class="imagelayer"/><g class="shapelayer"/></g><g class="infolayer"><g class="legend" pointer-events="all" transform="translate(916.4,100)"><rect class="bg" shape-rendering="crispEdges" width="172" height="200" x="0" y="0" style="stroke: rgb(68, 68, 68); stroke-opacity: 1; fill: rgb(255, 255, 255); fill-opacity: 1; stroke-width: 0px;"/><g class="scrollbox" transform="" clip-path="url('#legend08d582')"><g class="groups"><g class="traces" transform="translate(0,14.5)" style="opacity: 1;"><text class="legendtext" text-anchor="start" x="40" y="4.680000000000001" style="font-family: 'Open Sans', verdana, arial, sans-serif; font-size: 12px; fill: rgb(42, 63, 95); fill-opacity: 1; white-space: pre;">FR35HJ3201702774</text><g class="layers" style="opacity: 1;"><g class="legendfill"/><g class="legendlines"><path class="js-line" d="M5,0h30" style="fill: none; stroke: rgb(99, 110, 250); stroke-opacity: 1; stroke-width: 2px;"/></g><g class="legendsymbols"><g class="legendpoints"/></g></g><rect class="legendtoggle" x="0" y="-9.5" width="166.78125" height="19" style="fill: rgb(0, 0, 0); fill-opacity: 0;"/></g><g class="traces" transform="translate(0,33.5)" style="opacity: 1;"><text class="legendtext" text-anchor="start" x="40" y="4.680000000000001" style="font-family: 'Open Sans', verdana, arial, sans-serif; font-size: 12px; fill: rgb(42, 63, 95); fill-opacity: 1; white-space: pre;">FR17MAG201814115</text><g class="layers" style="opacity: 1;"><g class="legendfill"/><g class="legendlines"><path class="js-line" d="M5,0h30" style="fill: none; stroke: rgb(239, 85, 59); stroke-opacity: 1; stroke-width: 2px;"/></g><g class="legendsymbols"><g class="legendpoints"/></g></g><rect class="legendtoggle" x="0" y="-9.5" width="166.78125" height="19" style="fill: rgb(0, 0, 0); fill-opacity: 0;"/></g><g class="traces" transform="translate(0,52.5)" style="opacity: 1;"><text class="legendtext" text-anchor="start" x="40" y="4.680000000000001" style="font-family: 'Open Sans', verdana, arial, sans-serif; font-size: 12px; fill: rgb(42, 63, 95); fill-opacity: 1; white-space: pre;">FR17MAG201814130</text><g class="layers" style="opacity: 1;"><g class="legendfill"/><g class="legendlines"><path class="js-line" d="M5,0h30" style="fill: none; stroke: rgb(0, 204, 150); stroke-opacity: 1; stroke-width: 2px;"/></g><g class="legendsymbols"><g class="legendpoints"/></g></g><rect class="legendtoggle" x="0" y="-9.5" width="166.78125" height="19" style="fill: rgb(0, 0, 0); fill-opacity: 0;"/></g><g class="traces" transform="translate(0,71.5)" style="opacity: 1;"><text class="legendtext" text-anchor="start" x="40" y="4.680000000000001" style="font-family: 'Open Sans', verdana, arial, sans-serif; font-size: 12px; fill: rgb(42, 63, 95); fill-opacity: 1; white-space: pre;">FR17MAG201611897</text><g class="layers" style="opacity: 1;"><g class="legendfill"/><g class="legendlines"><path class="js-line" d="M5,0h30" style="fill: none; stroke: rgb(171, 99, 250); stroke-opacity: 1; stroke-width: 2px;"/></g><g class="legendsymbols"><g class="legendpoints"/></g></g><rect class="legendtoggle" x="0" y="-9.5" width="166.78125" height="19" style="fill: rgb(0, 0, 0); fill-opacity: 0;"/></g><g class="traces" transform="translate(0,90.5)" style="opacity: 1;"><text class="legendtext" text-anchor="start" x="40" y="4.680000000000001" style="font-family: 'Open Sans', verdana, arial, sans-serif; font-size: 12px; fill: rgb(42, 63, 95); fill-opacity: 1; white-space: pre;">FR17MAG201814095</text><g class="layers" style="opacity: 1;"><g class="legendfill"/><g class="legendlines"><path class="js-line" d="M5,0h30" style="fill: none; stroke: rgb(255, 161, 90); stroke-opacity: 1; stroke-width: 2px;"/></g><g class="legendsymbols"><g class="legendpoints"/></g></g><rect class="legendtoggle" x="0" y="-9.5" width="166.78125" height="19" style="fill: rgb(0, 0, 0); fill-opacity: 0;"/></g><g class="traces" transform="translate(0,109.5)" style="opacity: 1;"><text class="legendtext" text-anchor="start" x="40" y="4.680000000000001" style="font-family: 'Open Sans', verdana, arial, sans-serif; font-size: 12px; fill: rgb(42, 63, 95); fill-opacity: 1; white-space: pre;">FR17MAG201613767</text><g class="layers" style="opacity: 1;"><g class="legendfill"/><g class="legendlines"><path class="js-line" d="M5,0h30" style="fill: none; stroke: rgb(25, 211, 243); stroke-opacity: 1; stroke-width: 2px;"/></g><g class="legendsymbols"><g class="legendpoints"/></g></g><rect class="legendtoggle" x="0" y="-9.5" width="166.78125" height="19" style="fill: rgb(0, 0, 0); fill-opacity: 0;"/></g><g class="traces" transform="translate(0,128.5)" style="opacity: 1;"><text class="legendtext" text-anchor="start" x="40" y="4.680000000000001" style="font-family: 'Open Sans', verdana, arial, sans-serif; font-size: 12px; fill: rgb(42, 63, 95); fill-opacity: 1; white-space: pre;">FR17MAG201814099</text><g class="layers" style="opacity: 1;"><g class="legendfill"/><g class="legendlines"><path class="js-line" d="M5,0h30" style="fill: none; stroke: rgb(255, 102, 146); stroke-opacity: 1; stroke-width: 2px;"/></g><g class="legendsymbols"><g class="legendpoints"/></g></g><rect class="legendtoggle" x="0" y="-9.5" width="166.78125" height="19" style="fill: rgb(0, 0, 0); fill-opacity: 0;"/></g><g class="traces" transform="translate(0,147.5)" style="opacity: 1;"><text class="legendtext" text-anchor="start" x="40" y="4.680000000000001" style="font-family: 'Open Sans', verdana, arial, sans-serif; font-size: 12px; fill: rgb(42, 63, 95); fill-opacity: 1; white-space: pre;">FR17MAG201513026</text><g class="layers" style="opacity: 1;"><g class="legendfill"/><g class="legendlines"><path class="js-line" d="M5,0h30" style="fill: none; stroke: rgb(182, 232, 128); stroke-opacity: 1; stroke-width: 2px;"/></g><g class="legendsymbols"><g class="legendpoints"/></g></g><rect class="legendtoggle" x="0" y="-9.5" width="166.78125" height="19" style="fill: rgb(0, 0, 0); fill-opacity: 0;"/></g><g class="traces" transform="translate(0,166.5)" style="opacity: 1;"><text class="legendtext" text-anchor="start" x="40" y="4.680000000000001" style="font-family: 'Open Sans', verdana, arial, sans-serif; font-size: 12px; fill: rgb(42, 63, 95); fill-opacity: 1; white-space: pre;">Mean</text><g class="layers" style="opacity: 1;"><g class="legendfill"/><g class="legendlines"><path class="js-line" d="M5,0h30" style="fill: none; stroke: rgb(255, 151, 255); stroke-opacity: 1; stroke-width: 2px;"/></g><g class="legendsymbols"><g class="legendpoints"/></g></g><rect class="legendtoggle" x="0" y="-9.5" width="166.78125" height="19" style="fill: rgb(0, 0, 0); fill-opacity: 0;"/></g><g class="traces" transform="translate(0,185.5)" style="opacity: 1;"><text class="legendtext" text-anchor="start" x="40" y="4.680000000000001" style="font-family: 'Open Sans', verdana, arial, sans-serif; font-size: 12px; fill: rgb(42, 63, 95); fill-opacity: 1; white-space: pre;">GC rate</text><g class="layers" style="opacity: 1;"><g class="legendfill"/><g class="legendlines"><path class="js-line" d="M5,0h30" style="fill: none; stroke: rgb(128, 128, 128); stroke-opacity: 1; stroke-width: 2px;"/></g><g class="legendsymbols"><g class="legendpoints"/></g></g><rect class="legendtoggle" x="0" y="-9.5" width="166.78125" height="19" style="fill: rgb(0, 0, 0); fill-opacity: 0;"/></g></g></g><rect class="scrollbar" rx="20" ry="3" width="0" height="0" x="0" y="0" style="fill: rgb(128, 139, 164); fill-opacity: 1;"/></g><g class="g-gtitle"><text class="gtitle" x="55" y="50" text-anchor="start" dy="0em" style="font-family: 'Open Sans', verdana, arial, sans-serif; font-size: 17px; fill: rgb(42, 63, 95); opacity: 1; font-weight: normal; white-space: pre;">Mean depth per region for twist2</text></g><g class="g-xtitle"><text class="xtitle" x="465.4" y="587.784375" text-anchor="middle" style="font-family: 'Open Sans', verdana, arial, sans-serif; font-size: 14px; fill: rgb(42, 63, 95); opacity: 1; font-weight: normal; white-space: pre;">Expected region</text></g><g class="g-ytitle"><text class="ytitle" transform="rotate(-90,38.934375,297.5)" x="38.934375" y="297.5" text-anchor="middle" style="font-family: 'Open Sans', verdana, arial, sans-serif; font-size: 14px; fill: rgb(42, 63, 95); opacity: 1; font-weight: normal; white-space: pre;">Mean depth</text></g><g class="g-y2title"><text class="y2title" transform="rotate(-90,903.8625,297.5)" x="903.8625" y="297.5" text-anchor="middle" style="font-family: 'Open Sans', verdana, arial, sans-serif; font-size: 14px; fill: rgb(42, 63, 95); opacity: 1; font-weight: normal; white-space: pre;">GC %</text></g></g></svg>