<svg class="main-svg" xmlns="http://www.w3.org/2000/svg" xmlns:xlink="http://www.w3.org/1999/xlink" width="1100" height="600" style="" viewBox="0 0 1100 600"><rect x="0" y="0" width="1100" height="600" style="fill: rgb(255, 255, 255); fill-opacity: 1;"/><defs id="defs-85b5e8"><g class="clips"><clipPath id="clip85b5e8xyplot" class="plotclip"><rect width="770.8" height="395"/></clipPath><clipPath id="clip85b5e8xy2plot" class="plotclip"><rect width="770.8" height="395"/></clipPath><clipPath class="axesclip" id="clip85b5e8x"><rect x="80" y="0" width="770.8" height="600"/></clipPath><clipPath class="axesclip" id="clip85b5e8y"><rect x="0" y="100" width="1100" height="395"/></clipPath><clipPath class="axesclip" id="clip85b5e8xy"><rect x="80" y="100" width="770.8" height="395"/></clipPath><clipPath class="axesclip" id="clip85b5e8y2"><rect x="0" y="100" width="1100" height="395"/></clipPath><clipPath class="axesclip" id="clip85b5e8xy2"><rect x="80" y="100" width="770.8" height="395"/></clipPath></g><g class="gradients"/></defs><g class="bglayer"><rect class="bg" x="80" y="100" width="770.8" height="395" style="fill: rgb(229, 236, 246); fill-opacity: 1; stroke-width: 0;"/></g><g class="layer-below"><g class="imagelayer"/><g class="shapelayer"/></g><g class="cartesianlayer"><g class="subplot xy"><g class="layer-subplot"><g class="shapelayer"/><g class="imagelayer"/></g><g class="gridlayer"><g class="x"><path class="xgrid crisp" transform="translate(98.8,0)" d="M0,100v395" style="stroke: rgb(255, 255, 255); stroke-opacity: 1; stroke-width: 1px;"/><path class="xgrid crisp" transform="translate(117.6,0)" d="M0,100v395" style="stroke: rgb(255, 255, 255); stroke-opacity: 1; stroke-width: 1px;"/><path class="xgrid crisp" transform="translate(136.4,0)" d="M0,100v395" style="stroke: rgb(255, 255, 255); stroke-opacity: 1; stroke-width: 1px;"/><path class="xgrid crisp" transform="translate(155.2,0)" d="M0,100v395" style="stroke: rgb(255, 255, 255); stroke-opacity: 1; stroke-width: 1px;"/><path class="xgrid crisp" transform="translate(174,0)" d="M0,100v395" style="stroke: rgb(255, 255, 255); stroke-opacity: 1; stroke-width: 1px;"/><path class="xgrid crisp" transform="translate(192.8,0)" d="M0,100v395" style="stroke: rgb(255, 255, 255); stroke-opacity: 1; stroke-width: 1px;"/><path class="xgrid crisp" transform="translate(211.6,0)" d="M0,100v395" style="stroke: rgb(255, 255, 255); stroke-opacity: 1; stroke-width: 1px;"/><path class="xgrid crisp" transform="translate(230.4,0)" d="M0,100v395" style="stroke: rgb(255, 255, 255); stroke-opacity: 1; stroke-width: 1px;"/><path class="xgrid crisp" transform="translate(249.2,0)" d="M0,100v395" style="stroke: rgb(255, 255, 255); stroke-opacity: 1; stroke-width: 1px;"/><path class="xgrid crisp" transform="translate(268,0)" d="M0,100v395" style="stroke: rgb(255, 255, 255); stroke-opacity: 1; stroke-width: 1px;"/><path class="xgrid crisp" transform="translate(286.8,0)" d="M0,100v395" style="stroke: rgb(255, 255, 255); stroke-opacity: 1; stroke-width: 1px;"/><path class="xgrid crisp" transform="translate(305.6,0)" d="M0,100v395" style="stroke: rgb(255, 255, 255); stroke-opacity: 1; stroke-width: 1px;"/><path class="xgrid crisp" transform="translate(324.4,0)" d="M0,100v395" style="stroke: rgb(255, 255, 255); stroke-opacity: 1; stroke-width: 1px;"/><path class="xgrid crisp" transform="translate(343.2,0)" d="M0,100v395" style="stroke: rgb(255, 255, 255); stroke-opacity: 1; stroke-width: 1px;"/><path class="xgrid crisp" transform="translate(362,0)" d="M0,100v395" style="stroke: rgb(255, 255, 255); stroke-opacity: 1; stroke-width: 1px;"/><path class="xgrid crisp" transform="translate(380.8,0)" d="M0,100v395" style="stroke: rgb(255, 255, 255); stroke-opacity: 1; stroke-width: 1px;"/><path class="xgrid crisp" transform="translate(399.6,0)" d="M0,100v395" style="stroke: rgb(255, 255, 255); stroke-opacity: 1; stroke-width: 1px;"/><path class="xgrid crisp" transform="translate(418.4,0)" d="M0,100v395" style="stroke: rgb(255, 255, 255); stroke-opacity: 1; stroke-width: 1px;"/><path class="xgrid crisp" transform="translate(437.2,0)" d="M0,100v395" style="stroke: rgb(255, 255, 255); stroke-opacity: 1; stroke-width: 1px;"/><path class="xgrid crisp" transform="translate(456,0)" d="M0,100v395" style="stroke: rgb(255, 255, 255); stroke-opacity: 1; stroke-width: 1px;"/><path class="xgrid crisp" transform="translate(474.8,0)" d="M0,100v395" style="stroke: rgb(255, 255, 255); stroke-opacity: 1; stroke-width: 1px;"/><path class="xgrid crisp" transform="translate(493.6,0)" d="M0,100v395" style="stroke: rgb(255, 255, 255); stroke-opacity: 1; stroke-width: 1px;"/><path class="xgrid crisp" transform="translate(512.4,0)" d="M0,100v395" style="stroke: rgb(255, 255, 255); stroke-opacity: 1; stroke-width: 1px;"/><path class="xgrid crisp" transform="translate(531.2,0)" d="M0,100v395" style="stroke: rgb(255, 255, 255); stroke-opacity: 1; stroke-width: 1px;"/><path class="xgrid crisp" transform="translate(550,0)" d="M0,100v395" style="stroke: rgb(255, 255, 255); stroke-opacity: 1; stroke-width: 1px;"/><path class="xgrid crisp" transform="translate(568.8,0)" d="M0,100v395" style="stroke: rgb(255, 255, 255); stroke-opacity: 1; stroke-width: 1px;"/><path class="xgrid crisp" transform="translate(587.6,0)" d="M0,100v395" style="stroke: rgb(255, 255, 255); stroke-opacity: 1; stroke-width: 1px;"/><path class="xgrid crisp" transform="translate(606.4,0)" d="M0,100v395" style="stroke: rgb(255, 255, 255); stroke-opacity: 1; stroke-width: 1px;"/><path class="xgrid crisp" transform="translate(625.2,0)" d="M0,100v395" style="stroke: rgb(255, 255, 255); stroke-opacity: 1; stroke-width: 1px;"/><path class="xgrid crisp" transform="translate(644,0)" d="M0,100v395" style="stroke: rgb(255, 255, 255); stroke-opacity: 1; stroke-width: 1px;"/><path class="xgrid crisp" transform="translate(662.8,0)" d="M0,100v395" style="stroke: rgb(255, 255, 255); stroke-opacity: 1; stroke-width: 1px;"/><path class="xgrid crisp" transform="translate(681.6,0)" d="M0,100v395" style="stroke: rgb(255, 255, 255); stroke-opacity: 1; stroke-width: 1px;"/><path class="xgrid crisp" transform="translate(700.4,0)" d="M0,100v395" style="stroke: rgb(255, 255, 255); stroke-opacity: 1; stroke-width: 1px;"/><path class="xgrid crisp" transform="translate(719.2,0)" d="M0,100v395" style="stroke: rgb(255, 255, 255); stroke-opacity: 1; stroke-width: 1px;"/><path class="xgrid crisp" transform="translate(738,0)" d="M0,100v395" style="stroke: rgb(255, 255, 255); stroke-opacity: 1; stroke-width: 1px;"/><path class="xgrid crisp" transform="translate(756.8,0)" d="M0,100v395" style="stroke: rgb(255, 255, 255); stroke-opacity: 1; stroke-width: 1px;"/><path class="xgrid crisp" transform="translate(775.6,0)" d="M0,100v395" style="stroke: rgb(255, 255, 255); stroke-opacity: 1; stroke-width: 1px;"/><path class="xgrid crisp" transform="translate(794.4,0)" d="M0,100v395" style="stroke: rgb(255, 255, 255); stroke-opacity: 1; stroke-width: 1px;"/><path class="xgrid crisp" transform="translate(813.2,0)" d="M0,100v395" style="stroke: rgb(255, 255, 255); stroke-opacity: 1; stroke-width: 1px;"/><path class="xgrid crisp" transform="translate(832,0)" d="M0,100v395" style="stroke: rgb(255, 255, 255); stroke-opacity: 1; stroke-width: 1px;"/></g><g class="y"><path class="ygrid crisp" transform="translate(0,418.07)" d="M80,0h770.8" style="stroke: rgb(255, 255, 255); stroke-opacity: 1; stroke-width: 1px;"/><path class="ygrid crisp" transform="translate(0,360.56)" d="M80,0h770.8" style="stroke: rgb(255, 255, 255); stroke-opacity: 1; stroke-width: 1px;"/><path class="ygrid crisp" transform="translate(0,303.05)" d="M80,0h770.8" style="stroke: rgb(255, 255, 255); stroke-opacity: 1; stroke-width: 1px;"/><path class="ygrid crisp" transform="translate(0,245.55)" d="M80,0h770.8" style="stroke: rgb(255, 255, 255); stroke-opacity: 1; stroke-width: 1px;"/><path class="ygrid crisp" transform="translate(0,188.04000000000002)" d="M80,0h770.8" style="stroke: rgb(255, 255, 255); stroke-opacity: 1; stroke-width: 1px;"/><path class="ygrid crisp" transform="translate(0,130.53)" d="M80,0h770.8" style="stroke: rgb(255, 255, 255); stroke-opacity: 1; stroke-width: 1px;"/></g><g class="y2"><path class="y2grid crisp" transform="translate(0,463.84)" d="M80,0h770.8" style="stroke: rgb(255, 255, 255); stroke-opacity: 1; stroke-width: 1px;"/><path class="y2grid crisp" transform="translate(0,413.62)" d="M80,0h770.8" style="stroke: rgb(255, 255, 255); stroke-opacity: 1; stroke-width: 1px;"/><path class="y2grid crisp" transform="translate(0,363.39)" d="M80,0h770.8" style="stroke: rgb(255, 255, 255); stroke-opacity: 1; stroke-width: 1px;"/><path class="y2grid crisp" transform="translate(0,313.16999999999996)" d="M80,0h770.8" style="stroke: rgb(255, 255, 255); stroke-opacity: 1; stroke-width: 1px;"/><path class="y2grid crisp" transform="translate(0,262.95)" d="M80,0h770.8" style="stroke: rgb(255, 255, 255); stroke-opacity: 1; stroke-width: 1px;"/><path class="y2grid crisp" transform="translate(0,212.73000000000002)" d="M80,0h770.8" style="stroke: rgb(255, 255, 255); stroke-opacity: 1; stroke-width: 1px;"/><path class="y2grid crisp" transform="translate(0,162.51)" d="M80,0h770.8" style="stroke: rgb(255, 255, 255); stroke-opacity: 1; stroke-width: 1px;"/><path class="y2grid crisp" transform="translate(0,112.28)" d="M80,0h770.8" style="stroke: rgb(255, 255, 255); stroke-opacity: 1; stroke-width: 1px;"/></g></g><g class="zerolinelayer"><path class="yzl zl crisp" transform="translate(0,475.57)" d="M80,0h770.8" style="stroke: rgb(255, 255, 255); stroke-opacity: 1; stroke-width: 2px;"/></g><path class="xlines-below"/><path class="ylines-below"/><g class="overlines-below"><path class="xy2-x"/><path class="xy2-y"/></g><g class="xaxislayer-below"/><g class="yaxislayer-below"/><g class="overaxes-below"><g class="xy2-x"/><g class="xy2-y"/></g><g class="plot" transform="translate(80,100)" clip-path="url('#clip85b5e8xyplot')"><g class="scatterlayer mlayer"><g class="trace scatter trace7ade9f" style="stroke-miterlimit: 2; opacity: 1;"><g class="fills"/><g class="errorbars"/><g class="lines"><path class="js-line" d="M0,258.58L4.7,197.42L9.4,324.5L14.1,328.1L18.8,334.47L23.5,278.35L28.2,236.42L32.9,195.93L37.6,217.93L42.3,276.38L47,357.88L51.7,263.86L56.4,275.49L61.1,169.07L65.8,276.13L70.5,262.52L75.2,231.14L79.9,203.14L84.6,242.51L89.3,184.3L94,292.76L98.7,305.28L103.4,346.5L108.1,323.05L112.8,181.24L117.5,352.37L122.2,359.09L126.9,334.25L131.6,253.38L136.3,349.83L141,239.69L145.7,311.6L150.4,343.75L155.1,338.32L159.8,346.49L164.5,247.95L169.2,313.82L173.9,278.66L178.6,211.75L183.3,312.03L188,366.96L192.7,362.42L197.4,320.64L202.1,367.85L206.8,322.83L211.5,366.83L216.2,358.91L225.6,345.61L230.3,292.55L235,352.64L239.7,256.4L244.4,234.43L249.1,326.43L253.8,320.68L258.5,371.02L263.2,337.76L267.9,320.56L272.6,296.57L277.3,305.94L282,345.43L286.7,354.83L291.4,336.63L296.1,353.32L300.8,375.12L305.5,367L310.2,277.59L314.9,335.1L319.6,299.14L324.3,303.74L329,355.42L333.7,248.15L338.4,322.32L343.1,283.35L352.5,319.36L357.2,323.97L361.9,282.74L366.6,342.2L371.3,292.2L376,216.1L380.7,201.44L385.4,303.26L390.1,360.27L394.8,303.91L399.5,368.51L404.2,352.2L408.9,333.6L413.6,241.88L418.3,346.31L423,268.55L427.7,306.48L432.4,363.11L437.1,179.58L441.8,271.35L446.5,298.49L451.2,313.06L455.9,352.9L460.6,352.92L465.3,366.32L470,357.25L474.7,358.33L479.4,269L484.1,363.6L488.8,367.08L493.5,270.31L498.2,362.55L502.9,319.27L507.6,361.34L512.3,281.49L517,338.25L521.7,246.06L526.4,359.11L531.1,366.16L535.8,333.87L540.5,369.9L545.2,366.66L549.9,314.7L554.6,320.22L559.3,365.67L564,340.96L568.7,366.17L573.4,292.58L582.8,366.25L587.5,253.87L592.2,357.64L596.9,239.59L601.6,361.9L606.3,264.92L611,359.84L615.7,364.25L620.4,277.38L625.1,361.37L629.8,361.24L634.5,316.88L643.9,369.38L648.6,359.12L653.3,367.38L658,336.38L662.7,284.3L667.4,327.23L672.1,368.11L676.8,358.16L681.5,369.85L686.2,367.04L690.9,300.41L695.6,322.73L700.3,372.05L705,367.76L709.7,358.66L714.4,337.84L719.1,356.82L723.8,371.3L728.5,340.34L733.2,367.65L737.9,329.34L742.6,351.74L747.3,362.79L752,369.54L756.7,214.03L761.4,316.4L766.1,346.51L770.8,351.55" style="vector-effect: non-scaling-stroke; fill: none; stroke: rgb(99, 110, 250); stroke-opacity: 1; stroke-width: 2px; opacity: 1;"/></g><g class="points"/><g class="text"/></g><g class="trace scatter trace947148" style="stroke-miterlimit: 2; opacity: 1;"><g class="fills"/><g class="errorbars"/><g class="lines"><path class="js-line" d="M0,189.73L4.7,126.96L9.4,283.14L14.1,315.91L18.8,289.44L23.5,184.63L28.2,201.92L32.9,108.09L37.6,98.32L42.3,254.18L47,355.22L51.7,188.05L56.4,239.54L61.1,97.18L65.8,231.7L70.5,204.05L75.2,226.37L79.9,122.95L84.6,170.57L89.3,89.29L94,232.91L98.7,272.77L103.4,330.1L108.1,287.3L112.8,83.37L117.5,342.53L122.2,351.84L126.9,312.01L131.6,185.68L136.3,345.54L141,185.06L145.7,277.88L150.4,330.9L155.1,312.92L159.8,337.9L164.5,182.72L169.2,273.16L173.9,218.96L178.6,103.59L183.3,279L188,362.39L192.7,351.5L197.4,296L202.1,361.64L206.8,310.38L211.5,358.91L216.2,345.93L220.9,338.58L225.6,326.73L230.3,232.47L235,335.54L239.7,174.18L244.4,163.82L249.1,285.05L253.8,282.85L258.5,369.23L263.2,313.84L267.9,292.57L272.6,265.82L277.3,289.07L282,329.96L286.7,342.15L291.4,317.39L300.8,373.82L305.5,360.97L310.2,218.3L314.9,321.54L319.6,256.76L324.3,263.05L329,347.49L333.7,175.21L338.4,302.59L343.1,222.75L347.8,242.37L352.5,295.33L357.2,279.48L361.9,234.2L366.6,319.96L371.3,232.37L376,123.09L380.7,89.87L385.4,264.13L390.1,349.8L394.8,284.81L399.5,365.37L404.2,342.39L408.9,307.34L413.6,175.53L418.3,324.19L423,218.07L427.7,286.47L432.4,358.21L437.1,72.99L441.8,245.2L446.5,246.34L451.2,279.19L455.9,340.59L460.6,340.89L465.3,359.37L470,348.56L474.7,346.69L479.4,209.28L484.1,357.81L488.8,363.65L493.5,210.03L498.2,354.64L502.9,286.97L507.6,357.78L512.3,232.32L517,316.65L521.7,180.39L526.4,352.28L531.1,361.18L535.8,309.12L540.5,365.57L545.2,360.47L549.9,273.71L554.6,286.05L559.3,359.92L564,324.43L568.7,361.48L573.4,252.52L578.1,314.08L582.8,360.32L587.5,204.77L592.2,345.97L596.9,193.84L601.6,355.52L606.3,203.24L611,352.93L615.7,357.39L620.4,211.68L625.1,353.05L629.8,354.49L634.5,295.86L643.9,365.36L648.6,354.32L653.3,362.9L658,318.3L662.7,254.36L667.4,299.47L672.1,365.22L676.8,347.05L681.5,365.75L686.2,361.97L690.9,276.34L695.6,302.25L700.3,368.9L705,362.84L709.7,346.77L714.4,325.91L719.1,345.41L723.8,369.19L728.5,314.13L733.2,362.49L737.9,304.48L742.6,338.21L752,367.32L756.7,135.25L761.4,288.94L766.1,330.27L770.8,337.36" style="vector-effect: non-scaling-stroke; fill: none; stroke: rgb(239, 85, 59); stroke-opacity: 1; stroke-width: 2px; opacity: 1;"/></g><g class="points"/><g class="text"/></g><g class="trace scatter trace11cb45" style="stroke-miterlimit: 2; opacity: 1;"><g class="fills"/><g class="errorbars"/><g class="lines"><path class="js-line" d="M0,272.77L4.7,178.7L9.4,297.19L14.1,341.1L18.8,327.48L28.2,212.16L32.9,191.02L37.6,206.74L42.3,267.97L47,358.01L51.7,263.7L56.4,265.91L61.1,186.91L65.8,286.12L70.5,245.86L75.2,263.13L79.9,189.71L84.6,272.9L89.3,184.82L94,305.68L98.7,295.29L103.4,348.51L108.1,312.53L112.8,167.04L117.5,347.67L122.2,360.48L126.9,333.61L131.6,242.39L136.3,352.8L141,241.4L145.7,301.95L150.4,349.8L155.1,335.54L159.8,338.01L164.5,211.22L169.2,314.04L173.9,272.54L178.6,193.38L183.3,312.04L188,366.97L192.7,358.6L197.4,324.01L202.1,367.22L206.8,330.83L211.5,365.02L220.9,348.93L225.6,344.13L230.3,279.19L235,346.34L239.7,241.63L244.4,238.24L249.1,318.47L253.8,317.66L258.5,371.29L263.2,337.46L272.6,300.44L277.3,316.65L282,345.7L286.7,349.42L291.4,343.29L296.1,355.6L300.8,374.86L305.5,366.45L310.2,272.58L314.9,339.66L319.6,287.01L324.3,300.64L329,355.25L333.7,239.01L338.4,334.88L343.1,272.76L347.8,285.31L352.5,321.66L357.2,317.29L361.9,278.54L366.6,337.56L371.3,282.16L376,207.15L380.7,192.07L385.4,297.88L390.1,359.26L394.8,312.79L399.5,368.99L404.2,352.12L408.9,329.95L413.6,234.17L418.3,340.81L423,264.49L427.7,315.7L432.4,365.02L437.1,157.39L441.8,283.71L446.5,278.18L451.2,309.07L455.9,352.24L460.6,354.63L465.3,363.79L470,357.35L474.7,358.84L479.4,263.05L484.1,363.44L488.8,366.2L493.5,260.45L498.2,362.06L502.9,320.19L507.6,363.59L512.3,273.5L517,337.41L521.7,247.36L526.4,359.41L531.1,367.51L535.8,330.55L540.5,368.93L545.2,364.64L549.9,310.56L554.6,316.59L559.3,365.38L564,339.23L568.7,366.28L573.4,288.43L578.1,323.91L582.8,367.02L587.5,259.99L592.2,356.73L596.9,250.36L601.6,346.41L606.3,257.95L611,360.02L615.7,362.89L620.4,263.1L625.1,361.96L629.8,363.3L634.5,322.71L643.9,368.31L648.6,363.78L653.3,365.48L658,339.07L662.7,290.82L667.4,323.71L672.1,368.75L676.8,355.66L681.5,369.74L686.2,366.19L690.9,306.33L695.6,326.46L700.3,371.4L705,367.74L709.7,356.59L714.4,340.59L723.8,370.44L728.5,334.12L733.2,366.82L737.9,322.99L742.6,350.6L747.3,360.54L752,370.53L756.7,208.59L761.4,317.29L766.1,345.65L770.8,350.84" style="vector-effect: non-scaling-stroke; fill: none; stroke: rgb(0, 204, 150); stroke-opacity: 1; stroke-width: 2px; opacity: 1;"/></g><g class="points"/><g class="text"/></g><g class="trace scatter trace491fca" style="stroke-miterlimit: 2; opacity: 1;"><g class="fills"/><g class="errorbars"/><g class="lines"><path class="js-line" d="M0,245.25L4.7,149.38L9.4,297.02L14.1,323.1L18.8,299.56L23.5,254.1L28.2,185L32.9,145.45L37.6,182.57L42.3,257.35L47,356.83L51.7,243.78L56.4,255.74L61.1,140.89L65.8,267.21L70.5,239.89L75.2,251.36L79.9,154.92L84.6,234.86L89.3,155.12L94,292.35L98.7,275.05L103.4,342.07L108.1,297.05L112.8,134.63L117.5,344.38L122.2,355.31L126.9,321.48L131.6,226.27L136.3,351.39L141,236.6L145.7,297.06L150.4,345.42L155.1,329.02L159.8,352.81L164.5,192.72L169.2,298.29L173.9,263.06L178.6,169.64L183.3,298.81L188,365.77L192.7,357.5L197.4,310.34L202.1,364.69L206.8,345.66L211.5,361.82L216.2,355.67L220.9,346.47L225.6,345.69L230.3,265.05L235,345.28L239.7,230.65L244.4,214.02L249.1,314.65L253.8,301.9L258.5,370.43L263.2,324.38L267.9,309.87L272.6,289.04L277.3,305.11L282,342.4L286.7,343.17L291.4,338.66L296.1,351.27L300.8,375.05L305.5,364.42L310.2,252.45L314.9,332.34L319.6,286.31L324.3,287.1L329,353.49L333.7,218.2L338.4,331.54L343.1,259.69L347.8,263.57L352.5,311.59L357.2,305.35L361.9,270.79L366.6,335.22L376,182.59L380.7,160.65L385.4,285.47L390.1,358.38L394.8,302.95L399.5,368.51L404.2,355.18L408.9,324.01L413.6,214.61L418.3,334.26L423,247.19L427.7,305.47L432.4,363.52L437.1,131.06L441.8,272.15L446.5,265.03L451.2,301.34L455.9,347.76L460.6,348.75L465.3,361.51L470,354.74L474.7,354.84L479.4,268.8L484.1,360.95L488.8,364.81L493.5,241.29L498.2,360.96L502.9,308.39L507.6,361.83L512.3,256.7L517,330.15L521.7,235.74L526.4,354.79L531.1,365.86L535.8,323.91L540.5,368.21L545.2,363.56L549.9,300.95L554.6,309.74L559.3,364.1L564,333.57L568.7,365.09L573.4,274.36L578.1,314.37L582.8,365.35L587.5,241.84L592.2,353.86L596.9,235.7L601.6,357.32L606.3,241.59L611,358.38L615.7,362.02L620.4,247.81L625.1,359.42L629.8,360.59L634.5,310.98L639.2,341.93L643.9,366.95L648.6,359.67L653.3,363.62L658,331.77L662.7,275.57L672.1,367.64L676.8,353.1L681.5,368.42L686.2,364.46L690.9,298.48L695.6,319.41L700.3,370.48L705,366.51L709.7,355.88L714.4,334.96L719.1,350.02L723.8,369.5L728.5,327.56L733.2,365.55L737.9,319.55L742.6,346.82L752,369.23L756.7,195.69L761.4,309.33L766.1,340.74L770.8,346.41" style="vector-effect: non-scaling-stroke; fill: none; stroke: rgb(171, 99, 250); stroke-opacity: 1; stroke-width: 2px; opacity: 1;"/></g><g class="points"/><g class="text"/></g><g class="trace scatter trace4bdd46" style="stroke-miterlimit: 2; opacity: 1;"><g class="fills"/><g class="errorbars"/><g class="lines"><path class="js-line" d="M0,319.34L4.7,204.02L9.4,333.17L14.1,331.2L18.8,322.67L23.5,271.59L28.2,233.46L32.9,192.23L37.6,201.8L42.3,262.34L47,364.43L51.7,240.45L56.4,282.38L61.1,232.13L65.8,283.27L70.5,250.86L75.2,297.85L79.9,195.31L84.6,256.09L89.3,173.52L94,283.38L98.7,294.49L103.4,348.02L108.1,319.66L112.8,178.57L117.5,347.39L122.2,357.86L126.9,329.21L131.6,241.45L136.3,352.15L141,250.7L145.7,308.23L150.4,344.18L155.1,328.74L159.8,351.94L164.5,241.19L169.2,308.13L173.9,273.59L178.6,195.65L183.3,305.54L188,366L192.7,361L197.4,322.09L202.1,367.4L206.8,344.95L211.5,363.37L216.2,359.45L220.9,347.34L225.6,347.99L230.3,279.37L235,345.64L239.7,229.83L244.4,230.86L249.1,314.79L253.8,303.12L258.5,370.26L263.2,335.74L267.9,315.3L272.6,309.96L277.3,323.47L282,345.78L286.7,346.92L291.4,340.92L296.1,353.43L300.8,374.86L305.5,364.24L310.2,261.2L314.9,339.81L319.6,293.14L324.3,289.12L329,354.81L333.7,247.06L338.4,340.77L343.1,273.52L347.8,287.03L352.5,322.12L357.2,302.05L361.9,277.77L366.6,340.28L376,212.66L380.7,189.43L385.4,302.15L390.1,357.21L394.8,321.13L399.5,369.03L404.2,356.83L408.9,331.23L413.6,233.08L418.3,334.13L423,271.2L427.7,321.74L432.4,363.26L437.1,170.1L441.8,302.55L446.5,278.74L451.2,309.9L455.9,351.68L460.6,353.12L465.3,362.6L470,354.19L474.7,357.05L479.4,277.2L484.1,363.42L488.8,367.24L493.5,260.69L498.2,361.62L502.9,316.01L507.6,365.14L512.3,281.82L517,338.54L521.7,254.71L526.4,358.42L531.1,366.41L535.8,328.34L540.5,367.88L545.2,365.27L549.9,298.93L554.6,313.3L559.3,364.1L564,338.8L568.7,364.45L573.4,287.22L578.1,332.34L582.8,366.09L587.5,265.83L592.2,354.56L596.9,262.87L601.6,346.85L606.3,261.84L611,360.99L615.7,362.63L620.4,255.74L625.1,360.88L629.8,362.28L634.5,327.67L639.2,344.71L643.9,367.72L648.6,364.31L653.3,366.41L658,337.28L662.7,300.07L667.4,322.81L672.1,370.11L676.8,356.29L681.5,368.78L686.2,366.93L690.9,318.2L695.6,330.3L700.3,370.81L705,368.16L709.7,354.37L714.4,344.35L719.1,356L723.8,370.86L728.5,326.1L733.2,366.93L737.9,323.02L742.6,350.48L747.3,357.7L752,370.69L756.7,220.19L761.4,321.1L766.1,344.56L770.8,350.11" style="vector-effect: non-scaling-stroke; fill: none; stroke: rgb(255, 161, 90); stroke-opacity: 1; stroke-width: 2px; opacity: 1;"/></g><g class="points"/><g class="text"/></g><g class="trace scatter trace7c34f4" style="stroke-miterlimit: 2; opacity: 1;"><g class="fills"/><g class="errorbars"/><g class="lines"><path class="js-line" d="M0,272.89L4.7,115.9L9.4,274.94L14.1,321.16L18.8,300.08L23.5,240.68L28.2,208.46L32.9,113.93L37.6,135.57L47,350.97L51.7,216.68L56.4,239.73L61.1,132.74L65.8,213.36L70.5,217.47L75.2,209.45L79.9,133.44L84.6,192.35L89.3,112.1L94,247.7L98.7,271.47L103.4,329.52L108.1,289.83L112.8,99.63L117.5,342.34L122.2,349.71L126.9,305.13L131.6,205.83L136.3,340.68L141,183.96L145.7,276.19L150.4,328.09L155.1,309.46L159.8,327.87L164.5,180.55L169.2,278.59L173.9,223.3L178.6,130.64L183.3,274.98L188,363.94L192.7,352.88L197.4,281.31L202.1,363.15L206.8,309.13L211.5,359.62L216.2,343.89L220.9,337.37L225.6,331.9L230.3,233.61L235,333.41L239.7,185.17L244.4,178.48L249.1,291.81L253.8,279.91L258.5,367.26L263.2,315.95L267.9,290.2L272.6,266.14L277.3,287.11L282,333.5L286.7,334.41L291.4,328.68L296.1,343.83L300.8,373.75L305.5,361.32L310.2,223L314.9,320.57L319.6,256.41L324.3,262.68L329,344.85L333.7,186.5L338.4,307.03L343.1,230.59L347.8,253.29L352.5,292.24L357.2,284.76L361.9,229.66L366.6,328.02L371.3,241.27L376,151.34L380.7,109.64L385.4,266.42L390.1,351.12L394.8,282.49L399.5,365.1L404.2,341.76L408.9,312.93L413.6,180.94L418.3,319.85L423,221.99L427.7,284.51L432.4,354.7L437.1,91.52L441.8,248.96L446.5,250.56L451.2,282.79L455.9,338.23L460.6,341.77L465.3,358.64L470,345.29L474.7,347.61L479.4,214.94L484.1,355.55L488.8,361.42L493.5,219.04L498.2,355.3L502.9,293.58L507.6,357.28L512.3,246.27L517,319.65L521.7,189.19L526.4,351.98L531.1,362.58L535.8,308.97L540.5,365.5L545.2,359.85L549.9,266.42L554.6,288L559.3,359.96L564,322.49L568.7,359.09L573.4,255.16L578.1,314.82L582.8,359.78L587.5,210.04L592.2,347.14L596.9,197.03L601.6,356.2L606.3,221L611,353.66L615.7,356.51L620.4,213.49L625.1,353.96L629.8,354.85L634.5,294.48L643.9,365.19L648.6,354.5L653.3,362.9L658,316.63L662.7,249.95L667.4,302.27L672.1,365.96L676.8,345.69L681.5,366.36L686.2,361.75L690.9,276.12L695.6,302.32L700.3,369.06L705,363.71L714.4,322.51L719.1,348.47L723.8,369.1L728.5,312.25L733.2,362.55L737.9,303.34L742.6,338.82L747.3,352.38L752,367.26L756.7,152.32L761.4,291.17L766.1,329.3L770.8,338.94" style="vector-effect: non-scaling-stroke; fill: none; stroke: rgb(25, 211, 243); stroke-opacity: 1; stroke-width: 2px; opacity: 1;"/></g><g class="points"/><g class="text"/></g><g class="trace scatter trace6699b1" style="stroke-miterlimit: 2; opacity: 1;"><g class="fills"/><g class="errorbars"/><g class="lines"><path class="js-line" d="M0,217.07L4.7,59.99L9.4,218.63L14.1,299.99L18.8,282.69L28.2,168.84L32.9,87.78L37.6,108.19L42.3,224.83L47,341.81L51.7,180.42L56.4,196.14L61.1,19.75L65.8,206.63L70.5,213.22L79.9,87.52L84.6,159.01L89.3,62.73L94,217.71L98.7,233.36L103.4,324.49L108.1,286.14L112.8,31.12L117.5,328.39L122.2,349.3L126.9,299.8L131.6,164.05L136.3,338.77L141,165.93L145.7,271.78L150.4,327.22L155.1,305.76L159.8,319.71L164.5,97.08L169.2,265.14L173.9,208.09L178.6,95.53L183.3,267.91L188,360.69L192.7,348.18L197.4,274.75L202.1,358.99L206.8,310.83L211.5,357.96L216.2,347.84L220.9,331.43L225.6,333.95L230.3,219.2L235,332.44L239.7,175.27L244.4,156L249.1,284.63L253.8,299.06L258.5,369.71L263.2,307.27L267.9,287.19L272.6,238.66L277.3,263.23L282,325.28L286.7,333.8L291.4,305.62L300.8,374.47L305.5,359.02L310.2,209.12L314.9,301.93L319.6,255.47L324.3,253.36L329,337.27L333.7,149.49L338.4,304.05L343.1,210.91L352.5,283.39L357.2,285.23L361.9,214.51L366.6,306.91L371.3,222.4L376,98.42L380.7,64.87L385.4,255.36L390.1,351.84L394.8,256.04L399.5,361.77L404.2,341.25L408.9,301.1L413.6,160.7L418.3,319.21L423,204.54L427.7,263.36L432.4,353.44L437.1,44.82L441.8,216.16L446.5,224.49L451.2,267.41L455.9,337.86L460.6,335.91L465.3,355.35L470,342.16L474.7,345.96L479.4,193.48L484.1,352.98L488.8,361.44L493.5,202.16L498.2,352.19L502.9,277.97L507.6,351.72L512.3,206.83L517,310.53L521.7,167.07L526.4,346.68L531.1,361.92L535.8,301.82L540.5,365.57L545.2,357.69L549.9,275.23L554.6,276.74L559.3,359.38L564,319.18L568.7,358.26L573.4,242.11L578.1,276.92L582.8,360.72L587.5,179.5L592.2,344.1L596.9,156.8L601.6,322.32L606.3,189.61L611,347.29L615.7,354.62L620.4,192.28L625.1,349.92L629.8,353.55L634.5,283.76L639.2,326.1L643.9,364.03L648.6,349.21L653.3,358.13L658,313.32L662.7,226.23L667.4,291.76L672.1,362.25L676.8,342.87L681.5,365.6L686.2,357.66L690.9,247.89L695.6,285.32L700.3,368.4L705,361.89L709.7,343.41L714.4,308.92L723.8,367.01L728.5,313.62L733.2,360.21L737.9,296.13L742.6,332.36L747.3,354.12L752,365.15L756.7,111.61L761.4,270.09L766.1,323.19L770.8,334.17" style="vector-effect: non-scaling-stroke; fill: none; stroke: rgb(255, 102, 146); stroke-opacity: 1; stroke-width: 2px; opacity: 1;"/></g><g class="points"/><g class="text"/></g><g class="trace scatter trace380f52" style="stroke-miterlimit: 2; opacity: 1;"><g class="fills"/><g class="errorbars"/><g class="lines"><path class="js-line" d="M0,260.28L4.7,157.34L9.4,320.49L14.1,344.36L18.8,322.56L28.2,168.4L32.9,141.33L37.6,172.62L42.3,262.65L47,357.86L51.7,220.97L56.4,252.76L61.1,154.56L65.8,277.8L70.5,222.64L75.2,292.63L79.9,172.56L84.6,252.72L89.3,151.09L94,302.79L98.7,289.83L103.4,343.29L108.1,314.61L112.8,137.83L117.5,346.33L122.2,356.68L126.9,314.5L131.6,226.68L136.3,345.23L141,208.45L145.7,301.35L150.4,344.06L155.1,327.24L159.8,349.48L164.5,206.68L169.2,306.39L173.9,265.96L178.6,158.81L183.3,303.04L188,364.18L192.7,355.41L197.4,322.02L202.1,362.72L206.8,338.9L211.5,361.17L220.9,346.2L225.6,342.1L230.3,263.94L235,341.8L239.7,215.25L244.4,201.96L249.1,308.06L253.8,301.6L258.5,370.81L263.2,328.64L267.9,308.27L272.6,300.61L277.3,306.7L282,340.34L291.4,345.96L296.1,354.36L300.8,375.25L305.5,362.88L310.2,251.22L314.9,339.86L319.6,270.08L324.3,280.59L329,352.6L333.7,218.89L338.4,328.45L343.1,253.9L347.8,272.7L352.5,307.76L357.2,296.25L361.9,265.14L366.6,342.24L371.3,260.54L376,183.93L380.7,162.29L385.4,291.5L390.1,356.51L394.8,313.42L399.5,368.36L404.2,352.23L408.9,328.01L413.6,210.76L418.3,334.39L423,247.75L427.7,320L432.4,364.32L437.1,145.31L441.8,293.88L446.5,259.84L455.9,346.98L460.6,351.17L465.3,361.3L470,355.5L474.7,355.69L479.4,263.16L484.1,362.05L488.8,366.38L493.5,247.43L498.2,359.14L502.9,308.67L507.6,364.63L512.3,269.91L517,332.9L521.7,235.8L526.4,356.24L531.1,365.91L535.8,321.49L540.5,367.57L545.2,362.77L549.9,293.9L554.6,304.13L559.3,363.65L564,334.85L568.7,365.23L573.4,272.52L578.1,326.94L582.8,365.45L587.5,255.52L592.2,353.23L596.9,255.61L601.6,360L606.3,246.84L611,360.76L615.7,361.5L620.4,244.35L625.1,359.17L629.8,359.54L634.5,318.37L639.2,341.47L643.9,367.26L648.6,362.27L653.3,364.12L658,333.49L662.7,288.46L667.4,316.14L672.1,369.31L676.8,354.75L681.5,368.37L686.2,366.24L690.9,310.28L695.6,325.11L700.3,370.3L705,367.5L714.4,341.5L719.1,350.97L723.8,369.71L728.5,322.01L733.2,365.53L737.9,315.87L742.6,347.36L747.3,355.34L752,370.3L756.7,200.55L761.4,314.15L766.1,341.13L770.8,347.4" style="vector-effect: non-scaling-stroke; fill: none; stroke: rgb(182, 232, 128); stroke-opacity: 1; stroke-width: 2px; opacity: 1;"/></g><g class="points"/><g class="text"/></g><g class="trace scatter trace81b04a" style="stroke-miterlimit: 2; opacity: 1;"><g class="fills"/><g class="errorbars"/><g class="lines"><path class="js-line" d="M0,254.49L4.7,148.71L9.4,293.63L14.1,325.62L18.8,309.87L23.5,245.86L28.2,201.83L32.9,146.97L37.6,165.47L47,355.37L51.7,227.24L56.4,250.96L61.1,141.65L65.8,255.28L70.5,232.06L75.2,240.08L79.9,157.44L84.6,222.63L89.3,139.12L94,271.91L98.7,279.69L103.4,339.06L108.1,303.77L112.8,126.68L117.5,343.93L122.2,355.03L126.9,318.75L131.6,218.22L136.3,347.05L141,213.97L145.7,293.26L150.4,339.18L155.1,323.37L159.8,340.53L164.5,195.01L169.2,294.7L173.9,250.52L178.6,157.38L183.3,294.17L188,364.61L192.7,355.94L197.4,306.4L202.1,364.21L206.8,326.69L211.5,361.84L220.9,343.61L225.6,339.76L230.3,258.17L235,341.64L239.7,213.55L244.4,202.23L249.1,305.49L253.8,300.85L258.5,370L263.2,325.13L272.6,283.4L277.3,299.66L282,338.55L286.7,343.51L291.4,332.14L296.1,349.67L300.8,374.65L305.5,363.29L310.2,245.68L314.9,328.85L319.6,275.54L324.3,280.03L329,350.15L333.7,210.31L338.4,321.45L343.1,250.93L347.8,269.3L352.5,306.68L357.2,299.3L361.9,256.67L366.6,331.55L371.3,258.73L376,171.91L380.7,146.28L385.4,283.27L390.1,355.55L394.8,297.19L399.5,366.96L404.2,349.25L408.9,321.02L413.6,206.46L418.3,331.64L423,242.97L427.7,300.47L432.4,360.7L437.1,124.09L441.8,266.75L446.5,262.71L451.2,295.64L455.9,346.03L460.6,347.4L465.3,361.11L470,351.88L474.7,353.13L479.4,244.86L484.1,359.98L488.8,364.78L493.5,238.93L498.2,358.56L502.9,303.88L507.6,360.41L512.3,256.11L517,328.01L521.7,219.54L526.4,354.86L531.1,364.69L535.8,319.76L540.5,367.39L545.2,362.62L549.9,291.8L554.6,301.85L559.3,362.77L564,331.69L568.7,363.26L573.4,270.61L578.1,316.41L582.8,363.87L587.5,233.92L592.2,351.65L596.9,223.97L601.6,350.81L606.3,235.87L611,356.73L615.7,360.23L620.4,238.23L625.1,357.47L629.8,358.73L634.5,308.84L643.9,366.78L648.6,358.4L653.3,363.87L658,328.28L662.7,271.22L667.4,312.72L672.1,367.17L676.8,351.7L681.5,367.86L686.2,364.03L690.9,291.75L695.6,314.24L700.3,370.17L705,365.77L709.7,351.8L714.4,332.07L723.8,369.64L728.5,323.77L733.2,364.72L737.9,314.34L742.6,344.55L747.3,356.7L752,368.75L756.7,179.78L761.4,303.56L766.1,337.67L770.8,344.6" style="vector-effect: non-scaling-stroke; fill: none; stroke: rgb(255, 151, 255); stroke-opacity: 1; stroke-width: 2px; opacity: 1;"/></g><g class="points"/><g class="text"/></g></g></g><g class="overplot"><g class="xy2" transform="translate(80,100)" clip-path="url('#clip85b5e8xy2plot')"><g class="scatterlayer mlayer"><g class="trace scatter trace1c0dc3" style="stroke-miterlimit: 2; opacity: 1;"><g class="fills"/><g class="errorbars"/><g class="lines"><path class="js-line" d="M0,149.57L4.7,116.66L9.4,167.18L14.1,229.84L18.8,179.45L23.5,99.92L28.2,74L32.9,98.82L37.6,117.35L42.3,104.44L47,296.4L51.7,163.65L56.4,196.15L61.1,37.29L65.8,159.68L70.5,116.14L75.2,164.82L79.9,108.05L84.6,130.61L89.3,41.04L94,196.19L98.7,220.89L103.4,308.98L108.1,250.04L112.8,19.75L117.5,304.57L122.2,300.37L126.9,256.89L131.6,163.07L136.3,299.79L141,101.08L145.7,260.81L150.4,260.44L155.1,272.09L159.8,242.3L164.5,108.67L169.2,215.64L173.9,171.87L178.6,92.9L183.3,261.88L188,355.18L192.7,318.47L197.4,205.5L202.1,364.33L206.8,239.65L211.5,320.03L216.2,271.78L220.9,280.11L225.6,272.23L230.3,159.76L235,272.41L239.7,150.43L244.4,143.99L249.1,218.48L253.8,195.7L258.5,335.88L263.2,242.12L267.9,257.04L272.6,199.26L277.3,210.01L282,297.31L286.7,286.92L291.4,251.35L296.1,293.43L300.8,359.96L305.5,335.8L310.2,166.23L314.9,250.31L319.6,194.78L324.3,232.45L329,306.48L333.7,160.39L338.4,215.48L343.1,175.09L347.8,220.2L352.5,204.78L357.2,209.71L361.9,184.97L366.6,242.93L371.3,184.04L376,75.29L380.7,100.06L385.4,188.82L390.1,304.7L394.8,216.15L399.5,336.28L404.2,321.49L408.9,242.57L413.6,132.47L418.3,245.27L423,184.48L427.7,219.55L432.4,283.5L437.1,74.52L441.8,179.42L446.5,181.02L451.2,176.4L455.9,257.85L460.6,278.94L465.3,346.13L470,267.86L474.7,321.44L479.4,158.92L484.1,327.71L488.8,339.54L493.5,159.87L498.2,303.36L502.9,230.55L507.6,317.89L512.3,146.71L517,245.07L521.7,135.56L526.4,310L531.1,337.12L535.8,244.23L540.5,348.44L545.2,340.9L549.9,197.22L554.6,226.09L559.3,335.73L564,274.31L568.7,310.33L573.4,185.24L578.1,238.34L582.8,321.09L587.5,142.34L592.2,282.81L596.9,157.07L601.6,258.45L606.3,150.95L611,313.45L615.7,306.62L620.4,167.45L625.1,317.64L629.8,305.29L634.5,218.07L639.2,270.94L643.9,345.59L648.6,309.88L653.3,335.49L658,248.33L662.7,185.13L667.4,237.43L672.1,345.17L676.8,292.68L681.5,345.66L686.2,319.91L690.9,216.46L695.6,239.49L700.3,375.25L705,334.27L709.7,279.8L714.4,267.62L719.1,303.2L723.8,357.94L728.5,238.27L733.2,334.17L737.9,248.12L742.6,295.25L747.3,327.01L752,349.34L756.7,96.49L761.4,210.94L766.1,289.61L770.8,282.43" style="vector-effect: non-scaling-stroke; fill: none; stroke: rgb(128, 128, 128); stroke-opacity: 1; stroke-width: 2px; opacity: 1;"/></g><g class="points"/><g class="text"/></g></g></g></g><path class="xlines-above crisp" d="M0,0" style="fill: none;"/><path class="ylines-above crisp" d="M0,0" style="fill: none;"/><g class="overlines-above"><path class="xy2-x crisp" d="M0,0" style="fill: none;"/><path class="xy2-y crisp" d="M0,0" style="fill: none;"/></g><g class="xaxislayer-above"><g class="xtick"><text text-anchor="start" x="0" y="508" transform="translate(80,0) rotate(90,0,502)" style="font-family: 'Open Sans', verdana, arial, sans-serif; font-size: 12px; fill: rgb(42, 63, 95); fill-opacity: 1; white-space: pre;">blast30</text></g><g class="xtick"><text text-anchor="start" x="0" y="508" transform="translate(98.8,0) rotate(90,0,502)" style="font-family: 'Open Sans', verdana, arial, sans-serif; font-size: 12px; fill: rgb(42, 63, 95); fill-opacity: 1; white-space: pre;">RF02206</text></g><g class="xtick"><text text-anchor="start" x="0" y="508" transform="translate(117.6,0) rotate(90,0,502)" style="font-family: 'Open Sans', verdana, arial, sans-serif; font-size: 12px; fill: rgb(42, 63, 95); fill-opacity: 1; white-space: pre;">c7h6orf47</text></g><g class="xtick"><text text-anchor="start" x="0" y="508" transform="translate(136.4,0) rotate(90,0,502)" style="font-family: 'Open Sans', verdana, arial, sans-serif; font-size: 12px; fill: rgb(42, 63, 95); fill-opacity: 1; white-space: pre;">DIRAS3</text></g><g class="xtick"><text text-anchor="start" x="0" y="508" transform="translate(155.2,0) rotate(90,0,502)" style="font-family: 'Open Sans', verdana, arial, sans-serif; font-size: 12px; fill: rgb(42, 63, 95); fill-opacity: 1; white-space: pre;">blast13</text></g><g class="xtick"><text text-anchor="start" x="0" y="508" transform="translate(174,0) rotate(90,0,502)" style="font-family: 'Open Sans', verdana, arial, sans-serif; font-size: 12px; fill: rgb(42, 63, 95); fill-opacity: 1; white-space: pre;">blast19</text></g><g class="xtick"><text text-anchor="start" x="0" y="508" transform="translate(192.8,0) rotate(90,0,502)" style="font-family: 'Open Sans', verdana, arial, sans-serif; font-size: 12px; fill: rgb(42, 63, 95); fill-opacity: 1; white-space: pre;">NAPRT</text></g><g class="xtick"><text text-anchor="start" x="0" y="508" transform="translate(211.6,0) rotate(90,0,502)" style="font-family: 'Open Sans', verdana, arial, sans-serif; font-size: 12px; fill: rgb(42, 63, 95); fill-opacity: 1; white-space: pre;">blast18</text></g><g class="xtick"><text text-anchor="start" x="0" y="508" transform="translate(230.4,0) rotate(90,0,502)" style="font-family: 'Open Sans', verdana, arial, sans-serif; font-size: 12px; fill: rgb(42, 63, 95); fill-opacity: 1; white-space: pre;">CLEC3A</text></g><g class="xtick"><text text-anchor="start" x="0" y="508" transform="translate(249.2,0) rotate(90,0,502)" style="font-family: 'Open Sans', verdana, arial, sans-serif; font-size: 12px; fill: rgb(42, 63, 95); fill-opacity: 1; white-space: pre;">SFRP2</text></g><g class="xtick"><text text-anchor="start" x="0" y="508" transform="translate(268,0) rotate(90,0,502)" style="font-family: 'Open Sans', verdana, arial, sans-serif; font-size: 12px; fill: rgb(42, 63, 95); fill-opacity: 1; white-space: pre;">PDK4</text></g><g class="xtick"><text text-anchor="start" x="0" y="508" transform="translate(286.8,0) rotate(90,0,502)" style="font-family: 'Open Sans', verdana, arial, sans-serif; font-size: 12px; fill: rgb(42, 63, 95); fill-opacity: 1; white-space: pre;">OVCH2</text></g><g class="xtick"><text text-anchor="start" x="0" y="508" transform="translate(305.6,0) rotate(90,0,502)" style="font-family: 'Open Sans', verdana, arial, sans-serif; font-size: 12px; fill: rgb(42, 63, 95); fill-opacity: 1; white-space: pre;">DLEU7</text></g><g class="xtick"><text text-anchor="start" x="0" y="508" transform="translate(324.4,0) rotate(90,0,502)" style="font-family: 'Open Sans', verdana, arial, sans-serif; font-size: 12px; fill: rgb(42, 63, 95); fill-opacity: 1; white-space: pre;">NAA60</text></g><g class="xtick"><text text-anchor="start" x="0" y="508" transform="translate(343.2,0) rotate(90,0,502)" style="font-family: 'Open Sans', verdana, arial, sans-serif; font-size: 12px; fill: rgb(42, 63, 95); fill-opacity: 1; white-space: pre;">CYP24A1</text></g><g class="xtick"><text text-anchor="start" x="0" y="508" transform="translate(362,0) rotate(90,0,502)" style="font-family: 'Open Sans', verdana, arial, sans-serif; font-size: 12px; fill: rgb(42, 63, 95); fill-opacity: 1; white-space: pre;">SIAH1</text></g><g class="xtick"><text text-anchor="start" x="0" y="508" transform="translate(380.8,0) rotate(90,0,502)" style="font-family: 'Open Sans', verdana, arial, sans-serif; font-size: 12px; fill: rgb(42, 63, 95); fill-opacity: 1; white-space: pre;">PKIA</text></g><g class="xtick"><text text-anchor="start" x="0" y="508" transform="translate(399.6,0) rotate(90,0,502)" style="font-family: 'Open Sans', verdana, arial, sans-serif; font-size: 12px; fill: rgb(42, 63, 95); fill-opacity: 1; white-space: pre;">GDAP1L1</text></g><g class="xtick"><text text-anchor="start" x="0" y="508" transform="translate(418.4,0) rotate(90,0,502)" style="font-family: 'Open Sans', verdana, arial, sans-serif; font-size: 12px; fill: rgb(42, 63, 95); fill-opacity: 1; white-space: pre;">R3HCC1</text></g><g class="xtick"><text text-anchor="start" x="0" y="508" transform="translate(437.2,0) rotate(90,0,502)" style="font-family: 'Open Sans', verdana, arial, sans-serif; font-size: 12px; fill: rgb(42, 63, 95); fill-opacity: 1; white-space: pre;">MOCS1</text></g><g class="xtick"><text text-anchor="start" x="0" y="508" transform="translate(456,0) rotate(90,0,502)" style="font-family: 'Open Sans', verdana, arial, sans-serif; font-size: 12px; fill: rgb(42, 63, 95); fill-opacity: 1; white-space: pre;">SH3BP2</text></g><g class="xtick"><text text-anchor="start" x="0" y="508" transform="translate(474.8,0) rotate(90,0,502)" style="font-family: 'Open Sans', verdana, arial, sans-serif; font-size: 12px; fill: rgb(42, 63, 95); fill-opacity: 1; white-space: pre;">PDPR</text></g><g class="xtick"><text text-anchor="start" x="0" y="508" transform="translate(493.6,0) rotate(90,0,502)" style="font-family: 'Open Sans', verdana, arial, sans-serif; font-size: 12px; fill: rgb(42, 63, 95); fill-opacity: 1; white-space: pre;">DENND3</text></g><g class="xtick"><text text-anchor="start" x="0" y="508" transform="translate(512.4,0) rotate(90,0,502)" style="font-family: 'Open Sans', verdana, arial, sans-serif; font-size: 12px; fill: rgb(42, 63, 95); fill-opacity: 1; white-space: pre;">GPR1</text></g><g class="xtick"><text text-anchor="start" x="0" y="508" transform="translate(531.2,0) rotate(90,0,502)" style="font-family: 'Open Sans', verdana, arial, sans-serif; font-size: 12px; fill: rgb(42, 63, 95); fill-opacity: 1; white-space: pre;">ACOT11</text></g><g class="xtick"><text text-anchor="start" x="0" y="508" transform="translate(550,0) rotate(90,0,502)" style="font-family: 'Open Sans', verdana, arial, sans-serif; font-size: 12px; fill: rgb(42, 63, 95); fill-opacity: 1; white-space: pre;">blast27</text></g><g class="xtick"><text text-anchor="start" x="0" y="508" transform="translate(568.8,0) rotate(90,0,502)" style="font-family: 'Open Sans', verdana, arial, sans-serif; font-size: 12px; fill: rgb(42, 63, 95); fill-opacity: 1; white-space: pre;">AGBL3</text></g><g class="xtick"><text text-anchor="start" x="0" y="508" transform="translate(587.6,0) rotate(90,0,502)" style="font-family: 'Open Sans', verdana, arial, sans-serif; font-size: 12px; fill: rgb(42, 63, 95); fill-opacity: 1; white-space: pre;">WIF1</text></g><g class="xtick"><text text-anchor="start" x="0" y="508" transform="translate(606.4,0) rotate(90,0,502)" style="font-family: 'Open Sans', verdana, arial, sans-serif; font-size: 12px; fill: rgb(42, 63, 95); fill-opacity: 1; white-space: pre;">INPP5F</text></g><g class="xtick"><text text-anchor="start" x="0" y="508" transform="translate(625.2,0) rotate(90,0,502)" style="font-family: 'Open Sans', verdana, arial, sans-serif; font-size: 12px; fill: rgb(42, 63, 95); fill-opacity: 1; white-space: pre;">CALCR</text></g><g class="xtick"><text text-anchor="start" x="0" y="508" transform="translate(644,0) rotate(90,0,502)" style="font-family: 'Open Sans', verdana, arial, sans-serif; font-size: 12px; fill: rgb(42, 63, 95); fill-opacity: 1; white-space: pre;">ZHX3</text></g><g class="xtick"><text text-anchor="start" x="0" y="508" transform="translate(662.8,0) rotate(90,0,502)" style="font-family: 'Open Sans', verdana, arial, sans-serif; font-size: 12px; fill: rgb(42, 63, 95); fill-opacity: 1; white-space: pre;">SPHKAP</text></g><g class="xtick"><text text-anchor="start" x="0" y="508" transform="translate(681.6,0) rotate(90,0,502)" style="font-family: 'Open Sans', verdana, arial, sans-serif; font-size: 12px; fill: rgb(42, 63, 95); fill-opacity: 1; white-space: pre;">SLC9A7</text></g><g class="xtick"><text text-anchor="start" x="0" y="508" transform="translate(700.4,0) rotate(90,0,502)" style="font-family: 'Open Sans', verdana, arial, sans-serif; font-size: 12px; fill: rgb(42, 63, 95); fill-opacity: 1; white-space: pre;">CACNA1C</text></g><g class="xtick"><text text-anchor="start" x="0" y="508" transform="translate(719.2,0) rotate(90,0,502)" style="font-family: 'Open Sans', verdana, arial, sans-serif; font-size: 12px; fill: rgb(42, 63, 95); fill-opacity: 1; white-space: pre;">OPCML</text></g><g class="xtick"><text text-anchor="start" x="0" y="508" transform="translate(738,0) rotate(90,0,502)" style="font-family: 'Open Sans', verdana, arial, sans-serif; font-size: 12px; fill: rgb(42, 63, 95); fill-opacity: 1; white-space: pre;">NTM</text></g><g class="xtick"><text text-anchor="start" x="0" y="508" transform="translate(756.8,0) rotate(90,0,502)" style="font-family: 'Open Sans', verdana, arial, sans-serif; font-size: 12px; fill: rgb(42, 63, 95); fill-opacity: 1; white-space: pre;">RAPGEF5</text></g><g class="xtick"><text text-anchor="start" x="0" y="508" transform="translate(775.6,0) rotate(90,0,502)" style="font-family: 'Open Sans', verdana, arial, sans-serif; font-size: 12px; fill: rgb(42, 63, 95); fill-opacity: 1; white-space: pre;">CACNA1E</text></g><g class="xtick"><text text-anchor="start" x="0" y="508" transform="translate(794.4,0) rotate(90,0,502)" style="font-family: 'Open Sans', verdana, arial, sans-serif; font-size: 12px; fill: rgb(42, 63, 95); fill-opacity: 1; white-space: pre;">PROSER2</text></g><g class="xtick"><text text-anchor="start" x="0" y="508" transform="translate(813.2,0) rotate(90,0,502)" style="font-family: 'Open Sans', verdana, arial, sans-serif; font-size: 12px; fill: rgb(42, 63, 95); fill-opacity: 1; white-space: pre;">GLIS3</text></g><g class="xtick"><text text-anchor="start" x="0" y="508" transform="translate(832,0) rotate(90,0,502)" style="font-family: 'Open Sans', verdana, arial, sans-serif; font-size: 12px; fill: rgb(42, 63, 95); fill-opacity: 1; white-space: pre;">GRID2</text></g><g class="xtick"><text text-anchor="start" x="0" y="508" transform="translate(850.8,0) rotate(90,0,502)" style="font-family: 'Open Sans', verdana, arial, sans-serif; font-size: 12px; fill: rgb(42, 63, 95); fill-opacity: 1; white-space: pre;">cluster2c</text></g></g><g class="yaxislayer-above"><g class="ytick"><text text-anchor="end" x="79" y="4.199999999999999" transform="translate(0,475.57)" style="font-family: 'Open Sans', verdana, arial, sans-serif; font-size: 12px; fill: rgb(42, 63, 95); fill-opacity: 1; white-space: pre;">0</text></g><g class="ytick"><text text-anchor="end" x="79" y="4.199999999999999" transform="translate(0,418.07)" style="font-family: 'Open Sans', verdana, arial, sans-serif; font-size: 12px; fill: rgb(42, 63, 95); fill-opacity: 1; white-space: pre;">10</text></g><g class="ytick"><text text-anchor="end" x="79" y="4.199999999999999" transform="translate(0,360.56)" style="font-family: 'Open Sans', verdana, arial, sans-serif; font-size: 12px; fill: rgb(42, 63, 95); fill-opacity: 1; white-space: pre;">20</text></g><g class="ytick"><text text-anchor="end" x="79" y="4.199999999999999" transform="translate(0,303.05)" style="font-family: 'Open Sans', verdana, arial, sans-serif; font-size: 12px; fill: rgb(42, 63, 95); fill-opacity: 1; white-space: pre;">30</text></g><g class="ytick"><text text-anchor="end" x="79" y="4.199999999999999" transform="translate(0,245.55)" style="font-family: 'Open Sans', verdana, arial, sans-serif; font-size: 12px; fill: rgb(42, 63, 95); fill-opacity: 1; white-space: pre;">40</text></g><g class="ytick"><text text-anchor="end" x="79" y="4.199999999999999" transform="translate(0,188.04000000000002)" style="font-family: 'Open Sans', verdana, arial, sans-serif; font-size: 12px; fill: rgb(42, 63, 95); fill-opacity: 1; white-space: pre;">50</text></g><g class="ytick"><text text-anchor="end" x="79" y="4.199999999999999" transform="translate(0,130.53)" style="font-family: 'Open Sans', verdana, arial, sans-serif; font-size: 12px; fill: rgb(42, 63, 95); fill-opacity: 1; white-space: pre;">60</text></g></g><g class="overaxes-above"><g class="xy2-x"/><g class="xy2-y"><g class="y2tick"><text text-anchor="start" x="851.8" y="4.199999999999999" transform="translate(0,463.84)" style="font-family: 'Open Sans', verdana, arial, sans-serif; font-size: 12px; fill: rgb(42, 63, 95); fill-opacity: 1; white-space: pre;">0.35</text></g><g class="y2tick"><text text-anchor="start" x="851.8" y="4.199999999999999" transform="translate(0,413.62)" style="font-family: 'Open Sans', verdana, arial, sans-serif; font-size: 12px; fill: rgb(42, 63, 95); fill-opacity: 1; white-space: pre;">0.4</text></g><g class="y2tick"><text text-anchor="start" x="851.8" y="4.199999999999999" transform="translate(0,363.39)" style="font-family: 'Open Sans', verdana, arial, sans-serif; font-size: 12px; fill: rgb(42, 63, 95); fill-opacity: 1; white-space: pre;">0.45</text></g><g class="y2tick"><text text-anchor="start" x="851.8" y="4.199999999999999" transform="translate(0,313.16999999999996)" style="font-family: 'Open Sans', verdana, arial, sans-serif; font-size: 12px; fill: rgb(42, 63, 95); fill-opacity: 1; white-space: pre;">0.5</text></g><g class="y2tick"><text text-anchor="start" x="851.8" y="4.199999999999999" transform="translate(0,262.95)" style="font-family: 'Open Sans', verdana, arial, sans-serif; font-size: 12px; fill: rgb(42, 63, 95); fill-opacity: 1; white-space: pre;">0.55</text></g><g class="y2tick"><text text-anchor="start" x="851.8" y="4.199999999999999" transform="translate(0,212.73000000000002)" style="font-family: 'Open Sans', verdana, arial, sans-serif; font-size: 12px; fill: rgb(42, 63, 95); fill-opacity: 1; white-space: pre;">0.6</text></g><g class="y2tick"><text text-anchor="start" x="851.8" y="4.199999999999999" transform="translate(0,162.51)" style="font-family: 'Open Sans', verdana, arial, sans-serif; font-size: 12px; fill: rgb(42, 63, 95); fill-opacity: 1; white-space: pre;">0.65</text></g><g class="y2tick"><text text-anchor="start" x="851.8" y="4.199999999999999" transform="translate(0,112.28)" style="font-family: 'Open Sans', verdana, arial, sans-serif; font-size: 12px; fill: rgb(42, 63, 95); fill-opacity: 1; white-space: pre;">0.7</text></g></g></g></g><g class="subplot xy2"/></g><g class="polarlayer"/><g class="ternarylayer"/><g class="geolayer"/><g class="funnelarealayer"/><g class="pielayer"/><g class="treemaplayer"/><g class="sunburstlayer"/><g class="glimages"/><defs id="topdefs-85b5e8"><g class="clips"/><clipPath id="legend85b5e8"><rect width="172" height="200" x="0" y="0"/></clipPath></defs><g class="layer-above"><g class="imagelayer"/><g class="shapelayer"/></g><g class="infolayer"><g class="legend" pointer-events="all" transform="translate(916.4,100)"><rect class="bg" shape-rendering="crispEdges" style="stroke: rgb(68, 68, 68); stroke-opacity: 1; fill: rgb(255, 255, 255); fill-opacity: 1; stroke-width: 0px;" width="172" height="200" x="0" y="0"/><g class="scrollbox" transform="" clip-path="url('#legend85b5e8')"><g class="groups"><g class="traces" transform="translate(0,14.5)" style="opacity: 1;"><text class="legendtext" text-anchor="start" x="40" y="4.680000000000001" style="font-family: 'Open Sans', verdana, arial, sans-serif; font-size: 12px; fill: rgb(42, 63, 95); fill-opacity: 1; white-space: pre;">FR35HJ3201702774</text><g class="layers" style="opacity: 1;"><g class="legendfill"/><g class="legendlines"><path class="js-line" d="M5,0h30" style="fill: none; stroke: rgb(99, 110, 250); stroke-opacity: 1; stroke-width: 2px;"/></g><g class="legendsymbols"><g class="legendpoints"/></g></g><rect class="legendtoggle" x="0" y="-9.5" width="166.78125" height="19" style="fill: rgb(0, 0, 0); fill-opacity: 0;"/></g><g class="traces" transform="translate(0,33.5)" style="opacity: 1;"><text class="legendtext" text-anchor="start" x="40" y="4.680000000000001" style="font-family: 'Open Sans', verdana, arial, sans-serif; font-size: 12px; fill: rgb(42, 63, 95); fill-opacity: 1; white-space: pre;">FR17MAG201814099</text><g class="layers" style="opacity: 1;"><g class="legendfill"/><g class="legendlines"><path class="js-line" d="M5,0h30" style="fill: none; stroke: rgb(239, 85, 59); stroke-opacity: 1; stroke-width: 2px;"/></g><g class="legendsymbols"><g class="legendpoints"/></g></g><rect class="legendtoggle" x="0" y="-9.5" width="166.78125" height="19" style="fill: rgb(0, 0, 0); fill-opacity: 0;"/></g><g class="traces" transform="translate(0,52.5)" style="opacity: 1;"><text class="legendtext" text-anchor="start" x="40" y="4.680000000000001" style="font-family: 'Open Sans', verdana, arial, sans-serif; font-size: 12px; fill: rgb(42, 63, 95); fill-opacity: 1; white-space: pre;">FR17MAG201814115</text><g class="layers" style="opacity: 1;"><g class="legendfill"/><g class="legendlines"><path class="js-line" d="M5,0h30" style="fill: none; stroke: rgb(0, 204, 150); stroke-opacity: 1; stroke-width: 2px;"/></g><g class="legendsymbols"><g class="legendpoints"/></g></g><rect class="legendtoggle" x="0" y="-9.5" width="166.78125" height="19" style="fill: rgb(0, 0, 0); fill-opacity: 0;"/></g><g class="traces" transform="translate(0,71.5)" style="opacity: 1;"><text class="legendtext" text-anchor="start" x="40" y="4.680000000000001" style="font-family: 'Open Sans', verdana, arial, sans-serif; font-size: 12px; fill: rgb(42, 63, 95); fill-opacity: 1; white-space: pre;">FR17MAG201814130</text><g class="layers" style="opacity: 1;"><g class="legendfill"/><g class="legendlines"><path class="js-line" d="M5,0h30" style="fill: none; stroke: rgb(171, 99, 250); stroke-opacity: 1; stroke-width: 2px;"/></g><g class="legendsymbols"><g class="legendpoints"/></g></g><rect class="legendtoggle" x="0" y="-9.5" width="166.78125" height="19" style="fill: rgb(0, 0, 0); fill-opacity: 0;"/></g><g class="traces" transform="translate(0,90.5)" style="opacity: 1;"><text class="legendtext" text-anchor="start" x="40" y="4.680000000000001" style="font-family: 'Open Sans', verdana, arial, sans-serif; font-size: 12px; fill: rgb(42, 63, 95); fill-opacity: 1; white-space: pre;">FR17MAG201611897</text><g class="layers" style="opacity: 1;"><g class="legendfill"/><g class="legendlines"><path class="js-line" d="M5,0h30" style="fill: none; stroke: rgb(255, 161, 90); stroke-opacity: 1; stroke-width: 2px;"/></g><g class="legendsymbols"><g class="legendpoints"/></g></g><rect class="legendtoggle" x="0" y="-9.5" width="166.78125" height="19" style="fill: rgb(0, 0, 0); fill-opacity: 0;"/></g><g class="traces" transform="translate(0,109.5)" style="opacity: 1;"><text class="legendtext" text-anchor="start" x="40" y="4.680000000000001" style="font-family: 'Open Sans', verdana, arial, sans-serif; font-size: 12px; fill: rgb(42, 63, 95); fill-opacity: 1; white-space: pre;">FR17MAG201814095</text><g class="layers" style="opacity: 1;"><g class="legendfill"/><g class="legendlines"><path class="js-line" d="M5,0h30" style="fill: none; stroke: rgb(25, 211, 243); stroke-opacity: 1; stroke-width: 2px;"/></g><g class="legendsymbols"><g class="legendpoints"/></g></g><rect class="legendtoggle" x="0" y="-9.5" width="166.78125" height="19" style="fill: rgb(0, 0, 0); fill-opacity: 0;"/></g><g class="traces" transform="translate(0,128.5)" style="opacity: 1;"><text class="legendtext" text-anchor="start" x="40" y="4.680000000000001" style="font-family: 'Open Sans', verdana, arial, sans-serif; font-size: 12px; fill: rgb(42, 63, 95); fill-opacity: 1; white-space: pre;">FR17MAG201613767</text><g class="layers" style="opacity: 1;"><g class="legendfill"/><g class="legendlines"><path class="js-line" d="M5,0h30" style="fill: none; stroke: rgb(255, 102, 146); stroke-opacity: 1; stroke-width: 2px;"/></g><g class="legendsymbols"><g class="legendpoints"/></g></g><rect class="legendtoggle" x="0" y="-9.5" width="166.78125" height="19" style="fill: rgb(0, 0, 0); fill-opacity: 0;"/></g><g class="traces" transform="translate(0,147.5)" style="opacity: 1;"><text class="legendtext" text-anchor="start" x="40" y="4.680000000000001" style="font-family: 'Open Sans', verdana, arial, sans-serif; font-size: 12px; fill: rgb(42, 63, 95); fill-opacity: 1; white-space: pre;">FR17MAG201513026</text><g class="layers" style="opacity: 1;"><g class="legendfill"/><g class="legendlines"><path class="js-line" d="M5,0h30" style="fill: none; stroke: rgb(182, 232, 128); stroke-opacity: 1; stroke-width: 2px;"/></g><g class="legendsymbols"><g class="legendpoints"/></g></g><rect class="legendtoggle" x="0" y="-9.5" width="166.78125" height="19" style="fill: rgb(0, 0, 0); fill-opacity: 0;"/></g><g class="traces" transform="translate(0,166.5)" style="opacity: 1;"><text class="legendtext" text-anchor="start" x="40" y="4.680000000000001" style="font-family: 'Open Sans', verdana, arial, sans-serif; font-size: 12px; fill: rgb(42, 63, 95); fill-opacity: 1; white-space: pre;">Mean</text><g class="layers" style="opacity: 1;"><g class="legendfill"/><g class="legendlines"><path class="js-line" d="M5,0h30" style="fill: none; stroke: rgb(255, 151, 255); stroke-opacity: 1; stroke-width: 2px;"/></g><g class="legendsymbols"><g class="legendpoints"/></g></g><rect class="legendtoggle" x="0" y="-9.5" width="166.78125" height="19" style="fill: rgb(0, 0, 0); fill-opacity: 0;"/></g><g class="traces" transform="translate(0,185.5)" style="opacity: 1;"><text class="legendtext" text-anchor="start" x="40" y="4.680000000000001" style="font-family: 'Open Sans', verdana, arial, sans-serif; font-size: 12px; fill: rgb(42, 63, 95); fill-opacity: 1; white-space: pre;">GC rate</text><g class="layers" style="opacity: 1;"><g class="legendfill"/><g class="legendlines"><path class="js-line" d="M5,0h30" style="fill: none; stroke: rgb(128, 128, 128); stroke-opacity: 1; stroke-width: 2px;"/></g><g class="legendsymbols"><g class="legendpoints"/></g></g><rect class="legendtoggle" x="0" y="-9.5" width="166.78125" height="19" style="fill: rgb(0, 0, 0); fill-opacity: 0;"/></g></g></g><rect class="scrollbar" rx="20" ry="3" width="0" height="0" style="fill: rgb(128, 139, 164); fill-opacity: 1;" x="0" y="0"/></g><g class="g-gtitle"><text class="gtitle" x="55" y="50" text-anchor="start" dy="0em" style="font-family: 'Open Sans', verdana, arial, sans-serif; font-size: 17px; fill: rgb(42, 63, 95); opacity: 1; font-weight: normal; white-space: pre;">Mean depth per region for twist1</text></g><g class="g-xtitle"><text class="xtitle" x="465.4" y="587.784375" text-anchor="middle" style="font-family: 'Open Sans', verdana, arial, sans-serif; font-size: 14px; fill: rgb(42, 63, 95); opacity: 1; font-weight: normal; white-space: pre;">Expected region</text></g><g class="g-ytitle"><text class="ytitle" transform="rotate(-90,38.934375,297.5)" x="38.934375" y="297.5" text-anchor="middle" style="font-family: 'Open Sans', verdana, arial, sans-serif; font-size: 14px; fill: rgb(42, 63, 95); opacity: 1; font-weight: normal; white-space: pre;">Mean depth</text></g><g class="g-y2title"><text class="y2title" transform="rotate(-90,903.8625,297.5)" x="903.8625" y="297.5" text-anchor="middle" style="font-family: 'Open Sans', verdana, arial, sans-serif; font-size: 14px; fill: rgb(42, 63, 95); opacity: 1; font-weight: normal; white-space: pre;">GC %</text></g></g></svg>