<svg class="main-svg" xmlns="http://www.w3.org/2000/svg" xmlns:xlink="http://www.w3.org/1999/xlink" width="1100" height="600" style="" viewBox="0 0 1100 600"><rect x="0" y="0" width="1100" height="600" style="fill: rgb(255, 255, 255); fill-opacity: 1;"/><defs id="defs-f0dd73"><g class="clips"><clipPath id="clipf0dd73xyplot" class="plotclip"><rect width="770.8" height="395"/></clipPath><clipPath id="clipf0dd73xy2plot" class="plotclip"><rect width="770.8" height="395"/></clipPath><clipPath class="axesclip" id="clipf0dd73x"><rect x="80" y="0" width="770.8" height="600"/></clipPath><clipPath class="axesclip" id="clipf0dd73y"><rect x="0" y="100" width="1100" height="395"/></clipPath><clipPath class="axesclip" id="clipf0dd73xy"><rect x="80" y="100" width="770.8" height="395"/></clipPath><clipPath class="axesclip" id="clipf0dd73y2"><rect x="0" y="100" width="1100" height="395"/></clipPath><clipPath class="axesclip" id="clipf0dd73xy2"><rect x="80" y="100" width="770.8" height="395"/></clipPath></g><g class="gradients"/></defs><g class="bglayer"><rect class="bg" x="80" y="100" width="770.8" height="395" style="fill: rgb(229, 236, 246); fill-opacity: 1; stroke-width: 0;"/></g><g class="layer-below"><g class="imagelayer"/><g class="shapelayer"/></g><g class="cartesianlayer"><g class="subplot xy"><g class="layer-subplot"><g class="shapelayer"/><g class="imagelayer"/></g><g class="gridlayer"><g class="x"><path class="xgrid crisp" transform="translate(98.8,0)" d="M0,100v395" style="stroke: rgb(255, 255, 255); stroke-opacity: 1; stroke-width: 1px;"/><path class="xgrid crisp" transform="translate(117.6,0)" d="M0,100v395" style="stroke: rgb(255, 255, 255); stroke-opacity: 1; stroke-width: 1px;"/><path class="xgrid crisp" transform="translate(136.4,0)" d="M0,100v395" style="stroke: rgb(255, 255, 255); stroke-opacity: 1; stroke-width: 1px;"/><path class="xgrid crisp" transform="translate(155.2,0)" d="M0,100v395" style="stroke: rgb(255, 255, 255); stroke-opacity: 1; stroke-width: 1px;"/><path class="xgrid crisp" transform="translate(174,0)" d="M0,100v395" style="stroke: rgb(255, 255, 255); stroke-opacity: 1; stroke-width: 1px;"/><path class="xgrid crisp" transform="translate(192.8,0)" d="M0,100v395" style="stroke: rgb(255, 255, 255); stroke-opacity: 1; stroke-width: 1px;"/><path class="xgrid crisp" transform="translate(211.6,0)" d="M0,100v395" style="stroke: rgb(255, 255, 255); stroke-opacity: 1; stroke-width: 1px;"/><path class="xgrid crisp" transform="translate(230.4,0)" d="M0,100v395" style="stroke: rgb(255, 255, 255); stroke-opacity: 1; stroke-width: 1px;"/><path class="xgrid crisp" transform="translate(249.2,0)" d="M0,100v395" style="stroke: rgb(255, 255, 255); stroke-opacity: 1; stroke-width: 1px;"/><path class="xgrid crisp" transform="translate(268,0)" d="M0,100v395" style="stroke: rgb(255, 255, 255); stroke-opacity: 1; stroke-width: 1px;"/><path class="xgrid crisp" transform="translate(286.8,0)" d="M0,100v395" style="stroke: rgb(255, 255, 255); stroke-opacity: 1; stroke-width: 1px;"/><path class="xgrid crisp" transform="translate(305.6,0)" d="M0,100v395" style="stroke: rgb(255, 255, 255); stroke-opacity: 1; stroke-width: 1px;"/><path class="xgrid crisp" transform="translate(324.4,0)" d="M0,100v395" style="stroke: rgb(255, 255, 255); stroke-opacity: 1; stroke-width: 1px;"/><path class="xgrid crisp" transform="translate(343.2,0)" d="M0,100v395" style="stroke: rgb(255, 255, 255); stroke-opacity: 1; stroke-width: 1px;"/><path class="xgrid crisp" transform="translate(362,0)" d="M0,100v395" style="stroke: rgb(255, 255, 255); stroke-opacity: 1; stroke-width: 1px;"/><path class="xgrid crisp" transform="translate(380.8,0)" d="M0,100v395" style="stroke: rgb(255, 255, 255); stroke-opacity: 1; stroke-width: 1px;"/><path class="xgrid crisp" transform="translate(399.6,0)" d="M0,100v395" style="stroke: rgb(255, 255, 255); stroke-opacity: 1; stroke-width: 1px;"/><path class="xgrid crisp" transform="translate(418.4,0)" d="M0,100v395" style="stroke: rgb(255, 255, 255); stroke-opacity: 1; stroke-width: 1px;"/><path class="xgrid crisp" transform="translate(437.2,0)" d="M0,100v395" style="stroke: rgb(255, 255, 255); stroke-opacity: 1; stroke-width: 1px;"/><path class="xgrid crisp" transform="translate(456,0)" d="M0,100v395" style="stroke: rgb(255, 255, 255); stroke-opacity: 1; stroke-width: 1px;"/><path class="xgrid crisp" transform="translate(474.8,0)" d="M0,100v395" style="stroke: rgb(255, 255, 255); stroke-opacity: 1; stroke-width: 1px;"/><path class="xgrid crisp" transform="translate(493.6,0)" d="M0,100v395" style="stroke: rgb(255, 255, 255); stroke-opacity: 1; stroke-width: 1px;"/><path class="xgrid crisp" transform="translate(512.4,0)" d="M0,100v395" style="stroke: rgb(255, 255, 255); stroke-opacity: 1; stroke-width: 1px;"/><path class="xgrid crisp" transform="translate(531.2,0)" d="M0,100v395" style="stroke: rgb(255, 255, 255); stroke-opacity: 1; stroke-width: 1px;"/><path class="xgrid crisp" transform="translate(550,0)" d="M0,100v395" style="stroke: rgb(255, 255, 255); stroke-opacity: 1; stroke-width: 1px;"/><path class="xgrid crisp" transform="translate(568.8,0)" d="M0,100v395" style="stroke: rgb(255, 255, 255); stroke-opacity: 1; stroke-width: 1px;"/><path class="xgrid crisp" transform="translate(587.6,0)" d="M0,100v395" style="stroke: rgb(255, 255, 255); stroke-opacity: 1; stroke-width: 1px;"/><path class="xgrid crisp" transform="translate(606.4,0)" d="M0,100v395" style="stroke: rgb(255, 255, 255); stroke-opacity: 1; stroke-width: 1px;"/><path class="xgrid crisp" transform="translate(625.2,0)" d="M0,100v395" style="stroke: rgb(255, 255, 255); stroke-opacity: 1; stroke-width: 1px;"/><path class="xgrid crisp" transform="translate(644,0)" d="M0,100v395" style="stroke: rgb(255, 255, 255); stroke-opacity: 1; stroke-width: 1px;"/><path class="xgrid crisp" transform="translate(662.8,0)" d="M0,100v395" style="stroke: rgb(255, 255, 255); stroke-opacity: 1; stroke-width: 1px;"/><path class="xgrid crisp" transform="translate(681.6,0)" d="M0,100v395" style="stroke: rgb(255, 255, 255); stroke-opacity: 1; stroke-width: 1px;"/><path class="xgrid crisp" transform="translate(700.4,0)" d="M0,100v395" style="stroke: rgb(255, 255, 255); stroke-opacity: 1; stroke-width: 1px;"/><path class="xgrid crisp" transform="translate(719.2,0)" d="M0,100v395" style="stroke: rgb(255, 255, 255); stroke-opacity: 1; stroke-width: 1px;"/><path class="xgrid crisp" transform="translate(738,0)" d="M0,100v395" style="stroke: rgb(255, 255, 255); stroke-opacity: 1; stroke-width: 1px;"/><path class="xgrid crisp" transform="translate(756.8,0)" d="M0,100v395" style="stroke: rgb(255, 255, 255); stroke-opacity: 1; stroke-width: 1px;"/><path class="xgrid crisp" transform="translate(775.6,0)" d="M0,100v395" style="stroke: rgb(255, 255, 255); stroke-opacity: 1; stroke-width: 1px;"/><path class="xgrid crisp" transform="translate(794.4,0)" d="M0,100v395" style="stroke: rgb(255, 255, 255); stroke-opacity: 1; stroke-width: 1px;"/><path class="xgrid crisp" transform="translate(813.2,0)" d="M0,100v395" style="stroke: rgb(255, 255, 255); stroke-opacity: 1; stroke-width: 1px;"/><path class="xgrid crisp" transform="translate(832,0)" d="M0,100v395" style="stroke: rgb(255, 255, 255); stroke-opacity: 1; stroke-width: 1px;"/></g><g class="y"><path class="ygrid crisp" transform="translate(0,406.18)" d="M80,0h770.8" style="stroke: rgb(255, 255, 255); stroke-opacity: 1; stroke-width: 1px;"/><path class="ygrid crisp" transform="translate(0,319.13)" d="M80,0h770.8" style="stroke: rgb(255, 255, 255); stroke-opacity: 1; stroke-width: 1px;"/><path class="ygrid crisp" transform="translate(0,232.07)" d="M80,0h770.8" style="stroke: rgb(255, 255, 255); stroke-opacity: 1; stroke-width: 1px;"/><path class="ygrid crisp" transform="translate(0,145.02)" d="M80,0h770.8" style="stroke: rgb(255, 255, 255); stroke-opacity: 1; stroke-width: 1px;"/></g><g class="y2"><path class="y2grid crisp" transform="translate(0,463.84)" d="M80,0h770.8" style="stroke: rgb(255, 255, 255); stroke-opacity: 1; stroke-width: 1px;"/><path class="y2grid crisp" transform="translate(0,413.62)" d="M80,0h770.8" style="stroke: rgb(255, 255, 255); stroke-opacity: 1; stroke-width: 1px;"/><path class="y2grid crisp" transform="translate(0,363.39)" d="M80,0h770.8" style="stroke: rgb(255, 255, 255); stroke-opacity: 1; stroke-width: 1px;"/><path class="y2grid crisp" transform="translate(0,313.16999999999996)" d="M80,0h770.8" style="stroke: rgb(255, 255, 255); stroke-opacity: 1; stroke-width: 1px;"/><path class="y2grid crisp" transform="translate(0,262.95)" d="M80,0h770.8" style="stroke: rgb(255, 255, 255); stroke-opacity: 1; stroke-width: 1px;"/><path class="y2grid crisp" transform="translate(0,212.73000000000002)" d="M80,0h770.8" style="stroke: rgb(255, 255, 255); stroke-opacity: 1; stroke-width: 1px;"/><path class="y2grid crisp" transform="translate(0,162.51)" d="M80,0h770.8" style="stroke: rgb(255, 255, 255); stroke-opacity: 1; stroke-width: 1px;"/><path class="y2grid crisp" transform="translate(0,112.28)" d="M80,0h770.8" style="stroke: rgb(255, 255, 255); stroke-opacity: 1; stroke-width: 1px;"/></g></g><g class="zerolinelayer"><path class="yzl zl crisp" transform="translate(0,493.23)" d="M80,0h770.8" style="stroke: rgb(255, 255, 255); stroke-opacity: 1; stroke-width: 2px;"/></g><path class="xlines-below"/><path class="ylines-below"/><g class="overlines-below"><path class="xy2-x"/><path class="xy2-y"/></g><g class="xaxislayer-below"/><g class="yaxislayer-below"/><g class="overaxes-below"><g class="xy2-x"/><g class="xy2-y"/></g><g class="plot" transform="translate(80,100)" clip-path="url('#clipf0dd73xyplot')"><g class="scatterlayer mlayer"><g class="trace scatter tracee8d559" style="stroke-miterlimit: 2; opacity: 1;"><g class="fills"/><g class="errorbars"/><g class="lines"><path class="js-line" d="M0,375.25L4.7,295.17L9.4,337.4L14.1,291.83L18.8,179.83L23.5,360.35L28.2,358.59L32.9,350.75L37.6,306.36L42.3,340.81L47,227.08L51.7,173.65L56.4,272.02L61.1,365.24L65.8,310.66L70.5,341.8L75.2,158.76L79.9,298.93L84.6,316.05L89.3,342.16L94,272.02L98.7,288.97L103.4,247.75L108.1,234.76L112.8,356.56L117.5,241.15L122.2,265.4L126.9,208.92L131.6,295.56L136.3,279.98L141,328.31L145.7,215.69L150.4,274.1L155.1,282.46L159.8,270.67L164.5,331.11L169.2,232.88L173.9,305.27L178.6,314.85L183.3,209.46L188,221.66L192.7,274.01L197.4,300.49L202.1,260.58L206.8,256.1L211.5,245.21L216.2,297.25L220.9,257.35L225.6,245.05L230.3,273.71L235,251.4L239.7,301.5L244.4,296.58L249.1,279.45L253.8,312.83L258.5,309.66L263.2,261.6L267.9,257.95L272.6,301.33L277.3,291.31L282,225.3L286.7,238.58L291.4,264.85L296.1,281.35L300.8,267.8L305.5,209.37L310.2,279.19L314.9,254.15L319.6,254.13L324.3,218.58L329,262.79L333.7,286.1L338.4,339.71L343.1,275.64L347.8,264.74L352.5,291.05L357.2,299.01L361.9,280.98L366.6,287.95L371.3,273.32L376,339.76L380.7,306.53L385.4,305.36L390.1,259.89L394.8,288.63L399.5,286.05L404.2,252.81L408.9,230.89L413.6,293.22L418.3,274.88L423,296.13L427.7,196.61L432.4,232.14L437.1,334.33L441.8,335.05L446.5,270.05L451.2,322.31L455.9,271.67L460.6,252.53L465.3,225.94L470,243.02L474.7,254.07L479.4,302.48L484.1,300.14L488.8,276.4L493.5,273.55L498.2,297.2L502.9,273.58L507.6,279.19L512.3,320.69L517,275.46L521.7,301.85L526.4,262.48L531.1,270.34L535.8,267.68L540.5,252.54L545.2,229.67L549.9,279.61L554.6,256.63L559.3,272L564,257.88L568.7,251.24L573.4,277.29L578.1,279.35L582.8,265.58L587.5,309.05L592.2,280.58L596.9,298.72L601.6,283.39L606.3,299.72L611,248.62L615.7,270.92L620.4,278.18L625.1,265.14L629.8,259.55L634.5,272.64L639.2,249.65L643.9,263.5L648.6,240.63L653.3,255.76L658,245.89L662.7,301.89L667.4,266.65L672.1,307.34L676.8,245.35L681.5,274.01L686.2,261.08L690.9,277.61L695.6,249.66L700.3,279.47L705,253.27L709.7,248.8L714.4,266.19L719.1,249.26L723.8,263.96L728.5,244.24L733.2,238.56L737.9,271.58L742.6,252.56L747.3,234.88L752,257.83L756.7,324.87L761.4,282.9L766.1,258.92L770.8,243.8" style="vector-effect: non-scaling-stroke; fill: none; stroke: rgb(99, 110, 250); stroke-opacity: 1; stroke-width: 2px; opacity: 1;"/></g><g class="points"/><g class="text"/></g><g class="trace scatter tracec82d00" style="stroke-miterlimit: 2; opacity: 1;"><g class="fills"/><g class="errorbars"/><g class="lines"><path class="js-line" d="M0,338.22L4.7,290.67L9.4,298.46L14.1,289.7L18.8,95.42L23.5,321.52L28.2,347.4L32.9,336.81L37.6,291.5L42.3,330.73L47,212.16L51.7,133.25L56.4,237.54L61.1,332.51L65.8,277.48L70.5,340.26L75.2,129.39L79.9,271.06L84.6,308.48L89.3,349.1L94,275.65L98.7,265.81L103.4,235.76L108.1,211.36L112.8,358.83L117.5,186.64L122.2,242.36L126.9,227.37L131.6,277.17L136.3,260.86L141,315.82L145.7,169.86L150.4,254.57L155.1,253.8L159.8,269.54L164.5,317.42L169.2,214.94L173.9,286.61L178.6,303.62L183.3,187.95L188,199.92L192.7,265.69L197.4,271.41L202.1,218.37L206.8,242.57L211.5,245.9L216.2,281L220.9,217.04L225.6,240.99L230.3,258.52L235,250.24L239.7,302.43L244.4,286.57L249.1,259.45L253.8,292.76L258.5,306.01L263.2,252.53L267.9,241.68L272.6,288.93L277.3,272.93L282,203.67L286.7,211.44L291.4,239.43L296.1,247.58L300.8,243.9L305.5,187.31L310.2,257.71L314.9,227.57L319.6,250.11L324.3,188.46L329,242.13L333.7,273.15L338.4,324.32L343.1,269.77L347.8,239.33L352.5,270.7L357.2,283.9L361.9,266.1L366.6,272.04L371.3,252.77L376,331.22L380.7,297.77L385.4,292.36L390.1,250.31L394.8,270.56L399.5,272.94L404.2,236.79L408.9,220.83L413.6,291.57L418.3,253.36L423,272.56L427.7,142.67L432.4,211.13L437.1,329.24L441.8,310.63L446.5,265.56L451.2,313.66L455.9,251.98L460.6,226.13L465.3,211.3L470,224.21L474.7,237.83L479.4,286.07L484.1,288.02L488.8,255.35L493.5,253.4L498.2,286.6L502.9,257.99L507.6,255.42L512.3,304.95L517,263.64L521.7,290.1L526.4,245.59L531.1,247.21L535.8,250.67L540.5,237.46L545.2,198.98L549.9,276.56L554.6,238.45L559.3,249.5L564,236.52L568.7,236.17L573.4,266.21L578.1,252.21L582.8,242.6L587.5,296.86L592.2,265.67L596.9,277.77L601.6,323.56L606.3,287.23L611,219.72L615.7,252.09L620.4,268.32L625.1,245.9L629.8,238.51L634.5,249.98L639.2,232.43L643.9,248.08L648.6,199.16L653.3,227.67L658,225.95L662.7,282.77L667.4,250.26L672.1,287.64L676.8,219.31L681.5,257.68L686.2,234.11L690.9,251.29L695.6,223.1L700.3,264.55L705,227.27L709.7,237.38L714.4,241.73L719.1,215.82L723.8,236.66L728.5,234.92L733.2,213.54L737.9,260.36L742.6,228.84L747.3,218.67L752,229.69L756.7,315.46L761.4,265.42L770.8,220.53" style="vector-effect: non-scaling-stroke; fill: none; stroke: rgb(239, 85, 59); stroke-opacity: 1; stroke-width: 2px; opacity: 1;"/></g><g class="points"/><g class="text"/></g><g class="trace scatter trace94dfa3" style="stroke-miterlimit: 2; opacity: 1;"><g class="fills"/><g class="errorbars"/><g class="lines"><path class="js-line" d="M0,231.4L4.7,271.23L9.4,262.87L14.1,300.96L18.8,105.56L23.5,336.3L28.2,362.75L37.6,284.91L42.3,343.75L47,202.41L51.7,120.88L56.4,210.3L61.1,349.74L65.8,273.34L70.5,337.92L75.2,79.67L79.9,269.3L89.3,345.44L94,267.33L98.7,264.31L103.4,224.32L108.1,221.23L112.8,367.72L117.5,210.29L122.2,226.29L126.9,186.56L131.6,266.12L136.3,264.8L141,317.05L145.7,170.29L150.4,256.88L155.1,250.01L159.8,245.2L164.5,293.71L169.2,201.25L173.9,274.81L178.6,301.37L183.3,193.6L188,212.08L192.7,258.13L197.4,269.67L202.1,233.01L206.8,217.82L216.2,283.04L220.9,221.41L225.6,236.07L230.3,263.24L235,250.33L239.7,296.71L244.4,285.28L249.1,251.78L253.8,306.23L258.5,311.59L263.2,247.75L267.9,241.79L272.6,288.8L277.3,263.21L282,197.64L286.7,235.42L291.4,232.07L296.1,259.25L300.8,241.89L305.5,188.48L310.2,269.43L314.9,226.06L319.6,256.72L324.3,194.56L329,244.58L333.7,265.01L338.4,306.23L343.1,259.14L347.8,257.42L352.5,268.49L357.2,286.7L361.9,256.88L366.6,244.23L371.3,257.67L376,332.21L380.7,294.99L385.4,288.99L390.1,248.78L394.8,254.61L399.5,273.43L404.2,214.25L408.9,211.93L413.6,285.59L418.3,257.74L423,282.94L427.7,115.64L432.4,195.6L437.1,328.32L441.8,307.65L446.5,263.85L451.2,309.19L455.9,255.02L460.6,221.25L465.3,207.06L470,212.38L474.7,241.25L479.4,272.72L484.1,291.61L488.8,260.65L493.5,254.3L498.2,281.78L502.9,247.78L507.6,244.61L512.3,298.94L517,260.02L521.7,286.37L526.4,250.94L531.1,257.16L535.8,249.88L540.5,241.18L545.2,204.63L549.9,277.41L554.6,237.85L559.3,257.87L564,233.64L568.7,239.4L573.4,276.44L578.1,243.2L582.8,244.32L587.5,290.76L592.2,267.94L596.9,266.17L601.6,256.41L606.3,286.29L611,211.38L615.7,253L620.4,267.87L625.1,243.56L629.8,234.39L634.5,250.79L639.2,231.36L643.9,254.79L648.6,193.43L653.3,234L658,222.95L662.7,274.64L667.4,250.78L672.1,283.59L676.8,225.7L681.5,262.39L686.2,225.22L690.9,240.61L695.6,213.77L700.3,268.16L705,228.37L709.7,232.31L714.4,231.91L719.1,220.02L723.8,241.8L728.5,236.17L733.2,216.3L737.9,261.97L742.6,231.13L747.3,233.76L752,228.01L756.7,310L761.4,257.45L766.1,239.6L770.8,236.77" style="vector-effect: non-scaling-stroke; fill: none; stroke: rgb(0, 204, 150); stroke-opacity: 1; stroke-width: 2px; opacity: 1;"/></g><g class="points"/><g class="text"/></g><g class="trace scatter traceb320a9" style="stroke-miterlimit: 2; opacity: 1;"><g class="fills"/><g class="errorbars"/><g class="lines"><path class="js-line" d="M0,331.31L4.7,277.82L9.4,311.58L14.1,288.99L18.8,163.33L23.5,325.64L28.2,347.61L32.9,312.39L37.6,289.86L42.3,340.57L47,174L51.7,141.89L56.4,236.09L61.1,343.34L65.8,294.4L70.5,329.74L75.2,139.91L79.9,275.11L84.6,315.96L89.3,348.02L94,277.89L98.7,275.62L103.4,254.7L108.1,196.93L112.8,363.51L117.5,224.34L122.2,257L126.9,210.27L131.6,283.03L136.3,267.93L141,316.74L145.7,188.56L150.4,253.49L155.1,269.24L159.8,259.59L164.5,313.68L169.2,206.88L173.9,284.13L178.6,313.14L183.3,193.01L188,206.55L192.7,266.93L197.4,279.43L202.1,232.68L206.8,234.2L216.2,290.2L220.9,249.65L225.6,226.28L230.3,271.55L235,251.05L239.7,295.37L244.4,281.43L249.1,273.29L253.8,296.72L258.5,305.78L263.2,251.9L267.9,261.93L272.6,293.26L277.3,272.64L282,216.26L286.7,234.65L291.4,258.32L296.1,261.39L300.8,250.4L305.5,191.37L310.2,269.1L314.9,243.27L319.6,241.35L324.3,201.1L329,250.57L333.7,272.72L338.4,327.64L343.1,270.53L347.8,254.13L352.5,276.89L357.2,283.35L361.9,271.63L366.6,275.2L371.3,254.66L376,330.89L380.7,302.89L385.4,278.42L390.1,242.66L394.8,272.54L399.5,276.42L404.2,223.54L408.9,225.45L413.6,296.56L418.3,265.43L423,285.36L427.7,157.14L432.4,222.33L437.1,332.31L441.8,318.41L446.5,278.19L451.2,316.68L455.9,264.48L460.6,230.03L465.3,216.31L474.7,241.42L479.4,281.15L484.1,293.62L488.8,262.18L493.5,265.15L498.2,289.76L502.9,266.8L507.6,261.43L512.3,312.91L517,272.23L521.7,295.43L526.4,254.71L535.8,260.52L540.5,247.71L545.2,207.78L549.9,279.72L554.6,245.07L559.3,256.57L564,236.76L568.7,242.28L573.4,274.86L578.1,259.25L582.8,248.66L587.5,305.22L592.2,276.54L596.9,288.7L601.6,267.21L606.3,293.96L611,221.15L615.7,257.94L620.4,274.47L625.1,253.86L629.8,249.85L634.5,256.85L639.2,235.3L643.9,257.7L648.6,222.29L653.3,236.1L658,230.09L662.7,287.47L667.4,255.55L672.1,291.63L676.8,226.07L681.5,263.4L686.2,241.29L690.9,258.3L695.6,231.78L700.3,271.55L705,236.92L709.7,240.98L714.4,249.35L719.1,230.19L723.8,242.07L728.5,241.63L733.2,222.22L737.9,264.34L742.6,237.22L747.3,226.73L752,239.51L756.7,318.13L761.4,272.08L766.1,247.85L770.8,234.23" style="vector-effect: non-scaling-stroke; fill: none; stroke: rgb(171, 99, 250); stroke-opacity: 1; stroke-width: 2px; opacity: 1;"/></g><g class="points"/><g class="text"/></g><g class="trace scatter trace4608a5" style="stroke-miterlimit: 2; opacity: 1;"><g class="fills"/><g class="errorbars"/><g class="lines"><path class="js-line" d="M0,320.43L4.7,230.53L9.4,287.05L14.1,288.39L18.8,19.75L23.5,331.06L28.2,332.59L32.9,281.03L37.6,295.52L42.3,324.09L47,138.4L51.7,76.52L56.4,195.64L61.1,326.94L65.8,249.78L70.5,309.07L75.2,42.64L79.9,261.1L84.6,274.94L89.3,333.12L94,225.72L98.7,259.22L103.4,167.01L108.1,149.57L112.8,348.33L117.5,146.71L122.2,216.75L126.9,155.06L131.6,251.44L136.3,243.17L141,305.01L145.7,109.17L150.4,210.14L155.1,236.34L159.8,228.87L164.5,312.59L169.2,162.55L173.9,264.67L178.6,276.68L183.3,138.71L188,154.12L192.7,223.95L197.4,249.53L202.1,196.62L206.8,179.31L216.2,269.43L220.9,209.85L225.6,184.71L230.3,225.3L235,211.09L239.7,271.14L244.4,256.93L249.1,226.22L253.8,270.25L258.5,296.54L263.2,203.67L267.9,201.85L272.6,265.7L277.3,256.27L282,169.25L286.7,208.73L291.4,192.62L296.1,228.74L300.8,211.9L305.5,126.17L310.2,234.96L314.9,210.41L319.6,209.83L324.3,153.25L329,210.85L333.7,241.08L338.4,286.46L343.1,234.81L347.8,208.2L352.5,245.91L357.2,256.18L361.9,231.28L366.6,237.04L371.3,228.61L376,313.68L380.7,273.91L385.4,267.22L390.1,210.76L394.8,236.93L399.5,244.78L404.2,183.19L408.9,181L413.6,265.84L418.3,233.05L423,253.59L427.7,80.39L432.4,176.49L437.1,312.75L441.8,290.8L446.5,239.74L451.2,296.78L455.9,221.03L460.6,185.78L465.3,177.7L470,181.53L474.7,201.49L479.4,250.69L484.1,264.85L488.8,237.45L493.5,224.49L498.2,262.44L502.9,221.78L507.6,221.85L512.3,285.95L517,231.13L521.7,263.21L526.4,222.65L531.1,216.4L535.8,217.96L540.5,207.24L545.2,158.22L549.9,243L554.6,204.98L559.3,224.63L564,201.02L568.7,203.63L573.4,239.51L578.1,244.28L582.8,199.53L587.5,270.91L592.2,235.32L596.9,254.29L601.6,320.85L606.3,263.07L611,183.98L615.7,223.81L620.4,239.29L625.1,215.11L629.8,203.89L634.5,220.42L639.2,196.44L643.9,221.04L648.6,159.82L653.3,207.97L658,187.53L662.7,259.39L667.4,217.2L672.1,265.92L676.8,185.31L681.5,230.12L686.2,202.18L690.9,221.03L695.6,186.63L700.3,234.18L705,195.53L709.7,194.24L714.4,209.36L719.1,185.82L723.8,213.13L728.5,197.88L733.2,174.38L737.9,231.35L742.6,195.3L747.3,184.71L752,197.14L756.7,296.34L761.4,236.04L766.1,207.78L770.8,180.01" style="vector-effect: non-scaling-stroke; fill: none; stroke: rgb(255, 161, 90); stroke-opacity: 1; stroke-width: 2px; opacity: 1;"/></g><g class="points"/><g class="text"/></g><g class="trace scatter trace1f4e05" style="stroke-miterlimit: 2; opacity: 1;"><g class="fills"/><g class="errorbars"/><g class="lines"><path class="js-line" d="M0,290.74L4.7,343.09L9.4,286.34L14.1,286.94L18.8,196.35L23.5,334.72L28.2,311.81L32.9,343.59L37.6,309.16L42.3,349.44L47,194.11L51.7,137.92L56.4,243.66L61.1,349.91L65.8,287.62L70.5,344.03L75.2,124.33L79.9,269.3L84.6,286.22L89.3,339.44L94,256.84L98.7,250.79L103.4,231.06L108.1,193.23L112.8,360.88L117.5,196.27L122.2,245.86L126.9,228.67L131.6,280.62L136.3,257.62L141,325.11L145.7,177.14L150.4,249.62L155.1,261.03L159.8,265.44L164.5,329.95L169.2,210.04L173.9,297.98L178.6,310.56L183.3,207.19L188,214.1L192.7,272.43L197.4,268.52L202.1,233.86L206.8,221.16L216.2,280.61L220.9,245.25L225.6,243.49L230.3,246.87L235,258.07L239.7,295.07L244.4,285.42L249.1,272.62L253.8,290.07L258.5,304.55L263.2,255.14L267.9,233.94L272.6,285.73L277.3,285.78L282,219.68L286.7,235.09L291.4,241.83L296.1,260L300.8,256.18L305.5,195.69L310.2,275.99L314.9,241.36L319.6,248.02L324.3,203.54L329,251.97L333.7,274.2L338.4,314.17L343.1,265.24L347.8,244.79L352.5,274.16L357.2,281.77L361.9,266.44L366.6,288.87L371.3,251.92L376,336.67L380.7,304.49L385.4,284.59L390.1,253.52L394.8,275.86L399.5,283.12L404.2,227.35L408.9,221.19L413.6,290L418.3,258.21L423,269.02L427.7,153.22L432.4,215.6L437.1,330.8L441.8,312.77L446.5,268.15L451.2,315.58L455.9,254.04L460.6,239.96L465.3,218.03L470,224.46L474.7,243.07L479.4,276.87L484.1,289.67L488.8,262.42L493.5,261.59L498.2,287.01L502.9,260.47L507.6,261.65L512.3,315.66L517,259.84L521.7,288.06L526.4,261.72L531.1,262.77L535.8,260.05L540.5,244.91L545.2,215.54L549.9,269.28L554.6,249.37L559.3,259.75L564,237.29L568.7,237.68L573.4,271.49L578.1,273.65L582.8,244.23L587.5,298.82L592.2,277.57L596.9,284.7L601.6,333.07L606.3,294.07L611,233.36L615.7,258.36L620.4,272.16L625.1,258.26L629.8,242.03L634.5,254.36L639.2,234.65L643.9,258.34L648.6,207.23L653.3,247.65L658,229.2L662.7,284.36L667.4,253.93L672.1,294.04L676.8,230.17L681.5,263.54L686.2,242.25L690.9,253.38L695.6,229.23L700.3,271.23L705,236.91L709.7,229.41L714.4,247.45L719.1,235.12L723.8,250.08L728.5,241.75L733.2,223.36L737.9,261.83L747.3,222.12L752,239.81L756.7,317.54L761.4,268.67L770.8,224.64" style="vector-effect: non-scaling-stroke; fill: none; stroke: rgb(25, 211, 243); stroke-opacity: 1; stroke-width: 2px; opacity: 1;"/></g><g class="points"/><g class="text"/></g><g class="trace scatter trace3b27fc" style="stroke-miterlimit: 2; opacity: 1;"><g class="fills"/><g class="errorbars"/><g class="lines"><path class="js-line" d="M0,327.09L4.7,275.24L9.4,329.9L14.1,279.48L18.8,99.51L23.5,322.77L28.2,328.36L32.9,286.23L37.6,287.46L42.3,342.8L47,180.02L51.7,86.9L56.4,220.99L61.1,358.18L65.8,268.06L70.5,337.98L75.2,146.49L79.9,263.46L84.6,290.19L89.3,342.33L94,278.36L98.7,270.88L103.4,225.32L108.1,204.71L112.8,362.56L117.5,203.99L122.2,242.52L126.9,208.19L131.6,287.68L136.3,250.24L141,320.2L145.7,173.8L150.4,253.15L155.1,256.12L159.8,265.93L164.5,311L169.2,198.48L173.9,281.94L178.6,312.09L183.3,181.18L188,188.46L192.7,258.03L197.4,280.73L202.1,227.56L206.8,254.3L211.5,259.91L216.2,280.04L220.9,209.18L225.6,238.22L230.3,244.53L235,222.1L239.7,291.57L244.4,288.72L249.1,260.28L253.8,291.26L258.5,301.78L263.2,243.43L267.9,227.28L272.6,293.11L277.3,272.82L282,198.68L286.7,211.22L291.4,248.37L296.1,256.52L300.8,242.77L305.5,186.16L310.2,265.6L314.9,245.36L319.6,238.55L324.3,168.21L329,253.09L333.7,273.33L338.4,322.73L343.1,255.82L347.8,236.66L352.5,278.79L357.2,276.9L361.9,269.05L366.6,276.43L371.3,248.6L376,330.53L380.7,295.91L385.4,289.9L390.1,236.1L394.8,277.75L399.5,270.79L404.2,211.81L408.9,215.55L413.6,275.2L418.3,258.85L423,280L427.7,161.07L432.4,219.13L437.1,327.65L441.8,323.94L446.5,255.71L451.2,318.03L455.9,248.61L460.6,234.42L465.3,199.68L470,230.32L474.7,234.21L479.4,288.48L484.1,285.88L488.8,259L493.5,252.87L498.2,283.21L502.9,254.52L507.6,256.4L512.3,311.57L517,261.66L521.7,289.97L526.4,243.8L531.1,247.42L535.8,243.78L540.5,229.5L545.2,192.21L549.9,269.11L554.6,241.22L559.3,250.78L564,233.12L568.7,230.36L573.4,255.86L578.1,265.63L582.8,239.6L587.5,300.86L592.2,265.23L596.9,289.44L601.6,327.94L606.3,289.77L611,225.4L615.7,247.97L620.4,264.29L625.1,243.01L629.8,238.67L634.5,252.08L639.2,228.88L643.9,243.99L648.6,217.58L653.3,222.7L658,220.4L662.7,285.95L667.4,245.42L672.1,290.19L676.8,222.78L681.5,250.75L686.2,243.87L690.9,262.03L695.6,232.47L700.3,257.38L705,229.15L709.7,233.31L714.4,250.69L719.1,214.83L723.8,233.02L728.5,224.53L733.2,211.61L737.9,252.32L742.6,230.14L747.3,209.46L752,235.16L756.7,315.23L761.4,267.89L766.1,239.11L770.8,219.88" style="vector-effect: non-scaling-stroke; fill: none; stroke: rgb(255, 102, 146); stroke-opacity: 1; stroke-width: 2px; opacity: 1;"/></g><g class="points"/><g class="text"/></g><g class="trace scatter tracef7f5c6" style="stroke-miterlimit: 2; opacity: 1;"><g class="fills"/><g class="errorbars"/><g class="lines"><path class="js-line" d="M0,316.35L4.7,283.39L9.4,301.94L14.1,289.47L18.8,122.82L23.5,333.2L28.2,341.3L37.6,294.97L42.3,338.88L47,189.74L51.7,124.43L61.1,346.55L65.8,280.19L70.5,334.4L75.2,117.31L79.9,272.61L84.6,299.49L89.3,342.8L94,264.83L98.7,267.94L103.4,226.56L108.1,201.68L112.8,359.77L117.5,201.34L122.2,242.31L126.9,203.58L131.6,277.38L136.3,260.66L141,318.32L145.7,172.07L150.4,250.28L155.1,258.43L159.8,257.89L164.5,315.64L169.2,203.86L173.9,285.06L178.6,304.62L183.3,187.3L188,199.55L192.7,259.88L197.4,274.26L202.1,228.95L206.8,229.35L211.5,248.24L216.2,283.08L220.9,229.96L225.6,230.69L230.3,254.82L235,242.04L239.7,293.4L244.4,282.99L249.1,260.44L253.8,294.3L258.5,305.13L263.2,245.15L267.9,238.06L272.6,288.12L277.3,273.57L282,204.35L286.7,225.02L291.4,239.64L296.1,256.4L300.8,244.98L305.5,183.51L310.2,264.57L314.9,235.45L319.6,242.67L324.3,189.67L329,245.14L333.7,269.37L338.4,317.32L343.1,261.57L347.8,243.61L352.5,272.29L357.2,281.12L361.9,263.2L366.6,268.82L371.3,252.51L376,330.71L380.7,296.64L385.4,286.69L390.1,243.15L394.8,268.13L399.5,272.5L404.2,221.39L408.9,215.26L413.6,285.42L418.3,257.36L423,277.09L427.7,143.82L432.4,210.35L437.1,327.91L441.8,314.18L446.5,263.03L451.2,313.18L455.9,252.4L460.6,227.16L465.3,208L470,220.56L474.7,236.19L479.4,279.78L484.1,287.69L488.8,259.07L493.5,255.05L498.2,284L502.9,254.7L507.6,254.36L512.3,307.24L517,260.57L521.7,287.86L526.4,248.84L531.1,251.27L535.8,250.08L540.5,237.22L545.2,201L549.9,270.67L554.6,239.08L559.3,253.01L564,233.75L568.7,234.4L573.4,265.95L578.1,259.65L582.8,240.65L587.5,296.07L592.2,266.98L596.9,279.97L601.6,301.78L606.3,287.73L611,220.52L615.7,252.01L620.4,266.37L625.1,246.4L629.8,238.13L634.5,251.02L639.2,229.81L643.9,249.63L648.6,205.73L653.3,233.12L658,223.14L662.7,282.35L667.4,248.54L672.1,288.62L676.8,222.1L681.5,257.41L686.2,235.72L690.9,252.03L695.6,223.81L700.3,263.79L705,229.63L709.7,230.92L714.4,242.38L719.1,221.58L723.8,240.1L728.5,231.59L733.2,214.28L737.9,257.68L742.6,231.04L747.3,218.62L752,232.45L756.7,313.94L761.4,264.35L766.1,240.05L770.8,222.84" style="vector-effect: non-scaling-stroke; fill: none; stroke: rgb(182, 232, 128); stroke-opacity: 1; stroke-width: 2px; opacity: 1;"/></g><g class="points"/><g class="text"/></g></g></g><g class="overplot"><g class="xy2" transform="translate(80,100)" clip-path="url('#clipf0dd73xy2plot')"><g class="scatterlayer mlayer"><g class="trace scatter tracec9bf90" style="stroke-miterlimit: 2; opacity: 1;"><g class="fills"/><g class="errorbars"/><g class="lines"><path class="js-line" d="M0,149.57L4.7,116.66L9.4,167.18L14.1,229.84L18.8,179.45L23.5,99.92L28.2,74L32.9,98.82L37.6,117.35L42.3,104.44L47,296.4L51.7,163.65L56.4,196.15L61.1,37.29L65.8,159.68L70.5,116.14L75.2,164.82L79.9,108.05L84.6,130.61L89.3,41.04L94,196.19L98.7,220.89L103.4,308.98L108.1,250.04L112.8,19.75L117.5,304.57L122.2,300.37L126.9,256.89L131.6,163.07L136.3,299.79L141,101.08L145.7,260.81L150.4,260.44L155.1,272.09L159.8,242.3L164.5,108.67L169.2,215.64L173.9,171.87L178.6,92.9L183.3,261.88L188,355.18L192.7,318.47L197.4,205.5L202.1,364.33L206.8,239.65L211.5,320.03L216.2,271.78L220.9,280.11L225.6,272.23L230.3,159.76L235,272.41L239.7,150.43L244.4,143.99L249.1,218.48L253.8,195.7L258.5,335.88L263.2,242.12L267.9,257.04L272.6,199.26L277.3,210.01L282,297.31L286.7,286.92L291.4,251.35L296.1,293.43L300.8,359.96L305.5,335.8L310.2,166.23L314.9,250.31L319.6,194.78L324.3,232.45L329,306.48L333.7,160.39L338.4,215.48L343.1,175.09L347.8,220.2L352.5,204.78L357.2,209.71L361.9,184.97L366.6,242.93L371.3,184.04L376,75.29L380.7,100.06L385.4,188.82L390.1,304.7L394.8,216.15L399.5,336.28L404.2,321.49L408.9,242.57L413.6,132.47L418.3,245.27L423,184.48L427.7,219.55L432.4,283.5L437.1,74.52L441.8,179.42L446.5,181.02L451.2,176.4L455.9,257.85L460.6,278.94L465.3,346.13L470,267.86L474.7,321.44L479.4,158.92L484.1,327.71L488.8,339.54L493.5,159.87L498.2,303.36L502.9,230.55L507.6,317.89L512.3,146.71L517,245.07L521.7,135.56L526.4,310L531.1,337.12L535.8,244.23L540.5,348.44L545.2,340.9L549.9,197.22L554.6,226.09L559.3,335.73L564,274.31L568.7,310.33L573.4,185.24L578.1,238.34L582.8,321.09L587.5,142.34L592.2,282.81L596.9,157.07L601.6,258.45L606.3,150.95L611,313.45L615.7,306.62L620.4,167.45L625.1,317.64L629.8,305.29L634.5,218.07L639.2,270.94L643.9,345.59L648.6,309.88L653.3,335.49L658,248.33L662.7,185.13L667.4,237.43L672.1,345.17L676.8,292.68L681.5,345.66L686.2,319.91L690.9,216.46L695.6,239.49L700.3,375.25L705,334.27L709.7,279.8L714.4,267.62L719.1,303.2L723.8,357.94L728.5,238.27L733.2,334.17L737.9,248.12L742.6,295.25L747.3,327.01L752,349.34L756.7,96.49L761.4,210.94L766.1,289.61L770.8,282.43" style="vector-effect: non-scaling-stroke; fill: none; stroke: rgb(128, 128, 128); stroke-opacity: 1; stroke-width: 2px; opacity: 1;"/></g><g class="points"/><g class="text"/></g></g></g></g><path class="xlines-above crisp" d="M0,0" style="fill: none;"/><path class="ylines-above crisp" d="M0,0" style="fill: none;"/><g class="overlines-above"><path class="xy2-x crisp" d="M0,0" style="fill: none;"/><path class="xy2-y crisp" d="M0,0" style="fill: none;"/></g><g class="xaxislayer-above"><g class="xtick"><text text-anchor="start" x="0" y="508" transform="translate(80,0) rotate(90,0,502)" style="font-family: 'Open Sans', verdana, arial, sans-serif; font-size: 12px; fill: rgb(42, 63, 95); fill-opacity: 1; white-space: pre;">blast30</text></g><g class="xtick"><text text-anchor="start" x="0" y="508" transform="translate(98.8,0) rotate(90,0,502)" style="font-family: 'Open Sans', verdana, arial, sans-serif; font-size: 12px; fill: rgb(42, 63, 95); fill-opacity: 1; white-space: pre;">RF02206</text></g><g class="xtick"><text text-anchor="start" x="0" y="508" transform="translate(117.6,0) rotate(90,0,502)" style="font-family: 'Open Sans', verdana, arial, sans-serif; font-size: 12px; fill: rgb(42, 63, 95); fill-opacity: 1; white-space: pre;">c7h6orf47</text></g><g class="xtick"><text text-anchor="start" x="0" y="508" transform="translate(136.4,0) rotate(90,0,502)" style="font-family: 'Open Sans', verdana, arial, sans-serif; font-size: 12px; fill: rgb(42, 63, 95); fill-opacity: 1; white-space: pre;">DIRAS3</text></g><g class="xtick"><text text-anchor="start" x="0" y="508" transform="translate(155.2,0) rotate(90,0,502)" style="font-family: 'Open Sans', verdana, arial, sans-serif; font-size: 12px; fill: rgb(42, 63, 95); fill-opacity: 1; white-space: pre;">blast13</text></g><g class="xtick"><text text-anchor="start" x="0" y="508" transform="translate(174,0) rotate(90,0,502)" style="font-family: 'Open Sans', verdana, arial, sans-serif; font-size: 12px; fill: rgb(42, 63, 95); fill-opacity: 1; white-space: pre;">blast19</text></g><g class="xtick"><text text-anchor="start" x="0" y="508" transform="translate(192.8,0) rotate(90,0,502)" style="font-family: 'Open Sans', verdana, arial, sans-serif; font-size: 12px; fill: rgb(42, 63, 95); fill-opacity: 1; white-space: pre;">NAPRT</text></g><g class="xtick"><text text-anchor="start" x="0" y="508" transform="translate(211.6,0) rotate(90,0,502)" style="font-family: 'Open Sans', verdana, arial, sans-serif; font-size: 12px; fill: rgb(42, 63, 95); fill-opacity: 1; white-space: pre;">blast18</text></g><g class="xtick"><text text-anchor="start" x="0" y="508" transform="translate(230.4,0) rotate(90,0,502)" style="font-family: 'Open Sans', verdana, arial, sans-serif; font-size: 12px; fill: rgb(42, 63, 95); fill-opacity: 1; white-space: pre;">CLEC3A</text></g><g class="xtick"><text text-anchor="start" x="0" y="508" transform="translate(249.2,0) rotate(90,0,502)" style="font-family: 'Open Sans', verdana, arial, sans-serif; font-size: 12px; fill: rgb(42, 63, 95); fill-opacity: 1; white-space: pre;">SFRP2</text></g><g class="xtick"><text text-anchor="start" x="0" y="508" transform="translate(268,0) rotate(90,0,502)" style="font-family: 'Open Sans', verdana, arial, sans-serif; font-size: 12px; fill: rgb(42, 63, 95); fill-opacity: 1; white-space: pre;">PDK4</text></g><g class="xtick"><text text-anchor="start" x="0" y="508" transform="translate(286.8,0) rotate(90,0,502)" style="font-family: 'Open Sans', verdana, arial, sans-serif; font-size: 12px; fill: rgb(42, 63, 95); fill-opacity: 1; white-space: pre;">OVCH2</text></g><g class="xtick"><text text-anchor="start" x="0" y="508" transform="translate(305.6,0) rotate(90,0,502)" style="font-family: 'Open Sans', verdana, arial, sans-serif; font-size: 12px; fill: rgb(42, 63, 95); fill-opacity: 1; white-space: pre;">DLEU7</text></g><g class="xtick"><text text-anchor="start" x="0" y="508" transform="translate(324.4,0) rotate(90,0,502)" style="font-family: 'Open Sans', verdana, arial, sans-serif; font-size: 12px; fill: rgb(42, 63, 95); fill-opacity: 1; white-space: pre;">NAA60</text></g><g class="xtick"><text text-anchor="start" x="0" y="508" transform="translate(343.2,0) rotate(90,0,502)" style="font-family: 'Open Sans', verdana, arial, sans-serif; font-size: 12px; fill: rgb(42, 63, 95); fill-opacity: 1; white-space: pre;">CYP24A1</text></g><g class="xtick"><text text-anchor="start" x="0" y="508" transform="translate(362,0) rotate(90,0,502)" style="font-family: 'Open Sans', verdana, arial, sans-serif; font-size: 12px; fill: rgb(42, 63, 95); fill-opacity: 1; white-space: pre;">SIAH1</text></g><g class="xtick"><text text-anchor="start" x="0" y="508" transform="translate(380.8,0) rotate(90,0,502)" style="font-family: 'Open Sans', verdana, arial, sans-serif; font-size: 12px; fill: rgb(42, 63, 95); fill-opacity: 1; white-space: pre;">PKIA</text></g><g class="xtick"><text text-anchor="start" x="0" y="508" transform="translate(399.6,0) rotate(90,0,502)" style="font-family: 'Open Sans', verdana, arial, sans-serif; font-size: 12px; fill: rgb(42, 63, 95); fill-opacity: 1; white-space: pre;">GDAP1L1</text></g><g class="xtick"><text text-anchor="start" x="0" y="508" transform="translate(418.4,0) rotate(90,0,502)" style="font-family: 'Open Sans', verdana, arial, sans-serif; font-size: 12px; fill: rgb(42, 63, 95); fill-opacity: 1; white-space: pre;">R3HCC1</text></g><g class="xtick"><text text-anchor="start" x="0" y="508" transform="translate(437.2,0) rotate(90,0,502)" style="font-family: 'Open Sans', verdana, arial, sans-serif; font-size: 12px; fill: rgb(42, 63, 95); fill-opacity: 1; white-space: pre;">MOCS1</text></g><g class="xtick"><text text-anchor="start" x="0" y="508" transform="translate(456,0) rotate(90,0,502)" style="font-family: 'Open Sans', verdana, arial, sans-serif; font-size: 12px; fill: rgb(42, 63, 95); fill-opacity: 1; white-space: pre;">SH3BP2</text></g><g class="xtick"><text text-anchor="start" x="0" y="508" transform="translate(474.8,0) rotate(90,0,502)" style="font-family: 'Open Sans', verdana, arial, sans-serif; font-size: 12px; fill: rgb(42, 63, 95); fill-opacity: 1; white-space: pre;">PDPR</text></g><g class="xtick"><text text-anchor="start" x="0" y="508" transform="translate(493.6,0) rotate(90,0,502)" style="font-family: 'Open Sans', verdana, arial, sans-serif; font-size: 12px; fill: rgb(42, 63, 95); fill-opacity: 1; white-space: pre;">DENND3</text></g><g class="xtick"><text text-anchor="start" x="0" y="508" transform="translate(512.4,0) rotate(90,0,502)" style="font-family: 'Open Sans', verdana, arial, sans-serif; font-size: 12px; fill: rgb(42, 63, 95); fill-opacity: 1; white-space: pre;">GPR1</text></g><g class="xtick"><text text-anchor="start" x="0" y="508" transform="translate(531.2,0) rotate(90,0,502)" style="font-family: 'Open Sans', verdana, arial, sans-serif; font-size: 12px; fill: rgb(42, 63, 95); fill-opacity: 1; white-space: pre;">ACOT11</text></g><g class="xtick"><text text-anchor="start" x="0" y="508" transform="translate(550,0) rotate(90,0,502)" style="font-family: 'Open Sans', verdana, arial, sans-serif; font-size: 12px; fill: rgb(42, 63, 95); fill-opacity: 1; white-space: pre;">blast27</text></g><g class="xtick"><text text-anchor="start" x="0" y="508" transform="translate(568.8,0) rotate(90,0,502)" style="font-family: 'Open Sans', verdana, arial, sans-serif; font-size: 12px; fill: rgb(42, 63, 95); fill-opacity: 1; white-space: pre;">AGBL3</text></g><g class="xtick"><text text-anchor="start" x="0" y="508" transform="translate(587.6,0) rotate(90,0,502)" style="font-family: 'Open Sans', verdana, arial, sans-serif; font-size: 12px; fill: rgb(42, 63, 95); fill-opacity: 1; white-space: pre;">WIF1</text></g><g class="xtick"><text text-anchor="start" x="0" y="508" transform="translate(606.4,0) rotate(90,0,502)" style="font-family: 'Open Sans', verdana, arial, sans-serif; font-size: 12px; fill: rgb(42, 63, 95); fill-opacity: 1; white-space: pre;">INPP5F</text></g><g class="xtick"><text text-anchor="start" x="0" y="508" transform="translate(625.2,0) rotate(90,0,502)" style="font-family: 'Open Sans', verdana, arial, sans-serif; font-size: 12px; fill: rgb(42, 63, 95); fill-opacity: 1; white-space: pre;">CALCR</text></g><g class="xtick"><text text-anchor="start" x="0" y="508" transform="translate(644,0) rotate(90,0,502)" style="font-family: 'Open Sans', verdana, arial, sans-serif; font-size: 12px; fill: rgb(42, 63, 95); fill-opacity: 1; white-space: pre;">ZHX3</text></g><g class="xtick"><text text-anchor="start" x="0" y="508" transform="translate(662.8,0) rotate(90,0,502)" style="font-family: 'Open Sans', verdana, arial, sans-serif; font-size: 12px; fill: rgb(42, 63, 95); fill-opacity: 1; white-space: pre;">SPHKAP</text></g><g class="xtick"><text text-anchor="start" x="0" y="508" transform="translate(681.6,0) rotate(90,0,502)" style="font-family: 'Open Sans', verdana, arial, sans-serif; font-size: 12px; fill: rgb(42, 63, 95); fill-opacity: 1; white-space: pre;">SLC9A7</text></g><g class="xtick"><text text-anchor="start" x="0" y="508" transform="translate(700.4,0) rotate(90,0,502)" style="font-family: 'Open Sans', verdana, arial, sans-serif; font-size: 12px; fill: rgb(42, 63, 95); fill-opacity: 1; white-space: pre;">CACNA1C</text></g><g class="xtick"><text text-anchor="start" x="0" y="508" transform="translate(719.2,0) rotate(90,0,502)" style="font-family: 'Open Sans', verdana, arial, sans-serif; font-size: 12px; fill: rgb(42, 63, 95); fill-opacity: 1; white-space: pre;">OPCML</text></g><g class="xtick"><text text-anchor="start" x="0" y="508" transform="translate(738,0) rotate(90,0,502)" style="font-family: 'Open Sans', verdana, arial, sans-serif; font-size: 12px; fill: rgb(42, 63, 95); fill-opacity: 1; white-space: pre;">NTM</text></g><g class="xtick"><text text-anchor="start" x="0" y="508" transform="translate(756.8,0) rotate(90,0,502)" style="font-family: 'Open Sans', verdana, arial, sans-serif; font-size: 12px; fill: rgb(42, 63, 95); fill-opacity: 1; white-space: pre;">RAPGEF5</text></g><g class="xtick"><text text-anchor="start" x="0" y="508" transform="translate(775.6,0) rotate(90,0,502)" style="font-family: 'Open Sans', verdana, arial, sans-serif; font-size: 12px; fill: rgb(42, 63, 95); fill-opacity: 1; white-space: pre;">CACNA1E</text></g><g class="xtick"><text text-anchor="start" x="0" y="508" transform="translate(794.4,0) rotate(90,0,502)" style="font-family: 'Open Sans', verdana, arial, sans-serif; font-size: 12px; fill: rgb(42, 63, 95); fill-opacity: 1; white-space: pre;">PROSER2</text></g><g class="xtick"><text text-anchor="start" x="0" y="508" transform="translate(813.2,0) rotate(90,0,502)" style="font-family: 'Open Sans', verdana, arial, sans-serif; font-size: 12px; fill: rgb(42, 63, 95); fill-opacity: 1; white-space: pre;">GLIS3</text></g><g class="xtick"><text text-anchor="start" x="0" y="508" transform="translate(832,0) rotate(90,0,502)" style="font-family: 'Open Sans', verdana, arial, sans-serif; font-size: 12px; fill: rgb(42, 63, 95); fill-opacity: 1; white-space: pre;">GRID2</text></g><g class="xtick"><text text-anchor="start" x="0" y="508" transform="translate(850.8,0) rotate(90,0,502)" style="font-family: 'Open Sans', verdana, arial, sans-serif; font-size: 12px; fill: rgb(42, 63, 95); fill-opacity: 1; white-space: pre;">cluster2c</text></g></g><g class="yaxislayer-above"><g class="ytick"><text text-anchor="end" x="79" y="4.199999999999999" transform="translate(0,493.23)" style="font-family: 'Open Sans', verdana, arial, sans-serif; font-size: 12px; fill: rgb(42, 63, 95); fill-opacity: 1; white-space: pre;">0</text></g><g class="ytick"><text text-anchor="end" x="79" y="4.199999999999999" transform="translate(0,406.18)" style="font-family: 'Open Sans', verdana, arial, sans-serif; font-size: 12px; fill: rgb(42, 63, 95); fill-opacity: 1; white-space: pre;">5</text></g><g class="ytick"><text text-anchor="end" x="79" y="4.199999999999999" transform="translate(0,319.13)" style="font-family: 'Open Sans', verdana, arial, sans-serif; font-size: 12px; fill: rgb(42, 63, 95); fill-opacity: 1; white-space: pre;">10</text></g><g class="ytick"><text text-anchor="end" x="79" y="4.199999999999999" transform="translate(0,232.07)" style="font-family: 'Open Sans', verdana, arial, sans-serif; font-size: 12px; fill: rgb(42, 63, 95); fill-opacity: 1; white-space: pre;">15</text></g><g class="ytick"><text text-anchor="end" x="79" y="4.199999999999999" transform="translate(0,145.02)" style="font-family: 'Open Sans', verdana, arial, sans-serif; font-size: 12px; fill: rgb(42, 63, 95); fill-opacity: 1; white-space: pre;">20</text></g></g><g class="overaxes-above"><g class="xy2-x"/><g class="xy2-y"><g class="y2tick"><text text-anchor="start" x="851.8" y="4.199999999999999" transform="translate(0,463.84)" style="font-family: 'Open Sans', verdana, arial, sans-serif; font-size: 12px; fill: rgb(42, 63, 95); fill-opacity: 1; white-space: pre;">0.35</text></g><g class="y2tick"><text text-anchor="start" x="851.8" y="4.199999999999999" transform="translate(0,413.62)" style="font-family: 'Open Sans', verdana, arial, sans-serif; font-size: 12px; fill: rgb(42, 63, 95); fill-opacity: 1; white-space: pre;">0.4</text></g><g class="y2tick"><text text-anchor="start" x="851.8" y="4.199999999999999" transform="translate(0,363.39)" style="font-family: 'Open Sans', verdana, arial, sans-serif; font-size: 12px; fill: rgb(42, 63, 95); fill-opacity: 1; white-space: pre;">0.45</text></g><g class="y2tick"><text text-anchor="start" x="851.8" y="4.199999999999999" transform="translate(0,313.16999999999996)" style="font-family: 'Open Sans', verdana, arial, sans-serif; font-size: 12px; fill: rgb(42, 63, 95); fill-opacity: 1; white-space: pre;">0.5</text></g><g class="y2tick"><text text-anchor="start" x="851.8" y="4.199999999999999" transform="translate(0,262.95)" style="font-family: 'Open Sans', verdana, arial, sans-serif; font-size: 12px; fill: rgb(42, 63, 95); fill-opacity: 1; white-space: pre;">0.55</text></g><g class="y2tick"><text text-anchor="start" x="851.8" y="4.199999999999999" transform="translate(0,212.73000000000002)" style="font-family: 'Open Sans', verdana, arial, sans-serif; font-size: 12px; fill: rgb(42, 63, 95); fill-opacity: 1; white-space: pre;">0.6</text></g><g class="y2tick"><text text-anchor="start" x="851.8" y="4.199999999999999" transform="translate(0,162.51)" style="font-family: 'Open Sans', verdana, arial, sans-serif; font-size: 12px; fill: rgb(42, 63, 95); fill-opacity: 1; white-space: pre;">0.65</text></g><g class="y2tick"><text text-anchor="start" x="851.8" y="4.199999999999999" transform="translate(0,112.28)" style="font-family: 'Open Sans', verdana, arial, sans-serif; font-size: 12px; fill: rgb(42, 63, 95); fill-opacity: 1; white-space: pre;">0.7</text></g></g></g></g><g class="subplot xy2"/></g><g class="polarlayer"/><g class="ternarylayer"/><g class="geolayer"/><g class="funnelarealayer"/><g class="pielayer"/><g class="treemaplayer"/><g class="sunburstlayer"/><g class="glimages"/><defs id="topdefs-f0dd73"><g class="clips"/><clipPath id="legendf0dd73"><rect width="172" height="181" x="0" y="0"/></clipPath></defs><g class="layer-above"><g class="imagelayer"/><g class="shapelayer"/></g><g class="infolayer"><g class="legend" pointer-events="all" transform="translate(916.4,100)"><rect class="bg" shape-rendering="crispEdges" width="172" height="181" x="0" y="0" style="stroke: rgb(68, 68, 68); stroke-opacity: 1; fill: rgb(255, 255, 255); fill-opacity: 1; stroke-width: 0px;"/><g class="scrollbox" transform="" clip-path="url('#legendf0dd73')"><g class="groups"><g class="traces" transform="translate(0,14.5)" style="opacity: 1;"><text class="legendtext" text-anchor="start" x="40" y="4.680000000000001" style="font-family: 'Open Sans', verdana, arial, sans-serif; font-size: 12px; fill: rgb(42, 63, 95); fill-opacity: 1; white-space: pre;">FR17MAG201611897</text><g class="layers" style="opacity: 1;"><g class="legendfill"/><g class="legendlines"><path class="js-line" d="M5,0h30" style="fill: none; stroke: rgb(99, 110, 250); stroke-opacity: 1; stroke-width: 2px;"/></g><g class="legendsymbols"><g class="legendpoints"/></g></g><rect class="legendtoggle" x="0" y="-9.5" width="166.78125" height="19" style="fill: rgb(0, 0, 0); fill-opacity: 0;"/></g><g class="traces" transform="translate(0,33.5)" style="opacity: 1;"><text class="legendtext" text-anchor="start" x="40" y="4.680000000000001" style="font-family: 'Open Sans', verdana, arial, sans-serif; font-size: 12px; fill: rgb(42, 63, 95); fill-opacity: 1; white-space: pre;">FR17MAG201814130</text><g class="layers" style="opacity: 1;"><g class="legendfill"/><g class="legendlines"><path class="js-line" d="M5,0h30" style="fill: none; stroke: rgb(239, 85, 59); stroke-opacity: 1; stroke-width: 2px;"/></g><g class="legendsymbols"><g class="legendpoints"/></g></g><rect class="legendtoggle" x="0" y="-9.5" width="166.78125" height="19" style="fill: rgb(0, 0, 0); fill-opacity: 0;"/></g><g class="traces" transform="translate(0,52.5)" style="opacity: 1;"><text class="legendtext" text-anchor="start" x="40" y="4.680000000000001" style="font-family: 'Open Sans', verdana, arial, sans-serif; font-size: 12px; fill: rgb(42, 63, 95); fill-opacity: 1; white-space: pre;">FR17MAG201613767</text><g class="layers" style="opacity: 1;"><g class="legendfill"/><g class="legendlines"><path class="js-line" d="M5,0h30" style="fill: none; stroke: rgb(0, 204, 150); stroke-opacity: 1; stroke-width: 2px;"/></g><g class="legendsymbols"><g class="legendpoints"/></g></g><rect class="legendtoggle" x="0" y="-9.5" width="166.78125" height="19" style="fill: rgb(0, 0, 0); fill-opacity: 0;"/></g><g class="traces" transform="translate(0,71.5)" style="opacity: 1;"><text class="legendtext" text-anchor="start" x="40" y="4.680000000000001" style="font-family: 'Open Sans', verdana, arial, sans-serif; font-size: 12px; fill: rgb(42, 63, 95); fill-opacity: 1; white-space: pre;">FR17MAG201814115</text><g class="layers" style="opacity: 1;"><g class="legendfill"/><g class="legendlines"><path class="js-line" d="M5,0h30" style="fill: none; stroke: rgb(171, 99, 250); stroke-opacity: 1; stroke-width: 2px;"/></g><g class="legendsymbols"><g class="legendpoints"/></g></g><rect class="legendtoggle" x="0" y="-9.5" width="166.78125" height="19" style="fill: rgb(0, 0, 0); fill-opacity: 0;"/></g><g class="traces" transform="translate(0,90.5)" style="opacity: 1;"><text class="legendtext" text-anchor="start" x="40" y="4.680000000000001" style="font-family: 'Open Sans', verdana, arial, sans-serif; font-size: 12px; fill: rgb(42, 63, 95); fill-opacity: 1; white-space: pre;">FR17MAG201814099</text><g class="layers" style="opacity: 1;"><g class="legendfill"/><g class="legendlines"><path class="js-line" d="M5,0h30" style="fill: none; stroke: rgb(255, 161, 90); stroke-opacity: 1; stroke-width: 2px;"/></g><g class="legendsymbols"><g class="legendpoints"/></g></g><rect class="legendtoggle" x="0" y="-9.5" width="166.78125" height="19" style="fill: rgb(0, 0, 0); fill-opacity: 0;"/></g><g class="traces" transform="translate(0,109.5)" style="opacity: 1;"><text class="legendtext" text-anchor="start" x="40" y="4.680000000000001" style="font-family: 'Open Sans', verdana, arial, sans-serif; font-size: 12px; fill: rgb(42, 63, 95); fill-opacity: 1; white-space: pre;">FR17MAG201814095</text><g class="layers" style="opacity: 1;"><g class="legendfill"/><g class="legendlines"><path class="js-line" d="M5,0h30" style="fill: none; stroke: rgb(25, 211, 243); stroke-opacity: 1; stroke-width: 2px;"/></g><g class="legendsymbols"><g class="legendpoints"/></g></g><rect class="legendtoggle" x="0" y="-9.5" width="166.78125" height="19" style="fill: rgb(0, 0, 0); fill-opacity: 0;"/></g><g class="traces" transform="translate(0,128.5)" style="opacity: 1;"><text class="legendtext" text-anchor="start" x="40" y="4.680000000000001" style="font-family: 'Open Sans', verdana, arial, sans-serif; font-size: 12px; fill: rgb(42, 63, 95); fill-opacity: 1; white-space: pre;">FR17MAG201513026</text><g class="layers" style="opacity: 1;"><g class="legendfill"/><g class="legendlines"><path class="js-line" d="M5,0h30" style="fill: none; stroke: rgb(255, 102, 146); stroke-opacity: 1; stroke-width: 2px;"/></g><g class="legendsymbols"><g class="legendpoints"/></g></g><rect class="legendtoggle" x="0" y="-9.5" width="166.78125" height="19" style="fill: rgb(0, 0, 0); fill-opacity: 0;"/></g><g class="traces" transform="translate(0,147.5)" style="opacity: 1;"><text class="legendtext" text-anchor="start" x="40" y="4.680000000000001" style="font-family: 'Open Sans', verdana, arial, sans-serif; font-size: 12px; fill: rgb(42, 63, 95); fill-opacity: 1; white-space: pre;">Mean</text><g class="layers" style="opacity: 1;"><g class="legendfill"/><g class="legendlines"><path class="js-line" d="M5,0h30" style="fill: none; stroke: rgb(182, 232, 128); stroke-opacity: 1; stroke-width: 2px;"/></g><g class="legendsymbols"><g class="legendpoints"/></g></g><rect class="legendtoggle" x="0" y="-9.5" width="166.78125" height="19" style="fill: rgb(0, 0, 0); fill-opacity: 0;"/></g><g class="traces" transform="translate(0,166.5)" style="opacity: 1;"><text class="legendtext" text-anchor="start" x="40" y="4.680000000000001" style="font-family: 'Open Sans', verdana, arial, sans-serif; font-size: 12px; fill: rgb(42, 63, 95); fill-opacity: 1; white-space: pre;">GC rate</text><g class="layers" style="opacity: 1;"><g class="legendfill"/><g class="legendlines"><path class="js-line" d="M5,0h30" style="fill: none; stroke: rgb(128, 128, 128); stroke-opacity: 1; stroke-width: 2px;"/></g><g class="legendsymbols"><g class="legendpoints"/></g></g><rect class="legendtoggle" x="0" y="-9.5" width="166.78125" height="19" style="fill: rgb(0, 0, 0); fill-opacity: 0;"/></g></g></g><rect class="scrollbar" rx="20" ry="3" width="0" height="0" x="0" y="0" style="fill: rgb(128, 139, 164); fill-opacity: 1;"/></g><g class="g-gtitle"><text class="gtitle" x="55" y="50" text-anchor="start" dy="0em" style="font-family: 'Open Sans', verdana, arial, sans-serif; font-size: 17px; fill: rgb(42, 63, 95); opacity: 1; font-weight: normal; white-space: pre;">Mean depth per region for agilent1</text></g><g class="g-xtitle"><text class="xtitle" x="465.4" y="587.784375" text-anchor="middle" style="font-family: 'Open Sans', verdana, arial, sans-serif; font-size: 14px; fill: rgb(42, 63, 95); opacity: 1; font-weight: normal; white-space: pre;">Expected region</text></g><g class="g-ytitle"><text class="ytitle" transform="rotate(-90,38.934375,297.5)" x="38.934375" y="297.5" text-anchor="middle" style="font-family: 'Open Sans', verdana, arial, sans-serif; font-size: 14px; fill: rgb(42, 63, 95); opacity: 1; font-weight: normal; white-space: pre;">Mean depth</text></g><g class="g-y2title"><text class="y2title" transform="rotate(-90,903.8625,297.5)" x="903.8625" y="297.5" text-anchor="middle" style="font-family: 'Open Sans', verdana, arial, sans-serif; font-size: 14px; fill: rgb(42, 63, 95); opacity: 1; font-weight: normal; white-space: pre;">GC %</text></g></g></svg>